G04*
G04 #@! TF.GenerationSoftware,Altium Limited,Altium Designer,18.1.7 (191)*
G04*
G04 Layer_Color=8388736*
%FSLAX25Y25*%
%MOIN*%
G70*
G01*
G75*
%ADD11C,0.00984*%
%ADD53R,0.07677X0.05709*%
%ADD54C,0.11811*%
%ADD55R,0.07284X0.08465*%
%ADD56R,0.06299X0.05709*%
%ADD57R,0.02953X0.02756*%
%ADD58R,0.03150X0.03504*%
%ADD59R,0.01968X0.03347*%
%ADD60R,0.02559X0.04528*%
%ADD61R,0.05709X0.07677*%
%ADD62R,0.08465X0.04528*%
%ADD63R,0.05709X0.06299*%
%ADD64R,0.03110X0.02874*%
%ADD65O,0.03937X0.01378*%
%ADD66O,0.01378X0.03937*%
%ADD67R,0.21850X0.21850*%
%ADD68R,0.02756X0.02953*%
%ADD69R,0.06890X0.04528*%
%ADD70R,0.07874X0.04528*%
%ADD71R,0.04528X0.05709*%
%ADD72R,0.04724X0.07087*%
%ADD73R,0.02559X0.04921*%
%ADD74R,0.10039X0.03583*%
%ADD75R,0.03110X0.03110*%
%ADD76P,0.04399X4X270.0*%
%ADD77R,0.03110X0.03110*%
%ADD78R,0.02874X0.03110*%
%ADD79O,0.01575X0.04134*%
%ADD80O,0.04134X0.01575*%
%ADD81R,0.14370X0.14370*%
%ADD82R,0.04528X0.06102*%
%ADD83R,0.06102X0.04528*%
%ADD84R,0.04528X0.02559*%
%ADD85R,0.03347X0.01968*%
%ADD86R,0.03504X0.03150*%
%ADD87R,0.06102X0.05118*%
%ADD88C,0.00984*%
%ADD89R,0.04528X0.02953*%
%ADD90C,0.00591*%
%ADD91C,0.22244*%
G04:AMPARAMS|DCode=92|XSize=5.91mil|YSize=5.91mil|CornerRadius=0mil|HoleSize=0mil|Usage=FLASHONLY|Rotation=0.000|XOffset=0mil|YOffset=0mil|HoleType=Round|Shape=RoundedRectangle|*
%AMROUNDEDRECTD92*
21,1,0.00591,0.00591,0,0,0.0*
21,1,0.00591,0.00591,0,0,0.0*
1,1,0.00000,0.00295,-0.00295*
1,1,0.00000,-0.00295,-0.00295*
1,1,0.00000,-0.00295,0.00295*
1,1,0.00000,0.00295,0.00295*
%
%ADD92ROUNDEDRECTD92*%
%ADD93C,0.03347*%
%ADD94C,0.03362*%
%ADD95C,0.03740*%
G36*
X39593Y232687D02*
X39692Y232622D01*
X39987Y232425D01*
X40118Y232294D01*
X40249Y232228D01*
X40315Y232162D01*
X40348Y232130D01*
X40872Y231703D01*
X41299Y231310D01*
X41496Y231146D01*
X41627Y231014D01*
X41725Y230949D01*
X41758Y230916D01*
X42053Y230621D01*
X42381Y230326D01*
X42676Y229998D01*
X42939Y229702D01*
X43168Y229440D01*
X43332Y229243D01*
X43464Y229112D01*
X43496Y229046D01*
X43824Y228653D01*
X44152Y228259D01*
X44415Y227898D01*
X44644Y227570D01*
X44841Y227308D01*
X44972Y227111D01*
X45071Y226980D01*
X45104Y226947D01*
X45596Y226127D01*
X46022Y225340D01*
X46416Y224586D01*
X46711Y223897D01*
X46973Y223306D01*
X47072Y223077D01*
X47137Y222847D01*
X47203Y222683D01*
X47268Y222552D01*
X47301Y222486D01*
Y222454D01*
X47596Y221568D01*
X47859Y220715D01*
X48056Y219862D01*
X48220Y219075D01*
X48285Y218747D01*
X48318Y218419D01*
X48384Y218124D01*
X48416Y217894D01*
X48449Y217698D01*
X48482Y217566D01*
Y217435D01*
X48515Y217107D01*
X48548Y216746D01*
Y216386D01*
X48580Y215992D01*
Y214155D01*
X48548Y213762D01*
Y213434D01*
X48515Y213204D01*
Y213007D01*
X48482Y212909D01*
Y212876D01*
X48351Y211990D01*
X48220Y211138D01*
X48056Y210383D01*
X47892Y209694D01*
X47793Y209399D01*
X47728Y209137D01*
X47662Y208907D01*
X47596Y208710D01*
X47564Y208546D01*
X47531Y208448D01*
X47498Y208382D01*
Y208350D01*
X47236Y207562D01*
X46908Y206841D01*
X46612Y206152D01*
X46317Y205562D01*
X46055Y205037D01*
X45956Y204840D01*
X45858Y204643D01*
X45760Y204512D01*
X45727Y204414D01*
X45661Y204348D01*
Y204315D01*
X44874Y203069D01*
X44021Y201921D01*
X43595Y201396D01*
X43168Y200904D01*
X42742Y200445D01*
X42348Y200018D01*
X41988Y199658D01*
X41627Y199297D01*
X41332Y199002D01*
X41069Y198772D01*
X40840Y198575D01*
X40676Y198444D01*
X40577Y198346D01*
X40544Y198313D01*
X40282Y198116D01*
X40085Y197985D01*
X39954Y197854D01*
X39888Y197821D01*
X39724Y197722D01*
X39593Y197657D01*
X39528Y197624D01*
X39462Y197657D01*
X39364Y197788D01*
X39232Y197886D01*
X39200Y197919D01*
X37724Y199625D01*
X37560Y199854D01*
X37428Y200018D01*
X37363Y200084D01*
Y200117D01*
X37166Y200314D01*
X38150Y201068D01*
X38708Y201527D01*
X39134Y201921D01*
X39495Y202282D01*
X39823Y202610D01*
X40118Y202905D01*
X40348Y203167D01*
X40544Y203364D01*
X40643Y203495D01*
X40676Y203528D01*
X41299Y204315D01*
X41561Y204676D01*
X41791Y205004D01*
X41988Y205299D01*
X42119Y205529D01*
X42217Y205660D01*
X42250Y205726D01*
X42447Y206054D01*
X42611Y206316D01*
X42742Y206513D01*
X42775Y206546D01*
Y206578D01*
X42939Y206874D01*
X43070Y207103D01*
X43103Y207234D01*
X43136Y207267D01*
X43365Y207759D01*
X43660Y208448D01*
X43923Y209170D01*
X44120Y209826D01*
X44316Y210449D01*
X44448Y210974D01*
X44480Y211170D01*
X44546Y211367D01*
X44579Y211531D01*
Y211630D01*
X44612Y211695D01*
Y211728D01*
X44743Y212515D01*
X44841Y213302D01*
X44907Y214024D01*
X44940Y214647D01*
Y215992D01*
X44874Y216976D01*
X44644Y218452D01*
X44546Y218944D01*
X44448Y219469D01*
X44382Y219666D01*
X44316Y219830D01*
X44284Y219961D01*
Y219994D01*
X44185Y220354D01*
X44087Y220650D01*
X43988Y220945D01*
X43923Y221174D01*
X43857Y221371D01*
X43792Y221502D01*
X43759Y221601D01*
Y221634D01*
X43595Y222027D01*
X43431Y222388D01*
X43267Y222716D01*
X43136Y223011D01*
X43004Y223241D01*
X42939Y223405D01*
X42873Y223536D01*
X42840Y223569D01*
X42480Y224225D01*
X42283Y224553D01*
X42086Y224848D01*
X41922Y225110D01*
X41824Y225307D01*
X41725Y225438D01*
X41692Y225471D01*
X41036Y226324D01*
X40741Y226718D01*
X40446Y227046D01*
X40184Y227341D01*
X39987Y227538D01*
X39823Y227702D01*
X39790Y227734D01*
X39396Y228128D01*
X39003Y228522D01*
X38642Y228850D01*
X38314Y229145D01*
X38019Y229374D01*
X37789Y229538D01*
X37658Y229670D01*
X37592Y229702D01*
X37166Y229998D01*
X39331Y232556D01*
X39429Y232654D01*
X39462Y232687D01*
X39495Y232720D01*
X39593Y232687D01*
D02*
G37*
G36*
X28376Y232818D02*
X29064Y232753D01*
X30344Y232523D01*
X30967Y232392D01*
X31557Y232228D01*
X32115Y232064D01*
X32607Y231933D01*
X33099Y231769D01*
X33492Y231605D01*
X33886Y231474D01*
X34181Y231342D01*
X34444Y231244D01*
X34608Y231146D01*
X34739Y231113D01*
X34772Y231080D01*
X35264Y230818D01*
X35756Y230555D01*
X36182Y230326D01*
X36543Y230096D01*
X36871Y229866D01*
X37100Y229702D01*
X37232Y229604D01*
X37297Y229571D01*
X38150Y228915D01*
X38544Y228587D01*
X38904Y228292D01*
X39167Y228062D01*
X39396Y227833D01*
X39560Y227702D01*
X39593Y227669D01*
X40216Y227013D01*
X40774Y226324D01*
X41233Y225701D01*
X41627Y225143D01*
X41955Y224651D01*
X42086Y224454D01*
X42184Y224258D01*
X42283Y224126D01*
X42348Y224028D01*
X42381Y223962D01*
Y223930D01*
X42840Y223077D01*
X43037Y222716D01*
X43201Y222355D01*
X43332Y222093D01*
X43431Y221863D01*
X43464Y221732D01*
X43496Y221666D01*
X43792Y220846D01*
X43923Y220453D01*
X44021Y220125D01*
X44087Y219797D01*
X44152Y219567D01*
X44218Y219436D01*
Y219370D01*
X44382Y218616D01*
X44513Y217862D01*
X44579Y217140D01*
X44644Y216484D01*
X44677Y215959D01*
X44710Y215697D01*
Y215139D01*
X44677Y214319D01*
X44644Y213565D01*
X44546Y212843D01*
X44480Y212220D01*
X44382Y211695D01*
X44349Y211466D01*
X44284Y211302D01*
X44251Y211138D01*
Y211039D01*
X44218Y210974D01*
Y210941D01*
X44120Y210482D01*
X43988Y210055D01*
X43857Y209662D01*
X43759Y209301D01*
X43660Y209006D01*
X43562Y208809D01*
X43529Y208678D01*
X43496Y208612D01*
X43168Y207825D01*
X42972Y207464D01*
X42808Y207136D01*
X42676Y206841D01*
X42545Y206644D01*
X42480Y206513D01*
X42447Y206447D01*
X42020Y205726D01*
X41561Y205037D01*
X41102Y204446D01*
X40643Y203889D01*
X40282Y203430D01*
X39954Y203102D01*
X39856Y202970D01*
X39757Y202872D01*
X39724Y202839D01*
X39692Y202806D01*
X39068Y202216D01*
X38445Y201658D01*
X37855Y201199D01*
X37297Y200773D01*
X36838Y200412D01*
X36444Y200182D01*
X36313Y200084D01*
X36215Y200018D01*
X36149Y199953D01*
X36116D01*
X35460Y199592D01*
X34804Y199264D01*
X34148Y198969D01*
X33492Y198706D01*
X32246Y198280D01*
X31656Y198083D01*
X31098Y197952D01*
X30573Y197821D01*
X30114Y197722D01*
X29720Y197657D01*
X29360Y197591D01*
X29064Y197558D01*
X28835Y197526D01*
X28704Y197493D01*
X28671D01*
X28408D01*
X28146Y197460D01*
X27523D01*
X27260D01*
X27031D01*
X26900D01*
X26834D01*
X26408D01*
X26047D01*
X25752D01*
X25489Y197493D01*
X25325D01*
X25194D01*
X25128D01*
X25096D01*
X24604Y197558D01*
X24177Y197657D01*
X23751Y197722D01*
X23423Y197788D01*
X23128Y197854D01*
X22898Y197886D01*
X22767Y197919D01*
X22701D01*
X21947Y198149D01*
X21586Y198247D01*
X21291Y198346D01*
X21028Y198444D01*
X20799Y198510D01*
X20668Y198575D01*
X20635D01*
X19749Y198969D01*
X19323Y199166D01*
X18962Y199362D01*
X18667Y199526D01*
X18404Y199658D01*
X18273Y199723D01*
X18208Y199756D01*
X17781Y200018D01*
X17355Y200281D01*
X16994Y200543D01*
X16666Y200773D01*
X16371Y200970D01*
X16174Y201101D01*
X16043Y201199D01*
X16010Y201232D01*
X15452Y201724D01*
X14895Y202216D01*
X14403Y202708D01*
X13944Y203200D01*
X13517Y203725D01*
X13091Y204217D01*
X12730Y204676D01*
X12402Y205135D01*
X12140Y205562D01*
X11877Y205955D01*
X11648Y206283D01*
X11484Y206578D01*
X11352Y206841D01*
X11221Y207005D01*
X11188Y207136D01*
X11156Y207169D01*
X10795Y207989D01*
X10631Y208350D01*
X10500Y208678D01*
X10401Y208973D01*
X10303Y209170D01*
X10270Y209334D01*
X10237Y209366D01*
X9975Y210186D01*
X9876Y210547D01*
X9778Y210908D01*
X9712Y211203D01*
X9647Y211433D01*
X9614Y211564D01*
Y211630D01*
X9516Y212154D01*
X9483Y212417D01*
X9450Y212614D01*
X9417Y212778D01*
Y212942D01*
X9384Y213007D01*
Y213040D01*
X9352Y213598D01*
X9319Y214122D01*
X9286Y214352D01*
Y214713D01*
X9253Y214975D01*
Y215205D01*
X9286Y215533D01*
Y216254D01*
X9319Y216517D01*
Y216746D01*
X9352Y216943D01*
Y217074D01*
X9384Y217173D01*
Y217271D01*
X9483Y218026D01*
X9647Y218747D01*
X9778Y219436D01*
X9942Y220026D01*
X10106Y220551D01*
X10172Y220748D01*
X10204Y220945D01*
X10270Y221076D01*
X10303Y221174D01*
X10336Y221240D01*
Y221273D01*
X10631Y221994D01*
X10959Y222683D01*
X11254Y223339D01*
X11582Y223864D01*
X11844Y224323D01*
X12041Y224684D01*
X12140Y224815D01*
X12172Y224914D01*
X12238Y224946D01*
Y224979D01*
X12664Y225602D01*
X13124Y226160D01*
X13550Y226685D01*
X13944Y227144D01*
X14272Y227505D01*
X14534Y227767D01*
X14698Y227931D01*
X14764Y227997D01*
X15321Y228489D01*
X15846Y228948D01*
X16404Y229342D01*
X16896Y229702D01*
X17322Y229998D01*
X17650Y230227D01*
X17781Y230326D01*
X17880Y230391D01*
X17912Y230424D01*
X17945D01*
X18109Y230522D01*
X18306Y230621D01*
X18700Y230850D01*
X18896Y230916D01*
X19028Y230982D01*
X19126Y231047D01*
X19159D01*
X19684Y231310D01*
X19913Y231408D01*
X20110Y231506D01*
X20241Y231572D01*
X20340Y231605D01*
X20405Y231638D01*
X20438D01*
X21094Y231867D01*
X21783Y232097D01*
X23095Y232425D01*
X24308Y232622D01*
X24866Y232720D01*
X25391Y232753D01*
X25883Y232818D01*
X26342D01*
X26736Y232851D01*
X27064D01*
X27326D01*
X27523D01*
X27654D01*
X27687D01*
X28376Y232818D01*
D02*
G37*
G36*
X101969Y34548D02*
X102015Y34545D01*
X102060Y34534D01*
X102103Y34516D01*
X102143Y34492D01*
X102178Y34461D01*
X102208Y34426D01*
X102232Y34386D01*
X102250Y34343D01*
X102261Y34298D01*
X102265Y34252D01*
Y24803D01*
X102261Y24757D01*
X102250Y24712D01*
X102232Y24669D01*
X102208Y24629D01*
X102178Y24594D01*
X102143Y24564D01*
X102103Y24539D01*
X102060Y24521D01*
X102015Y24511D01*
X101969Y24507D01*
X94095Y24507D01*
X94048Y24511D01*
X94003Y24521D01*
X93960Y24539D01*
X93920Y24564D01*
X93885Y24594D01*
X93855Y24629D01*
X93831Y24669D01*
X93813Y24712D01*
X93802Y24757D01*
X93798Y24803D01*
X93798Y31102D01*
Y31102D01*
D01*
X93802Y31149D01*
X93813Y31194D01*
X93831Y31237D01*
X93855Y31276D01*
X93885Y31312D01*
X97035Y34462D01*
X97070Y34492D01*
X97110Y34516D01*
X97153Y34534D01*
X97198Y34545D01*
X97244Y34548D01*
X97244D01*
D01*
X101969Y34548D01*
D02*
G37*
G36*
X60282Y34545D02*
X60328Y34534D01*
X60371Y34516D01*
X60410Y34492D01*
X60446Y34462D01*
X63595Y31312D01*
X63626Y31276D01*
X63650Y31237D01*
X63668Y31194D01*
X63678Y31149D01*
X63682Y31102D01*
D01*
Y31102D01*
X63682Y24803D01*
X63678Y24757D01*
X63668Y24712D01*
X63650Y24669D01*
X63626Y24629D01*
X63595Y24594D01*
X63560Y24564D01*
X63520Y24539D01*
X63477Y24521D01*
X63432Y24511D01*
X63386Y24507D01*
X55512Y24507D01*
X55466Y24511D01*
X55420Y24521D01*
X55377Y24539D01*
X55338Y24564D01*
X55302Y24594D01*
X55272Y24629D01*
X55248Y24669D01*
X55230Y24712D01*
X55219Y24757D01*
X55216Y24803D01*
Y34252D01*
X55219Y34298D01*
X55230Y34343D01*
X55248Y34386D01*
X55272Y34426D01*
X55302Y34461D01*
X55338Y34492D01*
X55377Y34516D01*
X55420Y34534D01*
X55466Y34545D01*
X55512Y34548D01*
X60236Y34548D01*
D01*
X60236D01*
X60282Y34545D01*
D02*
G37*
%LPC*%
G36*
X40348Y231375D02*
X39232Y230096D01*
X39101Y229998D01*
X39036Y229899D01*
X38970Y229834D01*
Y229801D01*
X38839Y229670D01*
X38773Y229571D01*
X38740Y229538D01*
X38773Y229506D01*
X38806Y229440D01*
X38839Y229374D01*
X38872Y229342D01*
X39101Y229145D01*
X39167D01*
X39232Y229210D01*
X39495Y229374D01*
X39724Y229538D01*
X39790Y229571D01*
X39823Y229604D01*
X40544Y230096D01*
Y230063D01*
X40512Y230030D01*
Y229998D01*
X39692Y228620D01*
X39921Y228423D01*
X40052Y228325D01*
X40118Y228259D01*
X40151Y228226D01*
X41856Y230063D01*
X41725Y230194D01*
X41594Y230293D01*
X41496Y230326D01*
X41463Y230293D01*
X41430Y230194D01*
X41332Y230096D01*
X41233Y229965D01*
X41200Y229932D01*
X40577Y229243D01*
X40446Y229079D01*
X40348Y228948D01*
X40282Y228915D01*
Y228981D01*
X40315Y229014D01*
X41102Y230391D01*
X41233Y230588D01*
X41200Y230654D01*
X41135Y230686D01*
X41102Y230719D01*
X41069D01*
X40971Y230850D01*
X39856Y230030D01*
X39692Y229932D01*
X39593Y229834D01*
X39528Y229801D01*
X39462Y229768D01*
X39429Y229735D01*
X40643Y231146D01*
X40348Y231375D01*
D02*
G37*
G36*
X43726Y227898D02*
X43693Y227866D01*
Y227833D01*
X43595Y227702D01*
X43529Y227538D01*
X43496Y227505D01*
Y227472D01*
X43365Y227210D01*
X43300Y227046D01*
X43234Y226947D01*
Y226783D01*
X43037Y226849D01*
X42939Y226882D01*
X42873Y226914D01*
X42808D01*
X42775D01*
X42709D01*
X42676D01*
X42644D01*
X42414Y226816D01*
X42250Y226652D01*
X42119Y226554D01*
X42086Y226488D01*
X42020Y226324D01*
Y226127D01*
X42053Y226029D01*
X42086Y225963D01*
X42184Y225799D01*
X42283Y225602D01*
X42381Y225471D01*
X42414Y225438D01*
Y225406D01*
X42578Y225209D01*
X42676Y225110D01*
X42742Y225045D01*
X42808Y225078D01*
X42939Y225176D01*
X43234Y225373D01*
X43365Y225504D01*
X43496Y225570D01*
X43595Y225635D01*
X43628Y225668D01*
X43923Y225865D01*
X44152Y226029D01*
X44316Y226127D01*
X44448Y226226D01*
X44546Y226324D01*
X44644Y226357D01*
X44677Y226390D01*
X44776Y226455D01*
X44677Y226619D01*
X44612Y226685D01*
X44546Y226718D01*
X44513D01*
X44448Y226685D01*
X44316Y226586D01*
X44185Y226488D01*
X44152Y226455D01*
X44120D01*
X43693Y226160D01*
X43595Y226324D01*
X43529Y226390D01*
Y226554D01*
X43595Y226685D01*
X43660Y226882D01*
X43726Y227013D01*
X43759Y227078D01*
X43956Y227538D01*
Y227603D01*
X43923Y227669D01*
X43890Y227702D01*
X43857Y227734D01*
X43792Y227833D01*
X43759Y227866D01*
X43726Y227898D01*
D02*
G37*
G36*
X42316Y229276D02*
X42184Y229243D01*
X42053Y229210D01*
X41988Y229178D01*
X41922Y229112D01*
X41889D01*
X41791Y229046D01*
X41627Y228948D01*
X41266Y228620D01*
X41102Y228489D01*
X40971Y228358D01*
X40872Y228259D01*
X40840Y228226D01*
X40446Y227898D01*
X40741Y227570D01*
X41627Y228390D01*
X41824Y228554D01*
X41955Y228653D01*
X42053Y228718D01*
X42086D01*
X42217Y228784D01*
X42316Y228817D01*
X42414D01*
X42512Y228751D01*
X42611Y228653D01*
X42644Y228620D01*
Y228587D01*
X42676Y228489D01*
X42709Y228423D01*
X42676Y228358D01*
Y228325D01*
X42611Y228226D01*
X42512Y228128D01*
X42447Y228030D01*
X42414Y227997D01*
X42348Y227931D01*
X42217Y227833D01*
X41988Y227636D01*
X41791Y227439D01*
X41725Y227406D01*
X41692Y227374D01*
X41266Y227013D01*
X41397Y226849D01*
X41496Y226750D01*
X41528Y226718D01*
X41561D01*
X41692Y226783D01*
X41824Y226882D01*
X42053Y227111D01*
X42283Y227308D01*
X42316Y227374D01*
X42348Y227406D01*
X42545Y227570D01*
X42676Y227734D01*
X42906Y227931D01*
X43004Y228030D01*
X43037Y228062D01*
X43103Y228259D01*
Y228456D01*
X43070Y228620D01*
X43037Y228784D01*
X42939Y228882D01*
X42873Y228981D01*
X42840Y229046D01*
X42808Y229079D01*
X42644Y229210D01*
X42480Y229243D01*
X42316Y229276D01*
D02*
G37*
G36*
X45104Y225898D02*
X45038D01*
X44972Y225865D01*
X44940Y225832D01*
X44874Y225766D01*
X44808Y225734D01*
X44776Y225701D01*
X45038Y225242D01*
X45169Y224979D01*
X45235Y224815D01*
Y224717D01*
X45202Y224651D01*
X45104Y224586D01*
X45005Y224553D01*
X44972Y224520D01*
X44808Y224454D01*
X44743Y224422D01*
X44677Y224389D01*
X44218Y225242D01*
X44185Y225274D01*
X44120D01*
X44021Y225242D01*
X43988Y225209D01*
X43792Y225078D01*
X44316Y224192D01*
X44284Y224159D01*
X44218Y224094D01*
X44120Y224061D01*
X44087Y224028D01*
X43792Y223897D01*
X43562Y224389D01*
X43464Y224520D01*
X43398Y224651D01*
X43332Y224750D01*
X43267Y224815D01*
X43234D01*
X43168D01*
X43103Y224782D01*
X43070D01*
X42906Y224684D01*
X43660Y223339D01*
X45464Y224356D01*
X45661Y224487D01*
X45760Y224553D01*
X45792Y224586D01*
Y224651D01*
X45760Y224717D01*
X45661Y224946D01*
X45530Y225110D01*
X45497Y225176D01*
Y225209D01*
X45136Y225865D01*
X45104Y225898D01*
D02*
G37*
G36*
X46055Y224094D02*
X46022D01*
X45956Y224028D01*
X45858Y223897D01*
X45727Y223766D01*
X45694Y223733D01*
Y223700D01*
X45530Y223438D01*
X45432Y223306D01*
X45366Y223208D01*
Y223175D01*
X45333Y223142D01*
X45300D01*
X45268Y223175D01*
X45235Y223208D01*
X45038Y223306D01*
X44841Y223339D01*
X44710D01*
X44677D01*
X44644D01*
X44415Y223274D01*
X44251Y223142D01*
X44152Y223044D01*
X44120Y223011D01*
X44054Y222847D01*
X44021Y222716D01*
Y222585D01*
X44087Y222388D01*
X44185Y222158D01*
X44284Y221962D01*
X44316Y221896D01*
Y221863D01*
X44349Y221732D01*
X44415Y221666D01*
X44480Y221535D01*
X44546Y221502D01*
X46744Y222421D01*
X46711Y222585D01*
X46678Y222683D01*
X46612Y222749D01*
X46580D01*
X46481Y222716D01*
X46317Y222683D01*
X46186Y222618D01*
X46153Y222585D01*
X46120D01*
X45661Y222388D01*
X45596Y222519D01*
X45563Y222585D01*
Y222683D01*
X45596Y222716D01*
Y222749D01*
X45661Y222880D01*
X45760Y223044D01*
X45858Y223142D01*
X45891Y223208D01*
X46055Y223405D01*
X46153Y223503D01*
X46186Y223569D01*
X46219Y223667D01*
Y223766D01*
X46186Y223831D01*
X46153Y223897D01*
Y223930D01*
X46120Y224028D01*
X46088Y224061D01*
X46055Y224094D01*
D02*
G37*
G36*
X47432Y220223D02*
X47367D01*
X47268Y220125D01*
X47170Y220059D01*
X47137Y220026D01*
X46645Y219600D01*
X46514Y219469D01*
X46383Y219403D01*
X46317Y219370D01*
X46284D01*
X46153Y219403D01*
X45956Y219436D01*
X45760Y219469D01*
X45727Y219502D01*
X45694D01*
X45268Y219633D01*
X45169Y219666D01*
X45104D01*
X45071D01*
X45038Y219633D01*
Y219534D01*
X45071Y219436D01*
Y219403D01*
X45136Y219272D01*
X45169Y219239D01*
X45235Y219206D01*
X45366Y219174D01*
X45464Y219141D01*
X45497D01*
X45661Y219075D01*
X45760Y219010D01*
X45825Y218977D01*
Y218944D01*
X45792Y218911D01*
X45628Y218747D01*
X45464Y218616D01*
X45432Y218583D01*
X45399Y218550D01*
X45333Y218452D01*
X45300Y218419D01*
Y218354D01*
X45333Y218288D01*
Y218190D01*
X45366Y218091D01*
Y218058D01*
X45399Y218026D01*
X45497Y218058D01*
X45628Y218190D01*
X45727Y218288D01*
X45792Y218321D01*
X46448Y218846D01*
X47826Y218452D01*
X47793Y218583D01*
X47760Y218714D01*
Y218780D01*
X47728Y218846D01*
X47695Y218878D01*
X47662Y218911D01*
X47498Y218944D01*
X47367Y219010D01*
X47334D01*
X47301D01*
X46842Y219174D01*
X46875Y219206D01*
X46940Y219239D01*
X46973Y219305D01*
X47006D01*
X47531Y219797D01*
X47498Y220026D01*
Y220125D01*
X47465Y220190D01*
X47432Y220223D01*
D02*
G37*
G36*
X47859Y218091D02*
X47826D01*
X47695Y218058D01*
X47531Y217993D01*
X47367Y217927D01*
X47334Y217894D01*
X47301D01*
X46711Y217632D01*
X46514Y217534D01*
X46317Y217468D01*
X46186Y217435D01*
X46153Y217402D01*
X45497Y217107D01*
X45464Y217042D01*
Y216878D01*
X45497Y216746D01*
X45530Y216681D01*
X45563Y216648D01*
X45628Y216615D01*
X45694Y216582D01*
X45727D01*
X48023Y216123D01*
X48056Y216156D01*
Y216320D01*
X48023Y216517D01*
X47465Y216648D01*
X47400Y217206D01*
Y217402D01*
X47432Y217435D01*
X47498Y217501D01*
X47596Y217566D01*
X47695Y217599D01*
X47728Y217632D01*
X47826Y217665D01*
X47859Y217698D01*
X47892Y217730D01*
X47924Y217796D01*
Y217993D01*
X47892Y218058D01*
X47859Y218091D01*
D02*
G37*
G36*
X47170Y215664D02*
X47072D01*
X46940D01*
X46908D01*
X46612D01*
X46383D01*
X46252Y215631D01*
X46219D01*
X46055Y215566D01*
X45924Y215500D01*
X45858Y215467D01*
X45825Y215434D01*
X45727Y215336D01*
X45661Y215238D01*
X45596Y215172D01*
Y215139D01*
X45563Y214877D01*
Y214024D01*
X48023Y213991D01*
X48056Y214352D01*
Y214811D01*
X48023Y214975D01*
X47990Y215106D01*
X47957Y215270D01*
X47924Y215336D01*
X47728Y215500D01*
X47629Y215533D01*
X47596Y215566D01*
X47400Y215631D01*
X47334D01*
X47301D01*
X47170Y215664D01*
D02*
G37*
G36*
X45727Y213630D02*
X45628D01*
X45563D01*
X45530D01*
Y213565D01*
X45497Y213466D01*
X45464Y213204D01*
X45432Y213106D01*
Y212974D01*
X45399Y212909D01*
Y212876D01*
X45366Y212646D01*
Y212351D01*
X45333Y212286D01*
Y212154D01*
X47826Y211826D01*
X48023Y213368D01*
X47596Y213401D01*
X47465Y212286D01*
X47104Y212318D01*
X46940D01*
X46842Y212351D01*
X46776Y212384D01*
Y212515D01*
X46809Y212712D01*
X46842Y212876D01*
Y212942D01*
X46875Y213368D01*
X46481Y213434D01*
X46383Y212548D01*
X46350Y212450D01*
X46317Y212417D01*
X46284D01*
X45792Y212482D01*
Y212712D01*
X45924Y213598D01*
X45727Y213630D01*
D02*
G37*
G36*
X45497Y210022D02*
X45432D01*
X45399D01*
X45202D01*
X45136Y209990D01*
X45104D01*
X44907Y209891D01*
X44776Y209760D01*
X44710Y209662D01*
X44677Y209596D01*
X44612Y209334D01*
X44579Y209137D01*
X44644Y208973D01*
X44710Y208842D01*
X44776Y208743D01*
X44874Y208678D01*
X44907Y208612D01*
X44940D01*
X45169Y208546D01*
X45333Y208514D01*
X45464Y208546D01*
X45497D01*
X45694Y208678D01*
X45858Y208842D01*
X45989Y208973D01*
X46022Y209038D01*
X46120Y209170D01*
X46219Y209268D01*
X46252Y209301D01*
X46284D01*
X46416Y209334D01*
X46514Y209301D01*
X46580Y209268D01*
X46612Y209235D01*
X46678Y209104D01*
X46711Y209006D01*
X46678Y208874D01*
Y208842D01*
X46645Y208743D01*
X46612Y208678D01*
X46448Y208579D01*
X46317Y208514D01*
X46284D01*
X46252D01*
X46120D01*
X46088Y208481D01*
X46055Y208415D01*
Y208218D01*
X46153Y208153D01*
X46284Y208120D01*
X46350D01*
X46547Y208153D01*
X46711Y208218D01*
X46940Y208415D01*
X47072Y208612D01*
X47104Y208678D01*
Y208710D01*
X47170Y208973D01*
X47137Y209202D01*
X47104Y209334D01*
X47072Y209366D01*
X46908Y209530D01*
X46744Y209662D01*
X46580Y209694D01*
X46547Y209727D01*
X46514D01*
X46317Y209760D01*
X46153Y209727D01*
X46022Y209694D01*
X45989D01*
X45825Y209563D01*
X45661Y209399D01*
X45563Y209268D01*
X45497Y209235D01*
Y209202D01*
X45399Y209071D01*
X45333Y209006D01*
X45235Y208973D01*
X45202Y208940D01*
X45104D01*
X45071Y208973D01*
X45005Y209137D01*
Y209301D01*
X45038Y209432D01*
X45071Y209465D01*
X45104Y209530D01*
X45169Y209563D01*
X45202Y209596D01*
X45235D01*
X45333D01*
X45366D01*
X45399D01*
X45432Y209629D01*
X45464Y209662D01*
X45497Y209694D01*
Y209727D01*
X45563Y209891D01*
Y209924D01*
X45530Y209990D01*
X45497Y210022D01*
D02*
G37*
G36*
X44349Y208382D02*
X44316D01*
X44152Y208022D01*
X45464Y207398D01*
X45760Y207267D01*
X45858Y207169D01*
X45924Y207070D01*
Y206841D01*
X45825Y206677D01*
X45792Y206644D01*
Y206611D01*
X45694Y206546D01*
X45596Y206513D01*
X45530D01*
X45497D01*
X45366Y206578D01*
X45202Y206611D01*
X45104Y206677D01*
X45038D01*
X43792Y207267D01*
X43759Y207234D01*
Y207169D01*
X43726Y207136D01*
Y207103D01*
X43660Y206906D01*
X43693Y206874D01*
X43792Y206841D01*
X44021Y206710D01*
X44218Y206611D01*
X44284Y206578D01*
X44316D01*
X44710Y206414D01*
X45005Y206283D01*
X45202Y206218D01*
X45268Y206185D01*
X45464Y206152D01*
X45628Y206119D01*
X45891Y206185D01*
X46055Y206283D01*
X46120Y206349D01*
X46219Y206513D01*
X46284Y206644D01*
X46317Y206742D01*
Y206775D01*
X46350Y206939D01*
X46383Y207070D01*
X46350Y207169D01*
Y207202D01*
X46317Y207267D01*
X46252Y207366D01*
X46055Y207530D01*
X45891Y207661D01*
X45858Y207694D01*
X45825D01*
X44940Y208120D01*
X44743Y208186D01*
X44612Y208251D01*
X44513Y208317D01*
X44415Y208350D01*
X44349Y208382D01*
D02*
G37*
G36*
X43792Y206349D02*
X43759D01*
X43628D01*
X43496Y206316D01*
X43300Y206185D01*
X43136Y206021D01*
X43103Y205988D01*
Y205955D01*
X42676Y205266D01*
X44546Y204184D01*
X44677Y204086D01*
X44776Y204053D01*
X44808Y204020D01*
X44874Y204053D01*
X44907Y204118D01*
X44940Y204151D01*
Y204184D01*
X45071Y204348D01*
X44316Y204774D01*
X44284Y204840D01*
X44316Y204971D01*
X44382Y205070D01*
X44415Y205135D01*
X44480Y205299D01*
X44513Y205430D01*
X44546Y205627D01*
Y205758D01*
X44513Y205791D01*
X44415Y205955D01*
X44316Y206054D01*
X44218Y206119D01*
X44185Y206152D01*
X44021Y206250D01*
X43890Y206316D01*
X43792Y206349D01*
D02*
G37*
G36*
X42545Y204873D02*
X42480D01*
X42447D01*
X42217Y204610D01*
X42152Y204414D01*
X43201Y203167D01*
Y203134D01*
X43168D01*
X43136Y203167D01*
X43103D01*
X42250Y203528D01*
X42053Y203626D01*
X41922Y203692D01*
X41824Y203725D01*
X41758Y203758D01*
X41660D01*
X41627Y203725D01*
X41561Y203659D01*
X41496Y203594D01*
X41463Y203561D01*
X41299Y203397D01*
X41332Y203364D01*
X41397Y203298D01*
X41561Y203134D01*
X41758Y203003D01*
X41791Y202970D01*
X41824Y202938D01*
X42184Y202675D01*
X42512Y202413D01*
X42644Y202314D01*
X42742Y202216D01*
X42808Y202183D01*
X42840Y202150D01*
X43103Y201954D01*
X43201Y201888D01*
X43234Y201855D01*
X43267D01*
X43332Y201888D01*
X43365Y201921D01*
X43431Y201954D01*
Y201986D01*
X43529Y202150D01*
X42086Y203200D01*
X42020Y203266D01*
X43759Y202446D01*
X43824Y202544D01*
X43857Y202610D01*
X43923Y202708D01*
X43956Y202741D01*
Y202774D01*
X43693Y203167D01*
X43004Y203922D01*
X42742Y204217D01*
X44251Y203102D01*
X44448Y203430D01*
X42644Y204807D01*
X42545Y204873D01*
D02*
G37*
G36*
X41036Y203069D02*
X40840Y202839D01*
X40708Y202708D01*
X40643Y202642D01*
X40610Y202610D01*
X39987Y201921D01*
X41791Y200281D01*
X41856Y200314D01*
X41955Y200412D01*
X42086Y200543D01*
X42250Y200707D01*
X42381Y200838D01*
X42512Y200970D01*
X42611Y201068D01*
X42644Y201101D01*
X42873Y201330D01*
X42578Y201658D01*
X41791Y200838D01*
X41299Y201298D01*
X41627Y201658D01*
X41791Y201855D01*
X41889Y201954D01*
X41922Y202019D01*
Y202085D01*
X41889Y202118D01*
X41856Y202183D01*
X41824D01*
X41758Y202249D01*
X41725Y202314D01*
X41692D01*
X41332Y201954D01*
X41168Y201790D01*
X41036Y201691D01*
X40971Y201626D01*
X40905Y201658D01*
X40840Y201691D01*
X40807Y201724D01*
X40774Y201757D01*
X40577Y201954D01*
X41332Y202774D01*
X41036Y203069D01*
D02*
G37*
G36*
X39823Y201757D02*
X39692Y201658D01*
X39626Y201626D01*
X39593Y201560D01*
Y201527D01*
X38576Y200707D01*
X38839Y200379D01*
X39331Y200806D01*
X40676Y199198D01*
X40971Y199494D01*
X39659Y201035D01*
X39692Y201101D01*
X39757Y201166D01*
X39823Y201232D01*
X39856Y201265D01*
X40085Y201462D01*
X39823Y201757D01*
D02*
G37*
%LPD*%
G36*
X42808Y226488D02*
X42972Y226422D01*
X43103Y226291D01*
X43136Y226258D01*
Y226226D01*
X43267Y226094D01*
X43300Y225996D01*
X43332Y225963D01*
X43300Y225930D01*
X43234Y225865D01*
X43136Y225832D01*
X43103Y225799D01*
X42972Y225734D01*
X42906Y225668D01*
X42840Y225635D01*
X42808Y225668D01*
X42742Y225734D01*
X42676Y225832D01*
X42644Y225865D01*
X42545Y226029D01*
X42512Y226160D01*
Y226357D01*
X42611Y226455D01*
X42644Y226488D01*
X42742Y226521D01*
X42808Y226488D01*
D02*
G37*
G36*
X44907Y222880D02*
X44940D01*
X45005Y222814D01*
X45071Y222716D01*
X45136Y222618D01*
Y222585D01*
X45202Y222454D01*
X45235Y222355D01*
Y222290D01*
X45202Y222224D01*
X45136Y222191D01*
X45038Y222158D01*
X45005Y222126D01*
X44874Y222093D01*
X44776Y222060D01*
X44710D01*
X44677Y222126D01*
X44612Y222191D01*
X44579Y222290D01*
Y222322D01*
X44513Y222486D01*
X44480Y222618D01*
X44448Y222650D01*
Y222683D01*
X44480Y222782D01*
X44546Y222847D01*
X44612Y222880D01*
X44644D01*
X44776Y222913D01*
X44874D01*
X44907Y222880D01*
D02*
G37*
G36*
X46940Y217206D02*
X46973Y217140D01*
Y217009D01*
X47006Y216878D01*
Y216812D01*
X46973Y216779D01*
X46940D01*
X46875D01*
X46744D01*
X46580Y216812D01*
X46547D01*
X46514D01*
X46055Y216943D01*
X46481Y217140D01*
X46940Y217271D01*
Y217206D01*
D02*
G37*
G36*
X47104Y215270D02*
X47236Y215238D01*
X47268D01*
X47400Y215205D01*
X47498Y215139D01*
X47564Y215106D01*
Y215074D01*
X47596Y214975D01*
X47629Y214844D01*
Y214713D01*
X47695Y214418D01*
X47268D01*
X47137D01*
X47039D01*
X46908D01*
X46842D01*
X45989D01*
Y214680D01*
X46022Y214942D01*
X46088Y215106D01*
X46186Y215172D01*
X46219Y215205D01*
X46350Y215270D01*
X46514Y215303D01*
X46645D01*
X46711D01*
X46940D01*
X47104Y215270D01*
D02*
G37*
G36*
X43923Y205857D02*
X43988Y205824D01*
X44021Y205791D01*
X44087Y205726D01*
X44152Y205660D01*
Y205594D01*
X44120Y205496D01*
X44087Y205398D01*
X44021Y205299D01*
X43988Y205266D01*
X43890Y205037D01*
X43595Y205201D01*
X43431Y205266D01*
X43365Y205299D01*
X43300Y205332D01*
X43267D01*
Y205365D01*
X43300Y205463D01*
X43332Y205529D01*
Y205562D01*
X43431Y205693D01*
X43496Y205758D01*
X43628Y205857D01*
X43693Y205890D01*
X43726D01*
X43857D01*
X43923Y205857D01*
D02*
G37*
%LPC*%
G36*
X27490Y230522D02*
X27129D01*
X26834D01*
X26637D01*
X26604D01*
X26572D01*
X25948Y230490D01*
X25391Y230457D01*
X24833Y230391D01*
X24374Y230326D01*
X23980Y230260D01*
X23685Y230194D01*
X23488Y230162D01*
X23456Y230129D01*
X23423D01*
X22898Y229998D01*
X22373Y229834D01*
X21881Y229670D01*
X21422Y229506D01*
X21061Y229342D01*
X20766Y229210D01*
X20569Y229145D01*
X20536Y229112D01*
X20504D01*
X19979Y228850D01*
X19487Y228620D01*
X19290Y228489D01*
X19126Y228423D01*
X19028Y228358D01*
X18995Y228325D01*
X18437Y227964D01*
X18175Y227767D01*
X17945Y227603D01*
X17748Y227472D01*
X17584Y227374D01*
X17486Y227308D01*
X17453Y227275D01*
X17256Y227111D01*
X17060Y226914D01*
X16633Y226521D01*
X16436Y226324D01*
X16305Y226193D01*
X16207Y226094D01*
X16174Y226062D01*
X15912Y225799D01*
X15649Y225537D01*
X15452Y225340D01*
X15321Y225176D01*
X15190Y225012D01*
X15092Y224914D01*
X15059Y224881D01*
X15026Y224848D01*
X14731Y224454D01*
X14468Y224061D01*
X14239Y223700D01*
X14042Y223405D01*
X13878Y223175D01*
X13747Y222978D01*
X13681Y222847D01*
X13648Y222814D01*
X13288Y222126D01*
X13124Y221798D01*
X12992Y221502D01*
X12861Y221240D01*
X12763Y221043D01*
X12730Y220912D01*
X12697Y220879D01*
X12402Y219994D01*
X12140Y219141D01*
X11976Y218354D01*
X11844Y217665D01*
X11779Y217337D01*
X11746Y217074D01*
X11713Y216812D01*
X11680Y216615D01*
Y216451D01*
X11648Y216320D01*
Y216222D01*
X11615Y215664D01*
Y214188D01*
X11648Y213827D01*
Y213565D01*
X11680Y213401D01*
Y213335D01*
X11844Y212351D01*
X11943Y211892D01*
X12041Y211466D01*
X12140Y211105D01*
X12238Y210842D01*
X12271Y210646D01*
X12304Y210613D01*
Y210580D01*
X12664Y209596D01*
X13058Y208678D01*
X13517Y207825D01*
X13944Y207070D01*
X14173Y206742D01*
X14370Y206414D01*
X14534Y206152D01*
X14698Y205955D01*
X14829Y205758D01*
X14928Y205627D01*
X14960Y205562D01*
X14993Y205529D01*
X15485Y204971D01*
X15715Y204709D01*
X15944Y204479D01*
X16108Y204282D01*
X16272Y204118D01*
X16371Y204020D01*
X16404Y203987D01*
X16994Y203462D01*
X17256Y203233D01*
X17486Y203036D01*
X17683Y202872D01*
X17847Y202741D01*
X17945Y202675D01*
X17978Y202642D01*
X18536Y202282D01*
X19060Y201954D01*
X19585Y201691D01*
X20077Y201429D01*
X20471Y201232D01*
X20799Y201101D01*
X20897Y201035D01*
X20996Y201002D01*
X21028Y200970D01*
X21061D01*
X21684Y200740D01*
X22275Y200543D01*
X22832Y200379D01*
X23324Y200248D01*
X23751Y200150D01*
X24079Y200084D01*
X24210Y200051D01*
X24308Y200018D01*
X24341D01*
X24374D01*
X25489Y199887D01*
X26604Y199854D01*
X27654Y199887D01*
X28671Y199986D01*
X29622Y200117D01*
X30540Y200314D01*
X31393Y200543D01*
X32180Y200806D01*
X32902Y201068D01*
X33525Y201330D01*
X34083Y201593D01*
X34542Y201822D01*
X34936Y202019D01*
X35198Y202183D01*
X35362Y202282D01*
X35428Y202314D01*
X36182Y202806D01*
X36346Y202938D01*
X36477Y203036D01*
X36674Y203167D01*
X36740Y203233D01*
X36772Y203266D01*
X37264Y203725D01*
X37724Y204151D01*
X38150Y204610D01*
X38314Y204774D01*
X38445Y204938D01*
X38544Y205037D01*
X38576Y205070D01*
X39068Y205660D01*
X39298Y205922D01*
X39462Y206152D01*
X39626Y206349D01*
X39724Y206513D01*
X39790Y206611D01*
X39823Y206644D01*
X40249Y207300D01*
X40413Y207628D01*
X40577Y207923D01*
X40708Y208186D01*
X40807Y208382D01*
X40872Y208514D01*
X40905Y208546D01*
X41233Y209268D01*
X41364Y209629D01*
X41496Y209924D01*
X41561Y210154D01*
X41627Y210350D01*
X41692Y210482D01*
Y210514D01*
X41955Y211531D01*
X42152Y212515D01*
X42250Y213466D01*
X42316Y214319D01*
X42348Y214680D01*
Y216058D01*
X42283Y216746D01*
X42217Y217435D01*
X41922Y218714D01*
X41758Y219338D01*
X41594Y219928D01*
X41397Y220453D01*
X41200Y220945D01*
X41036Y221404D01*
X40840Y221830D01*
X40676Y222191D01*
X40512Y222486D01*
X40413Y222716D01*
X40315Y222913D01*
X40249Y223011D01*
X40216Y223044D01*
X39856Y223602D01*
X39495Y224126D01*
X39101Y224618D01*
X38740Y225078D01*
X38412Y225438D01*
X38150Y225734D01*
X37986Y225930D01*
X37953Y225996D01*
X37920D01*
X37396Y226488D01*
X36936Y226914D01*
X36707Y227078D01*
X36543Y227210D01*
X36444Y227275D01*
X36412Y227308D01*
X35756Y227800D01*
X35460Y227997D01*
X35198Y228161D01*
X34968Y228325D01*
X34772Y228423D01*
X34640Y228489D01*
X34608Y228522D01*
X34345Y228686D01*
X34050Y228817D01*
X33919Y228882D01*
X33820Y228948D01*
X33755Y228981D01*
X33722D01*
X33525Y229079D01*
X33394Y229145D01*
X33296Y229210D01*
X33197Y229243D01*
X33132Y229309D01*
X33099D01*
X32672Y229473D01*
X32180Y229670D01*
X31656Y229834D01*
X31164Y229965D01*
X30704Y230096D01*
X30278Y230162D01*
X29983Y230227D01*
X29852Y230260D01*
X29753Y230293D01*
X29720D01*
X29688D01*
X29064Y230391D01*
X28507Y230457D01*
X27982Y230490D01*
X27490Y230522D01*
D02*
G37*
%LPD*%
G36*
X28343Y229735D02*
X28736Y229670D01*
X29097Y229637D01*
X29360Y229604D01*
X29524Y229571D01*
X29589D01*
X29950Y229506D01*
X30344Y229407D01*
X30508Y229374D01*
X30639Y229342D01*
X30704Y229309D01*
X30737D01*
X31196Y229178D01*
X31557Y229079D01*
X31688Y229014D01*
X31820Y228981D01*
X31852Y228948D01*
X31885D01*
X32541Y228718D01*
X32836Y228587D01*
X33132Y228456D01*
X33328Y228358D01*
X33525Y228259D01*
X33624Y228226D01*
X33656Y228194D01*
X34280Y227866D01*
X34542Y227702D01*
X34804Y227538D01*
X35001Y227439D01*
X35132Y227341D01*
X35231Y227275D01*
X35264Y227242D01*
X35854Y226849D01*
X36116Y226652D01*
X36379Y226422D01*
X36871Y225963D01*
X37100Y225766D01*
X37264Y225602D01*
X37363Y225504D01*
X37396Y225471D01*
X37986Y224848D01*
X38216Y224553D01*
X38445Y224290D01*
X38609Y224094D01*
X38740Y223930D01*
X38806Y223798D01*
X38839Y223766D01*
X39232Y223175D01*
X39593Y222585D01*
X39921Y222027D01*
X40184Y221502D01*
X40380Y221076D01*
X40512Y220715D01*
X40577Y220584D01*
X40610Y220486D01*
X40643Y220453D01*
Y220420D01*
X41004Y219436D01*
X41233Y218485D01*
X41430Y217566D01*
X41561Y216746D01*
X41594Y216353D01*
X41627Y216025D01*
Y215730D01*
X41660Y215500D01*
Y215008D01*
X41594Y213991D01*
X41463Y213007D01*
X41299Y212089D01*
X41102Y211269D01*
X41004Y210875D01*
X40905Y210547D01*
X40807Y210285D01*
X40708Y210022D01*
X40643Y209826D01*
X40577Y209694D01*
X40544Y209596D01*
Y209563D01*
X40413Y209268D01*
X40282Y208973D01*
X40216Y208842D01*
X40184Y208710D01*
X40118Y208645D01*
Y208612D01*
X39921Y208218D01*
X39757Y207956D01*
X39659Y207792D01*
X39626Y207726D01*
X38839Y206578D01*
X38445Y206086D01*
X38019Y205594D01*
X37592Y205135D01*
X37166Y204709D01*
X36772Y204315D01*
X36379Y203987D01*
X36018Y203659D01*
X35657Y203397D01*
X35362Y203167D01*
X35100Y202970D01*
X34870Y202806D01*
X34706Y202708D01*
X34608Y202642D01*
X34575Y202610D01*
X33591Y202085D01*
X32574Y201626D01*
X31590Y201298D01*
X30704Y201035D01*
X30278Y200904D01*
X29917Y200838D01*
X29589Y200773D01*
X29294Y200707D01*
X29064Y200674D01*
X28868Y200642D01*
X28769Y200609D01*
X28736D01*
X28474Y200576D01*
X28179D01*
X27621Y200543D01*
X27392D01*
X27195D01*
X27031D01*
X26998D01*
X26604D01*
X26276D01*
X25981Y200576D01*
X25719D01*
X25522D01*
X25391Y200609D01*
X25292D01*
X25260D01*
X24407Y200740D01*
X23587Y200937D01*
X22832Y201134D01*
X22209Y201330D01*
X21652Y201527D01*
X21422Y201593D01*
X21258Y201691D01*
X21094Y201724D01*
X20996Y201790D01*
X20930Y201822D01*
X20897D01*
X20569Y201986D01*
X20274Y202118D01*
X20110Y202183D01*
X20077Y202216D01*
X20044D01*
X19782Y202380D01*
X19487Y202577D01*
X19356Y202675D01*
X19257Y202741D01*
X19192Y202806D01*
X19159D01*
X18470Y203266D01*
X17814Y203790D01*
X17224Y204282D01*
X16699Y204774D01*
X16272Y205168D01*
X15944Y205529D01*
X15846Y205660D01*
X15748Y205758D01*
X15715Y205791D01*
X15682Y205824D01*
X15518Y206021D01*
X15387Y206218D01*
X15190Y206447D01*
X15092Y206611D01*
X15059Y206644D01*
X14928Y206874D01*
X14764Y207136D01*
X14632Y207333D01*
X14567Y207366D01*
Y207398D01*
X14140Y208120D01*
X13812Y208842D01*
X13517Y209498D01*
X13288Y210088D01*
X13091Y210613D01*
X13025Y210810D01*
X12960Y211006D01*
X12927Y211138D01*
X12894Y211236D01*
X12861Y211302D01*
Y211334D01*
X12664Y212253D01*
X12566Y212679D01*
X12500Y213040D01*
X12468Y213368D01*
X12435Y213630D01*
X12402Y213794D01*
Y213860D01*
X12369Y214319D01*
X12336Y214778D01*
Y215631D01*
X12369Y215926D01*
Y216189D01*
X12402Y216418D01*
Y216582D01*
X12435Y216714D01*
Y216812D01*
X12500Y217337D01*
X12599Y217829D01*
X12697Y218255D01*
X12796Y218649D01*
X12861Y218944D01*
X12927Y219206D01*
X12992Y219338D01*
Y219403D01*
X13288Y220289D01*
X13452Y220715D01*
X13616Y221076D01*
X13747Y221371D01*
X13878Y221634D01*
X13944Y221765D01*
X13976Y221830D01*
X14304Y222421D01*
X14600Y222978D01*
X14928Y223438D01*
X15223Y223864D01*
X15485Y224192D01*
X15682Y224454D01*
X15813Y224586D01*
X15846Y224651D01*
X16141Y225012D01*
X16240Y225143D01*
X16404Y225274D01*
X16699Y225537D01*
X16830Y225668D01*
X16928Y225766D01*
X16994Y225832D01*
X17027Y225865D01*
X17453Y226258D01*
X17781Y226554D01*
X17880Y226652D01*
X17978Y226718D01*
X18011Y226783D01*
X18044D01*
X19093Y227505D01*
X20143Y228095D01*
X21160Y228554D01*
X22111Y228948D01*
X22537Y229079D01*
X22931Y229210D01*
X23259Y229309D01*
X23554Y229407D01*
X23784Y229473D01*
X23980Y229506D01*
X24079Y229538D01*
X24112D01*
X25063Y229670D01*
X25522Y229702D01*
X25916Y229735D01*
X26276Y229768D01*
X26572D01*
X26736D01*
X26801D01*
X27359D01*
X27851D01*
X28343Y229735D01*
D02*
G37*
%LPC*%
G36*
X29556Y228784D02*
X30409Y227898D01*
Y228489D01*
X30376Y228554D01*
Y228587D01*
X30344Y228620D01*
X30311D01*
X30278D01*
X30180D01*
X30016Y228653D01*
X29917Y228686D01*
X29852D01*
X29556Y228784D01*
D02*
G37*
G36*
X24112Y226160D02*
X23784D01*
X23652D01*
X23554D01*
X23488D01*
X23456D01*
X23160D01*
X22931D01*
X22800Y226127D01*
X22767D01*
X22603Y226094D01*
X22406Y226062D01*
X22308Y226029D01*
X22242Y225996D01*
X21619Y225799D01*
X21324Y225668D01*
X21094Y225570D01*
X20864Y225471D01*
X20700Y225406D01*
X20602Y225373D01*
X20569Y225340D01*
X20405Y225242D01*
X20307Y225176D01*
X20241Y225143D01*
Y225110D01*
X20274Y225078D01*
X20307D01*
X21717Y224848D01*
X22111Y225045D01*
X22373Y225176D01*
X22636Y225274D01*
X22865Y225340D01*
X22898Y225373D01*
X22931D01*
X23292Y225471D01*
X23587Y225537D01*
X23718Y225570D01*
X23816Y225602D01*
X23849D01*
X23882D01*
X24308Y225668D01*
X24702D01*
X24866D01*
X24997D01*
X25063D01*
X25096D01*
X25588Y225635D01*
X25948Y225602D01*
X26080Y225570D01*
X26178Y225537D01*
X26244Y225504D01*
X26276D01*
X26309D01*
X26211Y225570D01*
X26112Y225602D01*
X26080Y225635D01*
X26047D01*
X25784Y225766D01*
X25588Y225832D01*
X25456Y225898D01*
X25391Y225930D01*
X25030Y226029D01*
X24735Y226094D01*
X24604D01*
X24505Y226127D01*
X24472D01*
X24440D01*
X24112Y226160D01*
D02*
G37*
G36*
X23980Y227374D02*
X23652Y227341D01*
X23357Y227308D01*
X23160Y227275D01*
X23029Y227242D01*
X22964D01*
X22701Y227177D01*
X22472Y227078D01*
X22340Y227046D01*
X22275Y227013D01*
X22144Y226947D01*
X21980Y226882D01*
X21652Y226750D01*
X21488Y226652D01*
X21356Y226619D01*
X21291Y226554D01*
X21258D01*
X20668Y226226D01*
X20405Y226062D01*
X20176Y225930D01*
X19979Y225799D01*
X19848Y225734D01*
X19749Y225668D01*
X19716Y225635D01*
X19192Y225242D01*
X18700Y224881D01*
X18470Y224750D01*
X18306Y224618D01*
X18208Y224553D01*
X18175Y224520D01*
X17781Y224159D01*
X17388Y223766D01*
X17191Y223602D01*
X17060Y223470D01*
X16961Y223372D01*
X16928Y223339D01*
X16666Y223077D01*
X16436Y222847D01*
X16240Y222618D01*
X16076Y222454D01*
X15977Y222322D01*
X15879Y222224D01*
X15846Y222158D01*
X15813Y222126D01*
X15354Y221502D01*
X15124Y221207D01*
X14960Y220978D01*
X14796Y220748D01*
X14665Y220584D01*
X14600Y220486D01*
X14567Y220453D01*
X14370Y220158D01*
X14206Y219895D01*
X14075Y219698D01*
X13976Y219502D01*
X13878Y219370D01*
X13812Y219272D01*
X13780Y219206D01*
Y219174D01*
X13681Y218878D01*
X13616Y218583D01*
X13583Y218452D01*
X13550Y218354D01*
X13517Y218288D01*
Y218255D01*
X13419Y217829D01*
X13353Y217402D01*
X13320Y217206D01*
X13288Y217074D01*
X13255Y216976D01*
Y216943D01*
X13222Y216746D01*
Y216517D01*
X13189Y215992D01*
X13156Y215795D01*
Y214582D01*
X13189Y214418D01*
Y214122D01*
X13222Y214024D01*
Y214254D01*
X13255Y214385D01*
X13288Y214614D01*
X13353Y214844D01*
Y214942D01*
X13484Y215861D01*
X13714Y216779D01*
X14009Y217665D01*
X14304Y218452D01*
X14632Y219174D01*
X14764Y219469D01*
X14895Y219764D01*
X15026Y219994D01*
X15124Y220190D01*
X15223Y220354D01*
X15288Y220486D01*
X15354Y220551D01*
Y220584D01*
X15879Y221404D01*
X16469Y222126D01*
X17027Y222814D01*
X17552Y223405D01*
X18044Y223864D01*
X18240Y224061D01*
X18437Y224225D01*
X18568Y224356D01*
X18667Y224454D01*
X18732Y224487D01*
X18765Y224520D01*
X19224Y224848D01*
X19585Y225110D01*
X19749Y225209D01*
X19848Y225274D01*
X19913Y225340D01*
X19946D01*
X20405Y225602D01*
X20799Y225799D01*
X20963Y225865D01*
X21094Y225930D01*
X21192Y225963D01*
X21225D01*
X21717Y226127D01*
X22111Y226258D01*
X22275Y226291D01*
X22406D01*
X22472Y226324D01*
X22504D01*
X22964Y226390D01*
X23390Y226422D01*
X23554D01*
X23685D01*
X23751D01*
X23784D01*
X24210Y226390D01*
X24636Y226324D01*
X25424Y226127D01*
X26112Y225832D01*
X26703Y225537D01*
X27162Y225209D01*
X27359Y225078D01*
X27523Y224946D01*
X27654Y224848D01*
X27752Y224750D01*
X27785Y224717D01*
X27818Y224684D01*
X27982Y224520D01*
X28113Y224389D01*
X28179Y224290D01*
X28212Y224225D01*
X28244Y224159D01*
X28212D01*
X28113Y224192D01*
X27982Y224290D01*
X27884Y224389D01*
X27818Y224422D01*
X27392Y224717D01*
X26932Y224914D01*
X26506Y225078D01*
X26080Y225209D01*
X25719Y225274D01*
X25424Y225307D01*
X25227Y225340D01*
X25194D01*
X25161D01*
X24571D01*
X24013Y225274D01*
X23521Y225176D01*
X23062Y225045D01*
X22668Y224914D01*
X22373Y224815D01*
X22176Y224717D01*
X22144Y224684D01*
X22111D01*
X21881Y224586D01*
X21652Y224454D01*
X21520Y224356D01*
X21455Y224323D01*
X21225Y224159D01*
X21094Y224028D01*
X20996Y223930D01*
X20963Y223897D01*
X20733Y223634D01*
X20504Y223339D01*
X20077Y222782D01*
X19913Y222519D01*
X19782Y222322D01*
X19684Y222191D01*
X19651Y222126D01*
X19159Y221338D01*
X18962Y220978D01*
X18765Y220682D01*
X18634Y220420D01*
X18503Y220190D01*
X18437Y220059D01*
X18404Y220026D01*
X18076Y219338D01*
X17912Y218977D01*
X17748Y218649D01*
X17650Y218354D01*
X17552Y218124D01*
X17486Y217993D01*
X17453Y217927D01*
X17289Y217501D01*
X17158Y217074D01*
X17027Y216714D01*
X16928Y216386D01*
X16830Y216123D01*
X16797Y215926D01*
X16732Y215795D01*
Y215762D01*
X16535Y215074D01*
X16338Y214418D01*
X16207Y213762D01*
X16076Y213204D01*
X15977Y212712D01*
X15944Y212515D01*
X15912Y212318D01*
X15879Y212187D01*
X15846Y212089D01*
Y211990D01*
X15748Y211269D01*
X15682Y210580D01*
X15649Y209924D01*
X15616Y209334D01*
X15584Y208842D01*
Y208153D01*
X15551Y207366D01*
X16108Y206578D01*
Y208415D01*
X16141Y209137D01*
X16174Y209826D01*
X16240Y210482D01*
X16305Y211006D01*
X16338Y211236D01*
Y211433D01*
X16371Y211597D01*
X16404Y211695D01*
Y211794D01*
X16535Y212581D01*
X16699Y213368D01*
X16863Y214057D01*
X17027Y214680D01*
X17191Y215205D01*
X17256Y215402D01*
X17322Y215598D01*
X17355Y215730D01*
X17388Y215828D01*
X17420Y215894D01*
Y215926D01*
X17683Y216714D01*
X17978Y217435D01*
X18240Y218091D01*
X18503Y218682D01*
X18732Y219174D01*
X18831Y219370D01*
X18929Y219534D01*
X18995Y219666D01*
X19060Y219797D01*
X19093Y219830D01*
Y219862D01*
X19454Y220518D01*
X19848Y221142D01*
X20208Y221699D01*
X20536Y222158D01*
X20799Y222552D01*
X21028Y222847D01*
X21160Y223011D01*
X21225Y223077D01*
X21488Y223372D01*
X21717Y223634D01*
X21980Y223864D01*
X22209Y224061D01*
X22373Y224225D01*
X22537Y224323D01*
X22636Y224389D01*
X22668Y224422D01*
X22964Y224618D01*
X23259Y224750D01*
X23554Y224881D01*
X23784Y224979D01*
X24013Y225045D01*
X24177Y225078D01*
X24276Y225110D01*
X24308D01*
X24538Y225176D01*
X24768Y225209D01*
X24964D01*
X24997D01*
X25030D01*
X25358Y225176D01*
X25588Y225143D01*
X25719Y225110D01*
X25784Y225078D01*
X26080Y224979D01*
X26375Y224881D01*
X26572Y224750D01*
X26604Y224717D01*
X26637D01*
X26965Y224520D01*
X27228Y224356D01*
X27424Y224225D01*
X27457Y224159D01*
X27490D01*
X27687Y223995D01*
X27851Y223798D01*
X27982Y223634D01*
X28048Y223602D01*
Y223569D01*
X28277Y223274D01*
X28441Y223044D01*
X28572Y222880D01*
X28605Y222847D01*
Y222814D01*
X28835Y222388D01*
X29064Y221994D01*
X29130Y221830D01*
X29196Y221699D01*
X29261Y221601D01*
Y221568D01*
X29491Y221043D01*
X29589Y220814D01*
X29655Y220584D01*
X29720Y220420D01*
X29786Y220289D01*
X29819Y220190D01*
Y220158D01*
X29950Y219731D01*
X30016Y219338D01*
X30081Y219174D01*
Y219042D01*
X30114Y218944D01*
Y218911D01*
X30212Y218419D01*
X30245Y217993D01*
X30278Y217829D01*
Y217599D01*
X30311Y217402D01*
Y217009D01*
X30278Y214746D01*
X30114Y214778D01*
X30016Y214811D01*
X29917Y214877D01*
X29819Y214910D01*
X29786Y214942D01*
X29655Y215008D01*
X29556Y215106D01*
X29458Y215238D01*
X29392Y215336D01*
Y215369D01*
X29425Y215467D01*
X29491Y215533D01*
X29622Y215664D01*
X29786Y215730D01*
X29819Y215762D01*
X29852D01*
X29950Y215795D01*
X30016Y215828D01*
X30048Y215861D01*
X30081Y215894D01*
Y216222D01*
X29884Y216156D01*
X29655Y216123D01*
X29458Y216058D01*
X29327Y216025D01*
X29261Y215992D01*
X29032Y215894D01*
X28900Y215828D01*
X28802Y215762D01*
X28769Y215730D01*
X28605Y215566D01*
X28572Y215500D01*
X28540Y215467D01*
Y215270D01*
X28671Y215074D01*
X28868Y214910D01*
X29097Y214778D01*
X29327Y214647D01*
X29556Y214582D01*
X29688Y214549D01*
X29753Y214516D01*
X30081Y214450D01*
X30409Y214418D01*
X30573D01*
X30672D01*
X30737D01*
X30770D01*
X31164Y214450D01*
X31492Y214483D01*
X31623D01*
X31721Y214516D01*
X31754D01*
X31787D01*
X32115Y214614D01*
X32410Y214746D01*
X32607Y214877D01*
X32738Y214975D01*
X32836Y215074D01*
X32902Y215172D01*
X32935Y215205D01*
Y215369D01*
X32902Y215500D01*
X32869Y215566D01*
X32836Y215598D01*
X32738Y215730D01*
X32574Y215828D01*
X32476Y215894D01*
X32410Y215926D01*
X32279Y215992D01*
X32115Y216058D01*
X31984Y216090D01*
X31918D01*
X31656Y216156D01*
X31426Y216189D01*
X31262Y216222D01*
X31229D01*
X31196D01*
X31000Y216254D01*
Y215959D01*
X31032Y215894D01*
X31065Y215861D01*
X31098D01*
X31229D01*
X31360D01*
X31492Y215828D01*
X31524D01*
X31754Y215730D01*
X31918Y215631D01*
X32049Y215533D01*
X32082Y215402D01*
X32115Y215336D01*
Y215238D01*
X32082Y215205D01*
Y215172D01*
X31984Y215041D01*
X31820Y214942D01*
X31688Y214877D01*
X31656Y214844D01*
X31623D01*
X31393Y214778D01*
X31164Y214746D01*
X31032D01*
X30967D01*
X30770D01*
Y217009D01*
X30901Y216976D01*
X31229Y216910D01*
X31524Y216845D01*
X31754Y216779D01*
X31787Y216746D01*
X31820D01*
X32148Y216648D01*
X32377Y216550D01*
X32508Y216484D01*
X32541Y216451D01*
X32672Y216418D01*
X32705D01*
X32672Y216451D01*
X32574Y216582D01*
X32443Y216714D01*
X32312Y216812D01*
X32279Y216845D01*
X32082Y217042D01*
X31918Y217173D01*
X31787Y217238D01*
X31754Y217271D01*
X31492Y217435D01*
X31196Y217566D01*
X31000Y217665D01*
X30934Y217698D01*
X30901D01*
X30803Y217730D01*
X30737Y217763D01*
X30672Y217796D01*
Y217894D01*
X30639Y217993D01*
X30573Y218255D01*
X30540Y218485D01*
X30508Y218550D01*
Y218583D01*
X30344Y219338D01*
X30278Y219666D01*
X30180Y219994D01*
X30114Y220256D01*
X30081Y220453D01*
X30016Y220584D01*
Y220617D01*
X29917Y220978D01*
X29819Y221338D01*
X29720Y221634D01*
X29655Y221863D01*
X29589Y222060D01*
X29524Y222191D01*
X29491Y222290D01*
Y222322D01*
X29327Y222683D01*
X29196Y222978D01*
X29064Y223241D01*
X28966Y223470D01*
X28868Y223634D01*
X28802Y223766D01*
X28736Y223831D01*
Y223864D01*
X28474Y224323D01*
X28212Y224750D01*
X28113Y224946D01*
X28015Y225078D01*
X27949Y225176D01*
X27916Y225209D01*
X27720Y225438D01*
X27490Y225668D01*
X27293Y225865D01*
X27260Y225898D01*
X27228Y225930D01*
X26932Y226226D01*
X26703Y226422D01*
X26572Y226554D01*
X26506Y226586D01*
X26276Y226718D01*
X26047Y226849D01*
X25883Y226914D01*
X25850Y226947D01*
X25817D01*
X25555Y227078D01*
X25358Y227177D01*
X25227Y227210D01*
X25161Y227242D01*
X24735Y227308D01*
X24341Y227341D01*
X23980Y227374D01*
D02*
G37*
G36*
X25555Y224651D02*
X25522D01*
X25489D01*
X25227D01*
X24997D01*
X24833D01*
X24800D01*
X24768D01*
X24505D01*
X24276Y224618D01*
X24112Y224586D01*
X24079D01*
X24046D01*
X23882Y224520D01*
X23816Y224454D01*
X23784Y224422D01*
X23849D01*
X23948Y224389D01*
X24046Y224356D01*
X24112D01*
X24407Y224290D01*
X24735Y224192D01*
X25030Y224094D01*
X25358Y223995D01*
X25620Y223897D01*
X25850Y223831D01*
X25981Y223798D01*
X26047Y223766D01*
X26473Y223634D01*
X26801Y223536D01*
X27096Y223438D01*
X27326Y223339D01*
X27490Y223306D01*
X27588Y223241D01*
X27654Y223208D01*
X27687D01*
X27654Y223274D01*
X27621Y223306D01*
X27588Y223339D01*
X27457Y223470D01*
X27359Y223602D01*
X27228Y223700D01*
X27195Y223733D01*
X26900Y223962D01*
X26637Y224159D01*
X26440Y224290D01*
X26408Y224323D01*
X26375D01*
X26047Y224487D01*
X25752Y224586D01*
X25555Y224651D01*
D02*
G37*
G36*
X17519Y224815D02*
X17322D01*
X17191D01*
X17125Y224782D01*
X17092D01*
X16994Y224717D01*
X16863Y224586D01*
X16764Y224487D01*
X16732Y224422D01*
X16404Y224028D01*
X16108Y223667D01*
X15977Y223503D01*
X15879Y223372D01*
X15846Y223306D01*
X15813Y223274D01*
X15485Y222814D01*
X15223Y222454D01*
X15124Y222290D01*
X15059Y222191D01*
X15026Y222126D01*
X14993Y222093D01*
X14895Y221929D01*
X14862Y221830D01*
X14829Y221765D01*
X14796Y221699D01*
Y221666D01*
X14862Y221732D01*
X14928Y221798D01*
X15124Y222027D01*
X15321Y222257D01*
X15354Y222322D01*
X15387Y222355D01*
X15551Y222552D01*
X15748Y222782D01*
X15879Y222946D01*
X15944Y222978D01*
Y223011D01*
X17716Y224782D01*
X17519Y224815D01*
D02*
G37*
G36*
X26801Y229014D02*
X26211Y228948D01*
X25686Y228915D01*
X25161Y228850D01*
X24669Y228751D01*
X24243Y228686D01*
X23849Y228587D01*
X23587Y228522D01*
X23390Y228489D01*
X23357Y228456D01*
X23324D01*
X22800Y228292D01*
X22275Y228128D01*
X21816Y227931D01*
X21389Y227767D01*
X21028Y227603D01*
X20766Y227505D01*
X20602Y227406D01*
X20536Y227374D01*
X20110Y227144D01*
X19716Y226947D01*
X19585Y226849D01*
X19487Y226783D01*
X19421Y226750D01*
X19388Y226718D01*
X18995Y226455D01*
X18667Y226193D01*
X18503Y226094D01*
X18404Y225996D01*
X18339Y225963D01*
X18306Y225930D01*
X17912Y225570D01*
X17716Y225438D01*
X17781Y225373D01*
X17880Y225340D01*
X18011Y225307D01*
X18044D01*
X18240D01*
X18339Y225340D01*
X18404Y225373D01*
X18437D01*
X18568Y225438D01*
X18732Y225570D01*
X18864Y225668D01*
X18929Y225701D01*
X19487Y226062D01*
X20012Y226422D01*
X20241Y226554D01*
X20438Y226652D01*
X20569Y226718D01*
X20602Y226750D01*
X20963Y226947D01*
X21291Y227111D01*
X21553Y227242D01*
X21783Y227341D01*
X21947Y227406D01*
X22078Y227472D01*
X22144Y227505D01*
X22176D01*
X22570Y227636D01*
X22898Y227702D01*
X23095Y227767D01*
X23128D01*
X23160D01*
X23456Y227800D01*
X23751Y227833D01*
X23980D01*
X24013D01*
X24046D01*
X24308D01*
X24505D01*
X24604Y227800D01*
X24636D01*
X24800D01*
X24997Y227767D01*
X25128Y227734D01*
X25161D01*
X25653Y227603D01*
X26112Y227374D01*
X26506Y227144D01*
X26867Y226882D01*
X27162Y226652D01*
X27392Y226455D01*
X27556Y226324D01*
X27588Y226258D01*
X28146Y225635D01*
X28376Y225340D01*
X28572Y225078D01*
X28736Y224848D01*
X28868Y224651D01*
X28933Y224520D01*
X28966Y224487D01*
X29163Y224094D01*
X29392Y223700D01*
X29589Y223274D01*
X29753Y222880D01*
X29884Y222519D01*
X30016Y222224D01*
X30081Y222027D01*
X30114Y221994D01*
Y221962D01*
X30180Y221830D01*
X30245Y221765D01*
X30311Y221699D01*
X30409Y221634D01*
Y225570D01*
X30180Y225898D01*
X29852Y226291D01*
X29556Y226652D01*
X29425Y226783D01*
X29327Y226882D01*
X29261Y226947D01*
X29228Y226980D01*
X28868Y227374D01*
X28572Y227669D01*
X28441Y227767D01*
X28343Y227866D01*
X28310Y227898D01*
X28277Y227931D01*
X27949Y228226D01*
X27556Y228489D01*
X26801Y229014D01*
D02*
G37*
G36*
X19651Y224586D02*
X19520D01*
X19421Y224553D01*
X19356Y224520D01*
X19323D01*
X19192Y224422D01*
X18995Y224290D01*
X18798Y224159D01*
X18765Y224126D01*
X18732Y224094D01*
X18175Y223602D01*
X17912Y223372D01*
X17683Y223142D01*
X17519Y222946D01*
X17355Y222782D01*
X17256Y222683D01*
X17224Y222650D01*
X16732Y222060D01*
X16502Y221765D01*
X16305Y221502D01*
X16141Y221306D01*
X16010Y221109D01*
X15944Y221010D01*
X15912Y220978D01*
X15780Y220715D01*
X15813Y220650D01*
X15846D01*
X18273Y220551D01*
X18339Y220584D01*
X18404Y220682D01*
X18437Y220748D01*
X18470Y220781D01*
X18634Y221109D01*
X18831Y221437D01*
X18995Y221732D01*
X19192Y222027D01*
X19356Y222290D01*
X19487Y222486D01*
X19585Y222650D01*
X19618Y222683D01*
X19913Y223044D01*
X20143Y223372D01*
X20340Y223634D01*
X20536Y223831D01*
X20668Y223995D01*
X20766Y224094D01*
X20799Y224159D01*
X20832Y224192D01*
X20930Y224290D01*
X20963Y224323D01*
X20996Y224356D01*
Y224389D01*
X20963D01*
X20930D01*
X20897D01*
X19651Y224586D01*
D02*
G37*
G36*
X23128Y223962D02*
X22996D01*
X22964D01*
X22865Y223930D01*
X22734Y223864D01*
X22636Y223766D01*
X22603Y223733D01*
X22144Y223306D01*
X21717Y222880D01*
X21553Y222716D01*
X21422Y222552D01*
X21356Y222454D01*
X21324Y222421D01*
X20864Y221863D01*
X20668Y221601D01*
X20536Y221371D01*
X20405Y221174D01*
X20307Y221010D01*
X20241Y220912D01*
X20208Y220879D01*
X20077Y220584D01*
X20012Y220518D01*
Y220486D01*
X20044D01*
X22373Y220256D01*
X22996Y220190D01*
X23587Y220125D01*
X24144Y220026D01*
X24669Y219961D01*
X25096Y219862D01*
X25424Y219830D01*
X25555Y219797D01*
X25653Y219764D01*
X25686D01*
X25719D01*
X26342Y219666D01*
X26932Y219534D01*
X27424Y219436D01*
X27851Y219338D01*
X28212Y219272D01*
X28474Y219206D01*
X28638Y219141D01*
X28704D01*
X29556Y218944D01*
Y219010D01*
X29524Y219174D01*
X29491Y219305D01*
Y219370D01*
X29392Y219731D01*
X29294Y220026D01*
X29261Y220158D01*
X29228Y220256D01*
X29196Y220322D01*
Y220354D01*
X28966Y220978D01*
X28441Y222158D01*
X27982Y222388D01*
X27326Y222683D01*
X26998Y222814D01*
X26670Y222946D01*
X26408Y223044D01*
X26211Y223110D01*
X26080Y223175D01*
X26014D01*
X25161Y223438D01*
X24768Y223569D01*
X24407Y223667D01*
X24112Y223733D01*
X23882Y223798D01*
X23718Y223864D01*
X23652D01*
X23488Y223897D01*
X23324Y223930D01*
X23128Y223962D01*
D02*
G37*
G36*
X30737Y225012D02*
Y221371D01*
X31196Y220978D01*
X31557Y220617D01*
X31852Y220322D01*
X31951Y220190D01*
X32049Y220092D01*
X32082Y220026D01*
X32115Y219994D01*
X32410Y219600D01*
X32640Y219305D01*
X32738Y219174D01*
X32804Y219075D01*
X32869Y219010D01*
Y218977D01*
X32902Y218878D01*
X32935Y218846D01*
Y218977D01*
X32902Y219206D01*
X32869Y219436D01*
X32836Y219502D01*
Y219534D01*
X32738Y219961D01*
X32672Y220322D01*
X32640Y220453D01*
X32607Y220551D01*
X32574Y220584D01*
Y220617D01*
X32476Y221010D01*
X32377Y221338D01*
X32312Y221502D01*
X32279Y221601D01*
X32246Y221666D01*
Y221699D01*
X32115Y222093D01*
X32016Y222421D01*
X31951Y222552D01*
X31918Y222650D01*
X31885Y222683D01*
Y222716D01*
X31721Y223110D01*
X31524Y223503D01*
X31459Y223667D01*
X31393Y223798D01*
X31360Y223897D01*
X31328Y223930D01*
X31196Y224192D01*
X31098Y224389D01*
X31000Y224553D01*
X30934Y224684D01*
X30901Y224782D01*
X30868Y224848D01*
X30836Y224881D01*
X30737Y225012D01*
D02*
G37*
G36*
X20176Y219862D02*
X20012D01*
X19880D01*
X19815D01*
X19749D01*
X19716D01*
X19684D01*
X19651Y219830D01*
X19618Y219797D01*
X19585Y219764D01*
X19552Y219698D01*
X19520Y219633D01*
X19421Y219436D01*
X19323Y219239D01*
X19290Y219206D01*
Y219174D01*
X19192Y218944D01*
X19093Y218780D01*
X19060Y218682D01*
X19028Y218616D01*
X18995Y218518D01*
X19060D01*
X19159Y218550D01*
X19257Y218583D01*
X19290D01*
X19421Y218616D01*
X19552Y218649D01*
X19848Y218747D01*
X19979Y218780D01*
X20110D01*
X20176Y218813D01*
X20208D01*
X20700Y218911D01*
X21094Y218977D01*
X21258Y219010D01*
X21356Y219042D01*
X21422D01*
X21455D01*
X21947Y219108D01*
X22406Y219141D01*
X22570Y219174D01*
X22701D01*
X22800D01*
X22832D01*
X23390Y219206D01*
X23620Y219239D01*
X23849D01*
X24046D01*
X24177D01*
X24276D01*
X24308D01*
X24571D01*
X24735Y219272D01*
X24866D01*
X24964D01*
X24997D01*
X25030D01*
X24964Y219305D01*
X24833D01*
X24505Y219370D01*
X24308Y219403D01*
X24177D01*
X24079Y219436D01*
X24046D01*
X22570Y219633D01*
X20996Y219797D01*
X20668Y219830D01*
X20405D01*
X20176Y219862D01*
D02*
G37*
G36*
X30803Y220518D02*
X30737D01*
X30704D01*
Y220420D01*
X30737Y220289D01*
Y220059D01*
X30770Y219797D01*
X30803Y219633D01*
X30868Y219502D01*
Y219469D01*
X31098Y218288D01*
X31426Y218157D01*
X31688Y218058D01*
X31885Y217960D01*
X32049Y217894D01*
X32115Y217862D01*
X32377Y217730D01*
X32541Y217632D01*
X32607Y217599D01*
X32640Y217566D01*
X32738Y217534D01*
X32771Y217501D01*
X32804Y217534D01*
Y217566D01*
X32771Y217632D01*
X32738Y217796D01*
X32705Y217960D01*
X32672Y217993D01*
Y218026D01*
X32377Y218550D01*
X32246Y218780D01*
X32115Y219010D01*
X31984Y219174D01*
X31918Y219305D01*
X31852Y219403D01*
X31820Y219436D01*
X31656Y219633D01*
X31492Y219797D01*
X31360Y219928D01*
X31295Y219994D01*
X31098Y220223D01*
X30967Y220387D01*
X30901Y220453D01*
X30868Y220486D01*
X30803Y220518D01*
D02*
G37*
G36*
X25981Y218550D02*
X25489D01*
X25260D01*
X25063D01*
X24932D01*
X24899D01*
X24440D01*
X24013D01*
X23652D01*
X23390D01*
X23160Y218518D01*
X22996D01*
X22898D01*
X22865D01*
X22340Y218485D01*
X21848Y218419D01*
X21652Y218386D01*
X21488D01*
X21356Y218354D01*
X21324D01*
X20897Y218288D01*
X20504Y218222D01*
X20340Y218190D01*
X20208Y218157D01*
X20143Y218124D01*
X20110D01*
X19651Y218026D01*
X19290Y217927D01*
X19159Y217894D01*
X19060Y217862D01*
X18995Y217829D01*
X18962D01*
X18634Y217698D01*
X18339Y217107D01*
X18240Y216878D01*
X18175Y216681D01*
X18142Y216550D01*
X18109Y216484D01*
X17814Y215533D01*
X23062D01*
X23193Y215697D01*
X23292Y215828D01*
X23456Y215992D01*
X23751Y216222D01*
X23915Y216320D01*
X24013Y216386D01*
X24112Y216451D01*
X24144D01*
X24505Y216615D01*
X24866Y216714D01*
X25227Y216812D01*
X25588Y216910D01*
X25883Y216976D01*
X26112Y217009D01*
X26276Y217042D01*
X26342D01*
X27326Y217140D01*
X27785Y217173D01*
X28212D01*
X28572D01*
X28835D01*
X28999D01*
X29064D01*
X29819Y217140D01*
X29786Y217599D01*
X29753Y217829D01*
Y217960D01*
X29720Y218026D01*
X29655Y218058D01*
X29524Y218091D01*
X29196Y218157D01*
X29032Y218190D01*
X28900D01*
X28802Y218222D01*
X28769D01*
X28212Y218321D01*
X27982Y218386D01*
X27785Y218419D01*
X27588Y218452D01*
X27457D01*
X27392Y218485D01*
X27359D01*
X26998Y218518D01*
X26703D01*
X26572D01*
X26473D01*
X26440D01*
X26408D01*
X26211D01*
X25981Y218550D01*
D02*
G37*
G36*
X28244Y228948D02*
X28146D01*
X28080D01*
X27916D01*
X27818D01*
X27785Y228915D01*
X27818D01*
X27851D01*
X27884Y228882D01*
X27916D01*
X28113Y228718D01*
X28343Y228522D01*
X28540Y228358D01*
X28572Y228325D01*
X28605Y228292D01*
X28933Y227997D01*
X29196Y227767D01*
X29360Y227603D01*
X29425Y227570D01*
Y227538D01*
X29917Y226980D01*
X30147Y226718D01*
X30344Y226455D01*
X30540Y226258D01*
X30672Y226094D01*
X30737Y225963D01*
X30770Y225930D01*
X31164Y225307D01*
X31524Y224651D01*
X31852Y223995D01*
X32115Y223405D01*
X32344Y222847D01*
X32443Y222650D01*
X32508Y222454D01*
X32574Y222290D01*
X32607Y222158D01*
X32640Y222093D01*
Y222060D01*
X32902Y221207D01*
X33132Y220387D01*
X33296Y219600D01*
X33427Y218911D01*
X33492Y218583D01*
X33525Y218288D01*
X33558Y218058D01*
X33591Y217829D01*
Y217665D01*
X33624Y217534D01*
Y217435D01*
X33689Y216812D01*
X33886Y216517D01*
X34017Y216353D01*
X34083Y216287D01*
X34116Y216254D01*
X33984Y218026D01*
X33853Y218780D01*
X33788Y219108D01*
X33755Y219436D01*
X33689Y219731D01*
X33624Y219928D01*
X33591Y220092D01*
Y220125D01*
X33492Y220551D01*
X33394Y220912D01*
X33328Y221273D01*
X33230Y221568D01*
X33164Y221830D01*
X33099Y222027D01*
X33033Y222158D01*
Y222191D01*
X32738Y222946D01*
X32443Y223667D01*
X32148Y224290D01*
X31885Y224848D01*
X31623Y225307D01*
X31426Y225635D01*
X31360Y225766D01*
X31295Y225865D01*
X31262Y225898D01*
Y225930D01*
X30868Y226521D01*
X30475Y227046D01*
X30081Y227505D01*
X29720Y227866D01*
X29425Y228194D01*
X29163Y228390D01*
X29032Y228554D01*
X28966Y228587D01*
X28769Y228718D01*
X28638Y228817D01*
X28540Y228882D01*
X28507D01*
X28376Y228915D01*
X28244Y228948D01*
D02*
G37*
G36*
Y216878D02*
X27818D01*
X27523D01*
X27326Y216845D01*
X27293D01*
X27260D01*
X26998Y216812D01*
X26736Y216779D01*
X26572Y216746D01*
X26539D01*
X26506D01*
X26178Y216681D01*
X25850Y216615D01*
X25555Y216550D01*
X25325Y216484D01*
X25128Y216418D01*
X24964Y216353D01*
X24866Y216320D01*
X24833D01*
X24604Y216222D01*
X24407Y216123D01*
X24243Y216025D01*
X24112Y215926D01*
X23948Y215762D01*
X23882Y215730D01*
Y215697D01*
X23751Y215566D01*
X23784D01*
X23882D01*
X24079D01*
X24308D01*
X24374D01*
X24407D01*
X28244Y215533D01*
X28310Y215631D01*
X28408Y215730D01*
X28507Y215828D01*
X28605Y215861D01*
X28638Y215894D01*
X28802Y215992D01*
X28966Y216090D01*
X29064Y216123D01*
X29097Y216156D01*
X29294Y216222D01*
X29524Y216287D01*
X29655Y216320D01*
X29720D01*
X30048Y216386D01*
X30081Y216779D01*
X29720Y216812D01*
X28244Y216878D01*
D02*
G37*
G36*
X16699Y216714D02*
X16600Y216681D01*
X16469Y216582D01*
X16371Y216451D01*
X16338Y216418D01*
X16174Y216222D01*
X16043Y216058D01*
X15977Y215959D01*
X15944Y215926D01*
X15879Y215762D01*
X15846Y215664D01*
Y215598D01*
X15912Y215566D01*
X15977Y215533D01*
X16043D01*
X16076D01*
X16338D01*
X16502Y216123D01*
X16568Y216320D01*
X16633Y216451D01*
X16666Y216550D01*
Y216615D01*
X16699Y216714D01*
D02*
G37*
G36*
X15420Y220092D02*
X15354Y220026D01*
X15256Y219895D01*
X15157Y219731D01*
X15092Y219600D01*
X15059Y219567D01*
Y219534D01*
X14698Y218747D01*
X14534Y218386D01*
X14403Y218026D01*
X14370Y217894D01*
X14304Y217763D01*
X14272Y217698D01*
Y217665D01*
X14140Y217206D01*
X14009Y216845D01*
X13976Y216681D01*
X13944Y216582D01*
X13911Y216517D01*
Y216484D01*
X13747Y215533D01*
X15124Y215566D01*
X15157Y215795D01*
X15288Y216123D01*
X15518Y216451D01*
X15813Y216779D01*
X16141Y217042D01*
X16436Y217271D01*
X16699Y217468D01*
X16863Y217599D01*
X16928Y217632D01*
X17060Y217730D01*
X17125Y217829D01*
X17158Y217927D01*
Y217960D01*
X17617Y219042D01*
X17748Y219338D01*
X17847Y219567D01*
X17912Y219764D01*
X17945Y219862D01*
Y219994D01*
X17880Y220026D01*
X17748D01*
X17650D01*
X17617D01*
X15420Y220092D01*
D02*
G37*
G36*
X30016Y215664D02*
X29983D01*
X29917Y215631D01*
X29884Y215598D01*
X29852D01*
X29688Y215500D01*
X29655Y215467D01*
X29622D01*
X29589Y215369D01*
X29556Y215303D01*
X29589Y215270D01*
Y215238D01*
X29720Y215106D01*
X29753Y215074D01*
X29786Y215041D01*
X29884Y214975D01*
X29950Y214942D01*
X30016D01*
X30048Y214975D01*
Y215008D01*
X30081Y215139D01*
Y215500D01*
X30048Y215631D01*
X30016Y215664D01*
D02*
G37*
G36*
X31000Y215828D02*
Y214877D01*
X31196D01*
X31328Y214910D01*
X31459Y214942D01*
X31557Y215008D01*
X31590D01*
X31721Y215074D01*
X31820Y215139D01*
X31885Y215172D01*
X31951Y215303D01*
X31918Y215434D01*
X31885Y215500D01*
X31852Y215533D01*
X31787Y215598D01*
X31688Y215631D01*
X31590Y215664D01*
X31557D01*
X31393Y215730D01*
X31262Y215762D01*
X31164Y215795D01*
X31131D01*
X31000Y215828D01*
D02*
G37*
G36*
X28212Y215106D02*
X27096D01*
X26768D01*
X26506D01*
X26342D01*
X26178D01*
X26080D01*
X26014D01*
X25981D01*
X24407D01*
X24210D01*
X24046D01*
X23915Y215074D01*
X23849D01*
X23751Y215041D01*
X23784Y215008D01*
X23849Y214942D01*
X23882Y214910D01*
X23915Y214877D01*
X24046Y214746D01*
X24210Y214647D01*
X24571Y214450D01*
X24735Y214352D01*
X24866Y214319D01*
X24964Y214254D01*
X24997D01*
X25620Y214090D01*
X25916Y214024D01*
X26211Y213958D01*
X26473Y213926D01*
X26670Y213893D01*
X26801Y213860D01*
X26834D01*
X27392Y213827D01*
X27916Y213794D01*
X28146D01*
X28343D01*
X28474D01*
X28507D01*
X28868D01*
X29196Y213827D01*
X29458D01*
X29720Y213860D01*
X29917D01*
X30048Y213893D01*
X30147D01*
X30180D01*
X30278D01*
X30311Y213926D01*
X30344D01*
X30409Y214024D01*
Y214221D01*
X30114Y214254D01*
X29917Y214286D01*
X29688Y214319D01*
X29524Y214385D01*
X29491D01*
X29458D01*
X29228Y214450D01*
X29032Y214516D01*
X28900Y214582D01*
X28868D01*
X28704Y214680D01*
X28572Y214778D01*
X28474Y214877D01*
X28441Y214910D01*
X28212Y215106D01*
D02*
G37*
G36*
X32968Y214385D02*
X32869Y214352D01*
X32771Y214319D01*
X32738Y214286D01*
X32508Y214188D01*
X32279Y214090D01*
X31787Y213926D01*
X31557Y213860D01*
X31393Y213794D01*
X31262Y213762D01*
X31229D01*
X30737Y213630D01*
Y213106D01*
X30770Y212974D01*
Y212942D01*
X30868Y212974D01*
X31000Y213007D01*
X31295Y213138D01*
X31426Y213204D01*
X31557Y213237D01*
X31623Y213302D01*
X31656D01*
X31885Y213434D01*
X32115Y213532D01*
X32279Y213598D01*
X32410Y213696D01*
X32607Y213794D01*
X32672Y213827D01*
X32836Y214024D01*
X32869Y214090D01*
X32902Y214122D01*
X32968Y214254D01*
X33000Y214319D01*
Y214352D01*
X32968Y214385D01*
D02*
G37*
G36*
X23062Y215106D02*
X17650D01*
X17584Y214746D01*
X17519Y214582D01*
X17453Y214450D01*
X17420Y214319D01*
Y214286D01*
X17256Y213598D01*
X17289Y213532D01*
X17355Y213466D01*
X17584Y213368D01*
X17781Y213237D01*
X17847Y213204D01*
X17880D01*
X18372Y213040D01*
X18798Y212876D01*
X18995Y212843D01*
X19126Y212778D01*
X19224Y212745D01*
X19257D01*
X20241Y212515D01*
X20700Y212417D01*
X21127Y212318D01*
X21488Y212286D01*
X21783Y212220D01*
X21947Y212187D01*
X22012D01*
X23095Y212089D01*
X23620D01*
X24112Y212056D01*
X24538D01*
X24833D01*
X24964D01*
X25063D01*
X25096D01*
X25128D01*
X26473Y212089D01*
X26932Y212154D01*
X27457Y212220D01*
X27982Y212286D01*
X28179Y212318D01*
X28343D01*
X28474Y212351D01*
X28507D01*
X28835Y212417D01*
X29097Y212482D01*
X29360Y212515D01*
X29589Y212581D01*
X29753Y212614D01*
X29884Y212646D01*
X29950Y212679D01*
X29983D01*
X30409Y212778D01*
Y213598D01*
X30212Y213565D01*
X30048Y213532D01*
X29852Y213499D01*
X29458Y213466D01*
X29261D01*
X29130Y213434D01*
X29032D01*
X28999D01*
X28441D01*
X28212D01*
X28015Y213466D01*
X27818D01*
X27687D01*
X27621D01*
X27588D01*
X26998Y213499D01*
X26473Y213565D01*
X25981Y213663D01*
X25555Y213729D01*
X25227Y213794D01*
X24964Y213860D01*
X24833Y213926D01*
X24768D01*
X24374Y214090D01*
X24046Y214254D01*
X23751Y214418D01*
X23554Y214582D01*
X23390Y214713D01*
X23292Y214811D01*
X23259Y214877D01*
X23226Y214910D01*
X23062Y215106D01*
D02*
G37*
G36*
X17289Y212810D02*
X17158D01*
X17125D01*
X17092D01*
Y212778D01*
X17060Y212712D01*
X17027Y212482D01*
X16994Y212286D01*
X16961Y212220D01*
Y212187D01*
X16896Y211761D01*
X16863Y211400D01*
X16830Y211236D01*
Y211138D01*
X16797Y211072D01*
Y211039D01*
X16732Y210383D01*
X16764Y210350D01*
X16863D01*
X16928Y210383D01*
X16961D01*
X19060Y210449D01*
X22242Y210711D01*
X24210Y210941D01*
X24866Y211039D01*
X25194Y211105D01*
X25489Y211138D01*
X25752Y211170D01*
X25948Y211203D01*
X26112Y211236D01*
X26145D01*
X26506Y211302D01*
X26801Y211367D01*
X27031Y211433D01*
X27162Y211466D01*
X27260Y211498D01*
X27326D01*
X27359Y211531D01*
X27326D01*
X27260D01*
X27195D01*
X27162D01*
X26768Y211466D01*
X26375Y211433D01*
X26211D01*
X26080Y211400D01*
X25981D01*
X25948D01*
X25391D01*
X25096D01*
X24833D01*
X24604D01*
X24407D01*
X24276D01*
X24243D01*
X22832Y211433D01*
X22406Y211498D01*
X22275D01*
X22144Y211531D01*
X21816Y211564D01*
X21684Y211597D01*
X21553Y211630D01*
X21488D01*
X21455D01*
X21028Y211695D01*
X20668Y211761D01*
X20536D01*
X20471Y211794D01*
X20405D01*
X20372D01*
X19782Y211925D01*
X19257Y212089D01*
X18765Y212253D01*
X18339Y212384D01*
X17978Y212515D01*
X17716Y212614D01*
X17552Y212679D01*
X17486Y212712D01*
X17289Y212810D01*
D02*
G37*
G36*
X15124Y215106D02*
X13648D01*
X13616Y214910D01*
X13583Y214778D01*
Y214483D01*
X13550Y214254D01*
Y213794D01*
X13517Y213598D01*
Y212220D01*
X13550Y212089D01*
Y212023D01*
X13583Y211892D01*
Y211761D01*
X13616Y211630D01*
Y211597D01*
X14009Y210318D01*
X15354Y210285D01*
X15452Y211138D01*
X15485Y211498D01*
X15551Y211859D01*
X15616Y212253D01*
X15682Y212581D01*
X15715Y212876D01*
X15780Y213138D01*
X15813Y213270D01*
Y213335D01*
X15879Y213762D01*
X15715Y213958D01*
X15551Y214155D01*
X15420Y214319D01*
X15256Y214614D01*
X15190Y214811D01*
X15157Y214844D01*
Y214877D01*
X15124Y215106D01*
D02*
G37*
G36*
X32836Y213106D02*
X32771Y213073D01*
X32672Y213007D01*
X32640Y212974D01*
X32443Y212810D01*
X32213Y212679D01*
X31754Y212417D01*
X31524Y212318D01*
X31393Y212220D01*
X31262Y212187D01*
X31229Y212154D01*
X30737Y211859D01*
Y210055D01*
X30901Y210186D01*
X31229Y210514D01*
X31557Y210842D01*
X31820Y211170D01*
X32016Y211466D01*
X32213Y211728D01*
X32344Y211925D01*
X32410Y212056D01*
X32443Y212089D01*
X32541Y212318D01*
X32640Y212515D01*
X32672Y212646D01*
X32705Y212712D01*
X32804Y212909D01*
X32836Y213007D01*
X32869Y213073D01*
X32836Y213106D01*
D02*
G37*
G36*
X15321Y209727D02*
X15059D01*
X14928D01*
X14829D01*
X14796D01*
X14632D01*
X14534D01*
X14370D01*
X14304Y209694D01*
X14337Y209596D01*
X14370Y209465D01*
X14501Y209170D01*
X14567Y209038D01*
X14632Y208907D01*
X14698Y208842D01*
Y208809D01*
X14829Y208579D01*
X14928Y208382D01*
X15026Y208218D01*
X15092Y208120D01*
X15190Y207956D01*
X15223Y207923D01*
X15256Y207956D01*
Y208251D01*
X15321Y209727D01*
D02*
G37*
G36*
X30409Y211761D02*
X30376D01*
X30081Y211630D01*
X29753Y211531D01*
X29622Y211498D01*
X29491Y211466D01*
X29425Y211433D01*
X29392D01*
X28966Y211302D01*
X28572Y211203D01*
X28441Y211170D01*
X28343Y211138D01*
X28277Y211105D01*
X28244D01*
X27031Y210842D01*
X26440Y210711D01*
X25916Y210646D01*
X25456Y210547D01*
X25128Y210482D01*
X24997D01*
X24899Y210449D01*
X24833D01*
X24800D01*
X24079Y210350D01*
X23324Y210252D01*
X22603Y210186D01*
X21914Y210121D01*
X21324Y210055D01*
X21061Y210022D01*
X20832Y209990D01*
X20668D01*
X20504Y209957D01*
X20438D01*
X20405D01*
X19060Y209858D01*
X17060Y209760D01*
X16928D01*
X16830D01*
X16699D01*
X16633Y209727D01*
Y209629D01*
X16600Y209465D01*
Y206808D01*
X16699Y206316D01*
X18700Y206382D01*
X19716Y206447D01*
X20963Y206611D01*
X22144Y206775D01*
X23226Y207005D01*
X24243Y207234D01*
X25161Y207464D01*
X26014Y207726D01*
X26768Y207989D01*
X27457Y208251D01*
X28080Y208514D01*
X28605Y208776D01*
X29064Y208973D01*
X29425Y209170D01*
X29720Y209334D01*
X29917Y209465D01*
X30048Y209530D01*
X30081Y209563D01*
X30409Y209760D01*
Y211761D01*
D02*
G37*
G36*
X32935D02*
X32902Y211728D01*
X32640Y211302D01*
X32377Y210941D01*
X32279Y210777D01*
X32180Y210678D01*
X32148Y210613D01*
X32115Y210580D01*
X31754Y210219D01*
X31459Y209924D01*
X31328Y209793D01*
X31229Y209694D01*
X31164Y209662D01*
X31131Y209629D01*
X30737Y209301D01*
X30770Y205299D01*
X30803Y205365D01*
X30868Y205430D01*
X30901Y205496D01*
X30934Y205529D01*
X31196Y206086D01*
X31360Y206414D01*
X31524Y206775D01*
X31688Y207103D01*
X31820Y207431D01*
X31918Y207726D01*
X32016Y207989D01*
X32049Y208120D01*
X32082Y208186D01*
X32377Y209137D01*
X32476Y209563D01*
X32574Y209957D01*
X32640Y210285D01*
X32705Y210514D01*
X32738Y210678D01*
Y210744D01*
X32935Y211662D01*
Y211761D01*
D02*
G37*
G36*
X30737Y228456D02*
Y227472D01*
X30967Y227177D01*
X31164Y226914D01*
X31360Y226685D01*
X31492Y226488D01*
X31524Y226422D01*
Y226390D01*
X31754Y226062D01*
X31951Y225734D01*
X32016Y225635D01*
X32082Y225537D01*
X32115Y225471D01*
Y225438D01*
X32476Y224782D01*
X32640Y224454D01*
X32771Y224159D01*
X32869Y223897D01*
X32968Y223700D01*
X33000Y223569D01*
X33033Y223536D01*
X33328Y222782D01*
X33460Y222421D01*
X33558Y222093D01*
X33656Y221798D01*
X33722Y221568D01*
X33788Y221437D01*
Y221371D01*
X34050Y220289D01*
X34247Y219206D01*
X34411Y218190D01*
X34444Y217730D01*
X34476Y217271D01*
X34509Y216845D01*
X34542Y216484D01*
X34575Y216123D01*
Y214516D01*
X34509Y213762D01*
X34476Y213073D01*
X34411Y212450D01*
X34345Y211925D01*
X34312Y211695D01*
X34280Y211531D01*
X34247Y211367D01*
Y211269D01*
X34214Y211203D01*
Y211170D01*
X34083Y210416D01*
X33919Y209694D01*
X33755Y209006D01*
X33558Y208382D01*
X33427Y207825D01*
X33328Y207628D01*
X33296Y207431D01*
X33230Y207267D01*
X33197Y207169D01*
X33164Y207103D01*
Y207070D01*
X33000Y206677D01*
X32804Y206283D01*
X32738Y206119D01*
X32672Y205988D01*
X32640Y205890D01*
X32607Y205857D01*
X32377Y205365D01*
X32279Y205168D01*
X32180Y205004D01*
X32115Y204873D01*
X32049Y204774D01*
X32016Y204742D01*
Y204709D01*
X31820Y204446D01*
X31688Y204217D01*
X31557Y204086D01*
X31524Y204020D01*
X31360Y203823D01*
X31229Y203626D01*
X31098Y203495D01*
X31065Y203430D01*
X30737Y203069D01*
Y201986D01*
X30770Y201921D01*
X30803Y201888D01*
X30836D01*
X30868D01*
X30934Y201921D01*
X31098Y201986D01*
X31262Y202019D01*
X31295Y202052D01*
X31328D01*
X32180Y202347D01*
X32836Y202610D01*
X33132Y202774D01*
X33394Y202905D01*
X33624Y203036D01*
X33820Y203134D01*
X33952Y203200D01*
X33984Y203233D01*
X34640Y203659D01*
X34936Y203856D01*
X35198Y204020D01*
X35395Y204184D01*
X35559Y204315D01*
X35657Y204381D01*
X35690Y204414D01*
X36182Y204873D01*
X36805Y205463D01*
X37330Y205988D01*
X37789Y206513D01*
X38183Y207038D01*
X38544Y207530D01*
X38806Y207923D01*
X39003Y208251D01*
X39068Y208382D01*
X39134Y208481D01*
X39167Y208514D01*
Y208546D01*
X39495Y209202D01*
X39790Y209858D01*
X40020Y210482D01*
X40216Y211072D01*
X40348Y211564D01*
X40413Y211761D01*
X40479Y211958D01*
X40512Y212089D01*
Y212187D01*
X40544Y212253D01*
Y212286D01*
X40610Y212778D01*
X40676Y213204D01*
Y213368D01*
X40708Y213499D01*
Y213630D01*
X40774Y214155D01*
X40807Y214647D01*
Y215533D01*
X40774Y215926D01*
Y216254D01*
X40741Y216550D01*
X40708Y216812D01*
Y216976D01*
X40676Y217107D01*
Y217140D01*
X40544Y217829D01*
X40479Y218157D01*
X40446Y218452D01*
X40380Y218682D01*
X40315Y218878D01*
X40282Y219010D01*
Y219042D01*
X40085Y219698D01*
X39823Y220289D01*
X39265Y221437D01*
X38970Y221962D01*
X38675Y222486D01*
X38380Y222913D01*
X38084Y223339D01*
X37789Y223733D01*
X37527Y224061D01*
X37297Y224356D01*
X37100Y224586D01*
X36904Y224782D01*
X36772Y224946D01*
X36707Y225012D01*
X36674Y225045D01*
X36084Y225602D01*
X35788Y225832D01*
X35559Y226029D01*
X35329Y226193D01*
X35165Y226324D01*
X35067Y226390D01*
X35034Y226422D01*
X34411Y226849D01*
X34083Y227013D01*
X33820Y227177D01*
X33558Y227308D01*
X33361Y227406D01*
X33197Y227472D01*
X33164Y227505D01*
X32738Y227702D01*
X32344Y227898D01*
X32180Y227964D01*
X32049Y228030D01*
X31951Y228062D01*
X31918D01*
X31459Y228259D01*
X31131Y228358D01*
X31032Y228390D01*
X30934Y228423D01*
X30901D01*
X30868D01*
X30737Y228456D01*
D02*
G37*
G36*
X30376Y202675D02*
X30344D01*
X30212Y202544D01*
X30048Y202380D01*
X29884Y202249D01*
X29852Y202216D01*
X29819Y202183D01*
X29556Y201954D01*
X29360Y201822D01*
X29228Y201724D01*
X29196Y201691D01*
X29097Y201626D01*
X29032Y201560D01*
X28966Y201494D01*
Y201462D01*
X30409Y201757D01*
Y202610D01*
X30376Y202675D01*
D02*
G37*
G36*
X30409Y209104D02*
X30278Y208973D01*
X30048Y208842D01*
X29819Y208678D01*
X29294Y208382D01*
X29032Y208284D01*
X28835Y208186D01*
X28704Y208120D01*
X28671Y208087D01*
X27884Y207759D01*
X27523Y207595D01*
X27195Y207464D01*
X26900Y207366D01*
X26703Y207300D01*
X26572Y207267D01*
X26506Y207234D01*
X25948Y207038D01*
X25391Y206874D01*
X24833Y206710D01*
X24341Y206611D01*
X23882Y206480D01*
X23521Y206414D01*
X23390Y206382D01*
X23324D01*
X23259Y206349D01*
X23226D01*
X21848Y206119D01*
X21160Y206054D01*
X20569Y205955D01*
X20044Y205890D01*
X19848D01*
X19651Y205857D01*
X19487D01*
X19388Y205824D01*
X19323D01*
X19290D01*
X17945Y205758D01*
X17683D01*
X17486Y205726D01*
X17289D01*
X17158D01*
X17060D01*
X16994D01*
X16961D01*
X16896D01*
X16928Y205693D01*
X16994Y205627D01*
X17158Y205463D01*
X17322Y205299D01*
X17355Y205266D01*
X17388Y205234D01*
X18076Y204610D01*
X18503Y204250D01*
X18929Y203922D01*
X19356Y203626D01*
X19749Y203397D01*
X20077Y203200D01*
X20340Y203036D01*
X20504Y202938D01*
X20569Y202905D01*
X21094Y202642D01*
X21619Y202446D01*
X22078Y202249D01*
X22537Y202085D01*
X22898Y201986D01*
X23193Y201888D01*
X23390Y201855D01*
X23456Y201822D01*
X23849Y201724D01*
X24243Y201626D01*
X24374Y201593D01*
X24505Y201560D01*
X24571Y201527D01*
X24604D01*
X25063Y201462D01*
X25391Y201429D01*
X25522D01*
X25620Y201396D01*
X25653D01*
X25686D01*
X25817D01*
X25916D01*
X25981D01*
X26014D01*
X26145Y201429D01*
X26276Y201462D01*
X26375Y201527D01*
X26408D01*
X27195Y201921D01*
X27523Y202118D01*
X27818Y202282D01*
X28080Y202446D01*
X28277Y202577D01*
X28408Y202675D01*
X28441Y202708D01*
X28802Y203003D01*
X29097Y203298D01*
X29392Y203594D01*
X29622Y203856D01*
X29852Y204086D01*
X29983Y204250D01*
X30081Y204381D01*
X30114Y204414D01*
X30409Y204774D01*
Y209104D01*
D02*
G37*
G36*
X34116Y214352D02*
X34083D01*
X33952Y214188D01*
X33853Y214057D01*
X33820Y213991D01*
X33788Y213958D01*
X33722Y213860D01*
X33689Y213827D01*
Y213762D01*
X33624Y212942D01*
X33460Y211925D01*
X33394Y211433D01*
X33296Y211006D01*
X33230Y210613D01*
X33164Y210318D01*
X33132Y210121D01*
X33099Y210088D01*
Y210055D01*
X32968Y209498D01*
X32804Y208940D01*
X32672Y208448D01*
X32541Y208022D01*
X32410Y207661D01*
X32344Y207366D01*
X32279Y207202D01*
X32246Y207136D01*
X31984Y206546D01*
X31721Y206021D01*
X31459Y205529D01*
X31164Y205102D01*
X30934Y204742D01*
X30737Y204446D01*
X30606Y204282D01*
X30573Y204217D01*
X30180Y203725D01*
X29786Y203298D01*
X29392Y202905D01*
X29032Y202610D01*
X28704Y202347D01*
X28474Y202150D01*
X28310Y202019D01*
X28244Y201986D01*
X27162Y201330D01*
X27457D01*
X27621Y201363D01*
X27785Y201396D01*
X27916Y201429D01*
X27949Y201462D01*
X28179Y201593D01*
X28441Y201757D01*
X28638Y201855D01*
X28671Y201921D01*
X28704D01*
X29425Y202478D01*
X30048Y203069D01*
X30606Y203659D01*
X31065Y204250D01*
X31459Y204742D01*
X31590Y204971D01*
X31721Y205168D01*
X31820Y205299D01*
X31885Y205430D01*
X31951Y205496D01*
Y205529D01*
X32180Y206021D01*
X32377Y206447D01*
X32476Y206611D01*
X32508Y206742D01*
X32574Y206841D01*
Y206874D01*
X32771Y207431D01*
X32869Y207726D01*
X32968Y207989D01*
X33033Y208218D01*
X33099Y208382D01*
X33132Y208514D01*
Y208546D01*
X33230Y208874D01*
X33296Y209202D01*
X33361Y209465D01*
X33427Y209694D01*
X33460Y209858D01*
X33492Y210022D01*
X33525Y210088D01*
Y210121D01*
X33591Y210383D01*
X33656Y210646D01*
X33755Y211170D01*
X33788Y211400D01*
X33820Y211597D01*
X33853Y211728D01*
Y211761D01*
X33984Y212679D01*
X34116Y214221D01*
Y214352D01*
D02*
G37*
%LPD*%
G36*
X37691Y222716D02*
X36477D01*
Y221830D01*
X37691D01*
Y221371D01*
X37002D01*
X36805D01*
X36641D01*
X36510D01*
X36412D01*
X36346D01*
X36313D01*
X34936D01*
Y221830D01*
X36018D01*
Y222716D01*
X34936D01*
Y223175D01*
X37691D01*
Y222716D01*
D02*
G37*
G36*
X35428Y220387D02*
X37691D01*
Y219928D01*
X35428Y219895D01*
X35395Y219239D01*
X35264D01*
X35198D01*
X35165D01*
X34936D01*
Y221043D01*
X35428D01*
Y220387D01*
D02*
G37*
G36*
X35690Y218944D02*
X35723D01*
X35821Y218911D01*
X35920Y218846D01*
X35985Y218813D01*
X36018Y218780D01*
X36248Y218616D01*
X36510Y218485D01*
X36707Y218386D01*
X36740Y218354D01*
X36772D01*
X37100Y218190D01*
X37396Y218058D01*
X37592Y217993D01*
X37625Y217960D01*
X37658D01*
X38052Y217862D01*
X38445Y217796D01*
X38609Y217763D01*
X38740Y217730D01*
X38806Y217698D01*
X38839D01*
X39331Y217632D01*
X39692Y217599D01*
X39856Y217566D01*
X39954D01*
X40020D01*
X40052D01*
X40085Y217501D01*
Y216779D01*
X39593D01*
X39364Y216812D01*
X39167D01*
X39036Y216845D01*
X39003D01*
X38773Y216910D01*
X38544Y216976D01*
X38347Y217009D01*
X38281Y217042D01*
X38248D01*
X37920Y217140D01*
X37625Y217238D01*
X37494Y217271D01*
X37396Y217304D01*
X37330Y217337D01*
X37297D01*
X36969Y217501D01*
X36674Y217632D01*
X36510Y217698D01*
X36477Y217730D01*
X36444D01*
X36018Y217960D01*
X35952Y216222D01*
X35723D01*
X35624D01*
X35559D01*
X35493D01*
X35034D01*
Y218977D01*
X35395D01*
X35559D01*
X35657D01*
X35690Y218944D01*
D02*
G37*
G36*
X35723Y215664D02*
X35756D01*
X35821D01*
X35887Y215631D01*
X35952Y215598D01*
Y215566D01*
X36444Y215270D01*
X36936Y215041D01*
X37133Y214942D01*
X37297Y214877D01*
X37428Y214844D01*
X37461Y214811D01*
X38117Y214614D01*
X38412Y214516D01*
X38708Y214450D01*
X38904Y214418D01*
X39101Y214385D01*
X39200Y214352D01*
X39232D01*
X39495Y214319D01*
X40085D01*
Y213532D01*
X39954D01*
X39560Y213565D01*
X39134Y213630D01*
X38937D01*
X38806Y213663D01*
X38708Y213696D01*
X38675D01*
X38150Y213827D01*
X37920Y213893D01*
X37691Y213958D01*
X37527Y214024D01*
X37396Y214057D01*
X37330Y214090D01*
X37297D01*
X37035Y214221D01*
X36805Y214319D01*
X36608Y214418D01*
X36576Y214450D01*
X36543D01*
X36313Y214582D01*
X36182Y214647D01*
X36116Y214713D01*
X36084D01*
X36051Y214746D01*
X36018Y214713D01*
Y214647D01*
X35952Y212974D01*
X35723D01*
X35624D01*
X35559D01*
X35493D01*
X35034D01*
Y215697D01*
X35428D01*
X35592D01*
X35690D01*
X35723Y215664D01*
D02*
G37*
G36*
X40085Y210974D02*
X36444D01*
X36674Y210744D01*
X36871Y210482D01*
X36969Y210252D01*
X37035Y210121D01*
X37068Y210055D01*
X37100Y210022D01*
Y209990D01*
X37068Y209957D01*
X36969D01*
X36871D01*
X36740D01*
X36707D01*
X36248D01*
X36116Y210219D01*
X35821Y210580D01*
X35526Y210842D01*
X35329Y210974D01*
X35264Y211039D01*
X35231D01*
X34968Y211138D01*
Y211794D01*
X40085D01*
Y210974D01*
D02*
G37*
D11*
X53812Y18461D02*
X53156Y19117D01*
X51844D01*
X51188Y18461D01*
Y15837D01*
X51844Y15181D01*
X53156D01*
X53812Y15837D01*
Y17149D01*
X52500D01*
X55124Y17805D02*
Y15837D01*
X55780Y15181D01*
X57748D01*
Y17805D01*
X59060Y15181D02*
X61027D01*
X61683Y15837D01*
X61027Y16493D01*
X59716D01*
X59060Y17149D01*
X59716Y17805D01*
X61683D01*
X63651Y18461D02*
Y17805D01*
X62995D01*
X64307D01*
X63651D01*
Y15837D01*
X64307Y15181D01*
X66931Y17805D02*
X68243D01*
X68899Y17149D01*
Y15181D01*
X66931D01*
X66275Y15837D01*
X66931Y16493D01*
X68899D01*
X70211Y17805D02*
X71523Y15181D01*
X72835Y17805D01*
X78082Y15181D02*
Y19117D01*
X80050D01*
X80706Y18461D01*
Y17149D01*
X80050Y16493D01*
X78082D01*
X82674Y17805D02*
X83986D01*
X84642Y17149D01*
Y15181D01*
X82674D01*
X82018Y15837D01*
X82674Y16493D01*
X84642D01*
X85954Y15181D02*
X87266D01*
X86610D01*
Y19117D01*
X85954D01*
X89234Y15181D02*
Y17805D01*
X89890D01*
X90545Y17149D01*
Y15181D01*
Y17149D01*
X91202Y17805D01*
X91857Y17149D01*
Y15181D01*
X95793Y13869D02*
Y17805D01*
X93825D01*
X93169Y17149D01*
Y15837D01*
X93825Y15181D01*
X95793D01*
X97105Y17805D02*
X98417Y15181D01*
X99729Y17805D01*
X101041Y15181D02*
X102353D01*
X101697D01*
Y17805D01*
X101041D01*
X104321Y15181D02*
X106289D01*
X106944Y15837D01*
X106289Y16493D01*
X104977D01*
X104321Y17149D01*
X104977Y17805D01*
X106944D01*
X108912Y18461D02*
Y17805D01*
X108256D01*
X109568D01*
X108912D01*
Y15837D01*
X109568Y15181D01*
X53812Y10720D02*
Y6784D01*
X55780D01*
X56436Y7440D01*
Y10064D01*
X55780Y10720D01*
X53812D01*
X58404Y9408D02*
X59716D01*
X60372Y8752D01*
Y6784D01*
X58404D01*
X57748Y7440D01*
X58404Y8096D01*
X60372D01*
X61683Y9408D02*
X62995Y6784D01*
X64307Y9408D01*
X65619Y6784D02*
X66931D01*
X66275D01*
Y9408D01*
X65619D01*
X71523Y10720D02*
Y6784D01*
X69555D01*
X68899Y7440D01*
Y8752D01*
X69555Y9408D01*
X71523D01*
X79394Y10720D02*
X76770D01*
Y8752D01*
X78082D01*
X76770D01*
Y6784D01*
X80706Y9408D02*
Y6784D01*
Y8096D01*
X81362Y8752D01*
X82018Y9408D01*
X82674D01*
X84642D02*
Y7440D01*
X85298Y6784D01*
X87266D01*
Y6128D01*
X86610Y5472D01*
X85954D01*
X87266Y6784D02*
Y9408D01*
X88578Y6784D02*
Y10720D01*
Y8096D02*
X90545Y9408D01*
X88578Y8096D02*
X90545Y6784D01*
X92513D02*
X94481D01*
X95137Y7440D01*
X94481Y8096D01*
X93169D01*
X92513Y8752D01*
X93169Y9408D01*
X95137D01*
X96449Y6784D02*
Y10720D01*
Y8096D02*
X98417Y9408D01*
X96449Y8096D02*
X98417Y6784D01*
X101041D02*
X102353D01*
X103009Y7440D01*
Y8752D01*
X102353Y9408D01*
X101041D01*
X100385Y8752D01*
Y7440D01*
X101041Y6784D01*
X105632Y5472D02*
X106289D01*
X106944Y6128D01*
Y9408D01*
X104977D01*
X104321Y8752D01*
Y7440D01*
X104977Y6784D01*
X106944D01*
D53*
X56493Y135780D02*
D03*
Y146803D02*
D03*
X71261Y198425D02*
D03*
Y187402D02*
D03*
D54*
X11811Y236221D02*
D03*
X145669Y35433D02*
D03*
X11811D02*
D03*
D55*
X95095Y230118D02*
D03*
X62417Y225591D02*
D03*
Y260827D02*
D03*
X95095Y250000D02*
D03*
X62417Y235433D02*
D03*
X95095Y260827D02*
D03*
D56*
X87598Y191732D02*
D03*
Y198031D02*
D03*
X30512Y101378D02*
D03*
Y107677D02*
D03*
X55709Y101378D02*
D03*
Y107677D02*
D03*
D57*
X49567Y40059D02*
D03*
Y36319D02*
D03*
X27323Y37894D02*
D03*
Y41634D02*
D03*
X102724Y46949D02*
D03*
Y50689D02*
D03*
X124969Y48720D02*
D03*
Y44980D02*
D03*
X21850Y126279D02*
D03*
Y122539D02*
D03*
Y115059D02*
D03*
Y118799D02*
D03*
X137795Y110335D02*
D03*
Y114075D02*
D03*
X121063Y222342D02*
D03*
Y218602D02*
D03*
Y210531D02*
D03*
Y206791D02*
D03*
X121520Y192028D02*
D03*
Y188288D02*
D03*
X61024Y154035D02*
D03*
Y157776D02*
D03*
X50787Y201279D02*
D03*
Y205020D02*
D03*
X113779Y260788D02*
D03*
Y257048D02*
D03*
X101969Y260728D02*
D03*
Y264469D02*
D03*
D58*
X41662Y50000D02*
D03*
X45662D02*
D03*
X110630Y37008D02*
D03*
X106630D02*
D03*
D59*
X41103Y46181D02*
D03*
X43662D02*
D03*
X46221D02*
D03*
X41103Y53819D02*
D03*
X43662D02*
D03*
X46221D02*
D03*
X111189Y40827D02*
D03*
X108630D02*
D03*
X106071D02*
D03*
X111189Y33189D02*
D03*
X108630D02*
D03*
X106071D02*
D03*
D60*
X30276Y46654D02*
D03*
X35394D02*
D03*
X32835Y53347D02*
D03*
X122016Y40354D02*
D03*
X116898D02*
D03*
X119457Y33661D02*
D03*
X44736Y88121D02*
D03*
X42177Y94814D02*
D03*
X47295D02*
D03*
D61*
X44252Y38189D02*
D03*
X33229D02*
D03*
X119063Y48819D02*
D03*
X108039D02*
D03*
D62*
X59449Y26772D02*
D03*
X98032D02*
D03*
D63*
X60433Y124606D02*
D03*
X54134D02*
D03*
X56102Y115945D02*
D03*
X49803D02*
D03*
X101969Y179134D02*
D03*
X108268D02*
D03*
D64*
X62008Y118071D02*
D03*
Y114213D02*
D03*
D65*
X97047Y102362D02*
D03*
Y104331D02*
D03*
Y106299D02*
D03*
Y108268D02*
D03*
Y110236D02*
D03*
Y112205D02*
D03*
Y114173D02*
D03*
Y116142D02*
D03*
Y118110D02*
D03*
Y120079D02*
D03*
Y122047D02*
D03*
Y124016D02*
D03*
X70276D02*
D03*
Y122047D02*
D03*
Y120079D02*
D03*
Y118110D02*
D03*
Y116142D02*
D03*
Y114173D02*
D03*
Y112205D02*
D03*
Y110236D02*
D03*
Y108268D02*
D03*
Y106299D02*
D03*
Y104331D02*
D03*
Y102362D02*
D03*
D66*
X94488Y126575D02*
D03*
X92520D02*
D03*
X90551D02*
D03*
X88583D02*
D03*
X86614D02*
D03*
X84646D02*
D03*
X82677D02*
D03*
X80709D02*
D03*
X78740D02*
D03*
X76772D02*
D03*
X74803D02*
D03*
X72835D02*
D03*
Y99803D02*
D03*
X74803D02*
D03*
X76772D02*
D03*
X78740D02*
D03*
X80709D02*
D03*
X82677D02*
D03*
X84646D02*
D03*
X86614D02*
D03*
X88583D02*
D03*
X90551D02*
D03*
X92520D02*
D03*
X94488D02*
D03*
D67*
X83661Y113189D02*
D03*
D68*
X116241Y132109D02*
D03*
X119981D02*
D03*
X124980Y177559D02*
D03*
X121240D02*
D03*
X68012Y162402D02*
D03*
X71752D02*
D03*
X66814Y180709D02*
D03*
X63074D02*
D03*
X66814Y176772D02*
D03*
X63074D02*
D03*
X77462Y203937D02*
D03*
X73722D02*
D03*
X113681Y264961D02*
D03*
X109941D02*
D03*
X109744Y256299D02*
D03*
X106004D02*
D03*
X28268Y87417D02*
D03*
X24528D02*
D03*
D69*
X127165Y193898D02*
D03*
Y199803D02*
D03*
Y223425D02*
D03*
Y217520D02*
D03*
Y205709D02*
D03*
Y211614D02*
D03*
D70*
X132579Y230315D02*
D03*
Y187008D02*
D03*
D71*
X146850Y230118D02*
D03*
Y187205D02*
D03*
D72*
X147578Y160496D02*
D03*
Y175650D02*
D03*
X153287D02*
D03*
Y160492D02*
D03*
D73*
X143740Y168071D02*
D03*
D74*
X129724Y151417D02*
D03*
X114370D02*
D03*
X129724Y156417D02*
D03*
Y161417D02*
D03*
Y166417D02*
D03*
Y171417D02*
D03*
X114370Y151417D02*
D03*
Y156417D02*
D03*
Y161417D02*
D03*
Y166417D02*
D03*
Y171417D02*
D03*
X129724Y106142D02*
D03*
X114370D02*
D03*
X129724Y111142D02*
D03*
Y116142D02*
D03*
Y121142D02*
D03*
Y126142D02*
D03*
X114370Y106142D02*
D03*
Y111142D02*
D03*
Y116142D02*
D03*
Y121142D02*
D03*
Y126142D02*
D03*
D75*
X100394Y172677D02*
D03*
Y169055D02*
D03*
X57087Y154095D02*
D03*
Y157717D02*
D03*
D76*
X74903Y149900D02*
D03*
X72342Y152462D02*
D03*
D77*
X93465Y148819D02*
D03*
X97087D02*
D03*
X84016Y179528D02*
D03*
X87638D02*
D03*
X124358Y266929D02*
D03*
X120736D02*
D03*
X109685Y260728D02*
D03*
X106063D02*
D03*
X32725Y87417D02*
D03*
X36347D02*
D03*
D78*
X87756Y183858D02*
D03*
X83898D02*
D03*
D79*
X92716Y172835D02*
D03*
X90748D02*
D03*
X88779D02*
D03*
X86811D02*
D03*
X84842D02*
D03*
X82874D02*
D03*
X80905D02*
D03*
X78937D02*
D03*
Y153937D02*
D03*
X80905D02*
D03*
X82874D02*
D03*
X84842D02*
D03*
X90748D02*
D03*
X92716D02*
D03*
X86811D02*
D03*
X88779D02*
D03*
D80*
X76378Y170276D02*
D03*
Y168307D02*
D03*
Y166339D02*
D03*
Y164370D02*
D03*
Y162402D02*
D03*
Y160433D02*
D03*
Y158465D02*
D03*
Y156496D02*
D03*
X95276D02*
D03*
Y158465D02*
D03*
Y160433D02*
D03*
Y162402D02*
D03*
Y164370D02*
D03*
Y166339D02*
D03*
Y168307D02*
D03*
Y170276D02*
D03*
D81*
X85827Y163386D02*
D03*
D82*
X22520Y191339D02*
D03*
X27520D02*
D03*
X32520D02*
D03*
X37520D02*
D03*
X42520D02*
D03*
Y137402D02*
D03*
X37520D02*
D03*
X32520D02*
D03*
X27520D02*
D03*
X22520D02*
D03*
D83*
X46850Y153543D02*
D03*
D84*
X56891Y188583D02*
D03*
X63584Y191142D02*
D03*
Y186024D02*
D03*
D85*
X56417Y200984D02*
D03*
Y198425D02*
D03*
Y195866D02*
D03*
X64055Y200984D02*
D03*
Y198425D02*
D03*
Y195866D02*
D03*
D86*
X60236Y200425D02*
D03*
Y196425D02*
D03*
D87*
X62206Y214370D02*
D03*
Y207677D02*
D03*
D88*
X120020Y258918D02*
D03*
X117776D02*
D03*
X120020Y260827D02*
D03*
X117776D02*
D03*
X120020Y262737D02*
D03*
X117776D02*
D03*
D89*
X48524Y108268D02*
D03*
Y100787D02*
D03*
X37697D02*
D03*
Y104528D02*
D03*
Y108268D02*
D03*
D90*
X34252Y259842D02*
D03*
D91*
X141732Y15748D02*
D03*
X15748D02*
D03*
Y255906D02*
D03*
X141732D02*
D03*
D92*
X149606Y208661D02*
D03*
X133858D02*
D03*
D93*
X60236Y251181D02*
D03*
X39886Y184252D02*
D03*
X31012D02*
D03*
X152362Y98819D02*
D03*
X116374Y214961D02*
D03*
X134759Y177107D02*
D03*
X139554Y142913D02*
D03*
X102362Y97319D02*
D03*
X64328Y130371D02*
D03*
X20079Y101575D02*
D03*
X32283Y115059D02*
D03*
X39370Y267716D02*
D03*
X150645Y153797D02*
D03*
X107144Y207677D02*
D03*
X132677Y193914D02*
D03*
X33613Y95239D02*
D03*
X43114Y123031D02*
D03*
X20472Y92913D02*
D03*
X66840Y92767D02*
D03*
X105864Y264469D02*
D03*
X24600Y146063D02*
D03*
X25000Y176378D02*
D03*
X48860Y147244D02*
D03*
X90390Y90417D02*
D03*
X98583Y81201D02*
D03*
X132677Y97819D02*
D03*
X128240Y240370D02*
D03*
X30512Y246850D02*
D03*
X118898Y254331D02*
D03*
X128740Y266929D02*
D03*
X129134Y177559D02*
D03*
X114950Y179134D02*
D03*
X38651Y94814D02*
D03*
X107340Y106142D02*
D03*
X119685Y89205D02*
D03*
X125984Y88976D02*
D03*
X111811Y145669D02*
D03*
X107480Y146063D02*
D03*
X70472Y170276D02*
D03*
X101181Y122047D02*
D03*
X124016Y257087D02*
D03*
X123622Y262992D02*
D03*
X25429Y115059D02*
D03*
X25528Y126279D02*
D03*
X104724Y162992D02*
D03*
X41339Y159055D02*
D03*
X100787Y162024D02*
D03*
X37008Y161024D02*
D03*
X136614Y151417D02*
D03*
X104943Y156496D02*
D03*
X66840Y155118D02*
D03*
X74251Y175000D02*
D03*
X136221Y121260D02*
D03*
X106181Y121142D02*
D03*
X55118Y173228D02*
D03*
X79528Y144882D02*
D03*
X83071Y146063D02*
D03*
X114950Y88976D02*
D03*
X137244Y106142D02*
D03*
X20596Y87417D02*
D03*
X109843Y252500D02*
D03*
X50787Y159055D02*
D03*
X40945Y152756D02*
D03*
X52756Y185827D02*
D03*
X45079Y164173D02*
D03*
X40551Y165354D02*
D03*
X123403Y132109D02*
D03*
X21850Y107677D02*
D03*
X65945Y118110D02*
D03*
X25000Y107677D02*
D03*
X65945Y114173D02*
D03*
X55512Y70866D02*
D03*
Y74803D02*
D03*
X67716Y64961D02*
D03*
X72835Y77953D02*
D03*
X78756Y77866D02*
D03*
X101575Y110236D02*
D03*
X70276Y131299D02*
D03*
X76772D02*
D03*
X101575Y102362D02*
D03*
X65945Y108268D02*
D03*
D94*
X151573Y195529D02*
D03*
X151181Y217827D02*
D03*
X153070Y146303D02*
D03*
X90551Y113189D02*
D03*
X76772D02*
D03*
X83661Y120051D02*
D03*
Y106299D02*
D03*
X90551D02*
D03*
X76772D02*
D03*
X90551Y120051D02*
D03*
X76772Y120079D02*
D03*
X88779Y160433D02*
D03*
X82874D02*
D03*
X88779Y166339D02*
D03*
X82874D02*
D03*
X104567Y172677D02*
D03*
D95*
X83661Y113189D02*
D03*
X56693Y95276D02*
D03*
X52362D02*
D03*
X49608Y136807D02*
D03*
X79921Y65059D02*
D03*
X73622D02*
D03*
M02*
