G04*
G04 #@! TF.GenerationSoftware,Altium Limited,Altium Designer,18.1.7 (191)*
G04*
G04 Layer_Color=32896*
%FSLAX25Y25*%
%MOIN*%
G70*
G01*
G75*
%ADD10C,0.00394*%
%ADD11C,0.00984*%
%ADD12C,0.00787*%
%ADD13C,0.00600*%
D10*
X29724Y268110D02*
G03*
X29724Y268110I-197J0D01*
G01*
X86630Y79992D02*
G03*
X86630Y79992I-197J0D01*
G01*
D11*
X90551Y32702D02*
Y229552D01*
X145669Y32702D02*
Y229552D01*
X90551D02*
X145669D01*
X90551Y32702D02*
X145669D01*
X11811D02*
X66929D01*
X11811Y229552D02*
X66929D01*
Y32702D02*
Y229552D01*
X11811Y32702D02*
Y229552D01*
D12*
X46850Y253150D02*
Y266535D01*
X29528Y253150D02*
Y266535D01*
X41929Y253150D02*
X46850D01*
X29528D02*
X34449D01*
X41929Y266535D02*
X46850D01*
X29528D02*
X34449D01*
X86433Y81567D02*
Y83575D01*
Y87827D02*
Y89835D01*
X73047Y81567D02*
Y83575D01*
Y87827D02*
Y89835D01*
X86811Y74902D02*
X89567D01*
X86811Y68602D02*
X89567D01*
X77165Y54390D02*
X79134D01*
X77165Y60768D02*
X79134D01*
X66732Y68602D02*
X69488D01*
X66732Y74902D02*
X69488D01*
X51051Y250655D02*
X51575Y251180D01*
X52625D01*
X53150Y250655D01*
Y248556D01*
X52625Y248031D01*
X51575D01*
X51051Y248556D01*
X50001Y248031D02*
X48952D01*
X49476D01*
Y251180D01*
X50001Y250655D01*
X47377Y251180D02*
X45278D01*
Y250655D01*
X47377Y248556D01*
Y248031D01*
X68505Y88189D02*
X71129D01*
X71653Y87664D01*
Y86615D01*
X71129Y86090D01*
X68505D01*
X71653Y82941D02*
Y85040D01*
X69555Y82941D01*
X69030D01*
X68505Y83466D01*
Y84516D01*
X69030Y85040D01*
X61877Y65616D02*
X62402Y66141D01*
X63452D01*
X63976Y65616D01*
Y63517D01*
X63452Y62992D01*
X62402D01*
X61877Y63517D01*
X58729Y62992D02*
X60828D01*
X58729Y65091D01*
Y65616D01*
X59254Y66141D01*
X60303D01*
X60828Y65616D01*
X96653Y96587D02*
Y95538D01*
Y96062D01*
X94029D01*
X93504Y95538D01*
Y95013D01*
X94029Y94488D01*
X93504Y97637D02*
Y98686D01*
Y98162D01*
X96653D01*
X96128Y97637D01*
X49017Y266732D02*
X51641D01*
X52165Y266208D01*
Y265158D01*
X51641Y264633D01*
X49017D01*
X49542Y263584D02*
X49017Y263059D01*
Y262009D01*
X49542Y261485D01*
X50066D01*
X50591Y262009D01*
X51116Y261485D01*
X51641D01*
X52165Y262009D01*
Y263059D01*
X51641Y263584D01*
X51116D01*
X50591Y263059D01*
X50066Y263584D01*
X49542D01*
X50591Y263059D02*
Y262009D01*
X99410Y96457D02*
Y93308D01*
X100984D01*
X101508Y93833D01*
Y94882D01*
X100984Y95407D01*
X99410D01*
X100459D02*
X101508Y96457D01*
X102558D02*
X103608D01*
X103083D01*
Y93308D01*
X102558Y93833D01*
X105182Y96457D02*
X106231D01*
X105707D01*
Y93308D01*
X105182Y93833D01*
X112205Y91535D02*
X109056D01*
Y89961D01*
X109581Y89436D01*
X110630D01*
X111155Y89961D01*
Y91535D01*
Y90486D02*
X112205Y89436D01*
Y88387D02*
Y87337D01*
Y87862D01*
X109056D01*
X109581Y88387D01*
Y85763D02*
X109056Y85238D01*
Y84189D01*
X109581Y83664D01*
X111680D01*
X112205Y84189D01*
Y85238D01*
X111680Y85763D01*
X109581D01*
X73819Y95472D02*
Y98621D01*
X72245D01*
X71720Y98096D01*
Y97047D01*
X72245Y96522D01*
X73819D01*
X72769D02*
X71720Y95472D01*
X70670D02*
X69621D01*
X70146D01*
Y98621D01*
X70670Y98096D01*
X79724Y51377D02*
Y48228D01*
X77625D01*
X76576D02*
X75526D01*
X76051D01*
Y51377D01*
X76576Y50852D01*
X29397Y241338D02*
X30446D01*
X29922D01*
Y238714D01*
X30446Y238189D01*
X30971D01*
X31496Y238714D01*
X28348Y238189D02*
X27298D01*
X27823D01*
Y241338D01*
X28348Y240813D01*
X25724D02*
X25199Y241338D01*
X24149D01*
X23625Y240813D01*
Y238714D01*
X24149Y238189D01*
X25199D01*
X25724Y238714D01*
Y240813D01*
X51051Y22834D02*
X52100D01*
X51575D01*
Y20210D01*
X52100Y19685D01*
X52625D01*
X53150Y20210D01*
X50001D02*
X49476Y19685D01*
X48427D01*
X47902Y20210D01*
Y22309D01*
X48427Y22834D01*
X49476D01*
X50001Y22309D01*
Y21784D01*
X49476Y21259D01*
X47902D01*
X134712Y241338D02*
X135761D01*
X135237D01*
Y238714D01*
X135761Y238189D01*
X136286D01*
X136811Y238714D01*
X133662Y240813D02*
X133138Y241338D01*
X132088D01*
X131563Y240813D01*
Y240288D01*
X132088Y239763D01*
X131563Y239239D01*
Y238714D01*
X132088Y238189D01*
X133138D01*
X133662Y238714D01*
Y239239D01*
X133138Y239763D01*
X133662Y240288D01*
Y240813D01*
X133138Y239763D02*
X132088D01*
X107153Y21849D02*
X108202D01*
X107678D01*
Y19226D01*
X108202Y18701D01*
X108727D01*
X109252Y19226D01*
X106103Y21849D02*
X104004D01*
Y21325D01*
X106103Y19226D01*
Y18701D01*
X83857Y103477D02*
Y102427D01*
Y102952D01*
X81233D01*
X80709Y102427D01*
Y101903D01*
X81233Y101378D01*
X80709Y106101D02*
X83857D01*
X82283Y104526D01*
Y106626D01*
X78936Y103477D02*
Y102427D01*
Y102952D01*
X76312D01*
X75787Y102427D01*
Y101903D01*
X76312Y101378D01*
X78411Y104526D02*
X78936Y105051D01*
Y106101D01*
X78411Y106626D01*
X77886D01*
X77362Y106101D01*
Y105576D01*
Y106101D01*
X76837Y106626D01*
X76312D01*
X75787Y106101D01*
Y105051D01*
X76312Y104526D01*
X88779Y103477D02*
Y102427D01*
Y102952D01*
X86155D01*
X85630Y102427D01*
Y101903D01*
X86155Y101378D01*
X85630Y106626D02*
Y104526D01*
X87729Y106626D01*
X88254D01*
X88779Y106101D01*
Y105051D01*
X88254Y104526D01*
X98556Y80053D02*
X98031Y79529D01*
X96982D01*
X96457Y80053D01*
Y82152D01*
X96982Y82677D01*
X98031D01*
X98556Y82152D01*
X101704Y82677D02*
X99605D01*
X101704Y80578D01*
Y80053D01*
X101180Y79529D01*
X100130D01*
X99605Y80053D01*
X104853Y82677D02*
X102754D01*
X104853Y80578D01*
Y80053D01*
X104328Y79529D01*
X103279D01*
X102754Y80053D01*
X71195Y140618D02*
X70670Y141142D01*
Y142192D01*
X71195Y142717D01*
X73294D01*
X73819Y142192D01*
Y141142D01*
X73294Y140618D01*
X73819Y139568D02*
Y138518D01*
Y139043D01*
X70670D01*
X71195Y139568D01*
X70670Y134845D02*
Y136944D01*
X72245D01*
X71720Y135895D01*
Y135370D01*
X72245Y134845D01*
X73294D01*
X73819Y135370D01*
Y136419D01*
X73294Y136944D01*
X60893Y114829D02*
X61418Y115353D01*
X62467D01*
X62992Y114829D01*
Y112730D01*
X62467Y112205D01*
X61418D01*
X60893Y112730D01*
X59844Y112205D02*
X58794D01*
X59319D01*
Y115353D01*
X59844Y114829D01*
X57220D02*
X56695Y115353D01*
X55645D01*
X55121Y114829D01*
Y114304D01*
X55645Y113779D01*
X56170D01*
X55645D01*
X55121Y113254D01*
Y112730D01*
X55645Y112205D01*
X56695D01*
X57220Y112730D01*
X110106Y111876D02*
X110630Y112401D01*
X111680D01*
X112205Y111876D01*
Y109777D01*
X111680Y109252D01*
X110630D01*
X110106Y109777D01*
X109056Y109252D02*
X108007D01*
X108531D01*
Y112401D01*
X109056Y111876D01*
X104333Y109252D02*
X106432D01*
X104333Y111351D01*
Y111876D01*
X104858Y112401D01*
X105907D01*
X106432Y111876D01*
X60893Y119750D02*
X61418Y120275D01*
X62467D01*
X62992Y119750D01*
Y117651D01*
X62467Y117126D01*
X61418D01*
X60893Y117651D01*
X59844Y117126D02*
X58794D01*
X59319D01*
Y120275D01*
X59844Y119750D01*
X57220Y117126D02*
X56170D01*
X56695D01*
Y120275D01*
X57220Y119750D01*
X60893Y108923D02*
X61418Y109448D01*
X62467D01*
X62992Y108923D01*
Y106824D01*
X62467Y106299D01*
X61418D01*
X60893Y106824D01*
X59844D02*
X59319Y106299D01*
X58269D01*
X57744Y106824D01*
Y108923D01*
X58269Y109448D01*
X59319D01*
X59844Y108923D01*
Y108398D01*
X59319Y107873D01*
X57744D01*
X107153Y102033D02*
X107678Y102558D01*
X108727D01*
X109252Y102033D01*
Y99934D01*
X108727Y99410D01*
X107678D01*
X107153Y99934D01*
X106103Y102033D02*
X105579Y102558D01*
X104529D01*
X104004Y102033D01*
Y101508D01*
X104529Y100984D01*
X104004Y100459D01*
Y99934D01*
X104529Y99410D01*
X105579D01*
X106103Y99934D01*
Y100459D01*
X105579Y100984D01*
X106103Y101508D01*
Y102033D01*
X105579Y100984D02*
X104529D01*
X76116Y138649D02*
X75592Y139174D01*
Y140223D01*
X76116Y140748D01*
X78215D01*
X78740Y140223D01*
Y139174D01*
X78215Y138649D01*
X75592Y137599D02*
Y135500D01*
X76116D01*
X78215Y137599D01*
X78740D01*
X47573Y85499D02*
X47048Y86024D01*
Y87074D01*
X47573Y87598D01*
X49672D01*
X50197Y87074D01*
Y86024D01*
X49672Y85499D01*
X50197Y82876D02*
X47048D01*
X48623Y84450D01*
Y82351D01*
X62663Y54264D02*
X63188Y53740D01*
Y52690D01*
X62663Y52165D01*
X60564D01*
X60039Y52690D01*
Y53740D01*
X60564Y54264D01*
X62663Y55314D02*
X63188Y55839D01*
Y56888D01*
X62663Y57413D01*
X62138D01*
X61614Y56888D01*
Y56363D01*
Y56888D01*
X61089Y57413D01*
X60564D01*
X60039Y56888D01*
Y55839D01*
X60564Y55314D01*
X86484Y65616D02*
X87008Y66141D01*
X88058D01*
X88583Y65616D01*
Y63517D01*
X88058Y62992D01*
X87008D01*
X86484Y63517D01*
X85434Y62992D02*
X84385D01*
X84909D01*
Y66141D01*
X85434Y65616D01*
D13*
X136811Y199252D02*
Y224843D01*
X124016Y235669D02*
X133858D01*
Y224843D02*
Y235669D01*
Y224843D02*
X136811D01*
X128937Y199252D02*
X136811D01*
X99410D02*
X107283D01*
X99410Y224843D02*
X102362D01*
Y235669D01*
X112205D01*
X99410Y199252D02*
Y224843D01*
X58071Y199252D02*
Y224843D01*
X45276Y235669D02*
X55118D01*
Y224843D02*
Y235669D01*
Y224843D02*
X58071D01*
X50197Y199252D02*
X58071D01*
X20669D02*
X28543D01*
X20669Y224843D02*
X23622D01*
Y235669D01*
X33465D01*
X20669Y199252D02*
Y224843D01*
X99410Y36417D02*
Y62008D01*
X102362Y25591D02*
X112205D01*
X102362D02*
Y36417D01*
X99410D02*
X102362D01*
X99410Y62008D02*
X107283D01*
X128937D02*
X136811D01*
X133858Y36417D02*
X136811D01*
X133858Y25591D02*
Y36417D01*
X124016Y25591D02*
X133858D01*
X136811Y36417D02*
Y62008D01*
X20669Y36417D02*
Y62008D01*
X23622Y25591D02*
X33465D01*
X23622D02*
Y36417D01*
X20669D02*
X23622D01*
X20669Y62008D02*
X28543D01*
X50197D02*
X58071D01*
X55118Y36417D02*
X58071D01*
X55118Y25591D02*
Y36417D01*
X45276Y25591D02*
X55118D01*
X58071Y36417D02*
Y62008D01*
M02*
