G04*
G04 #@! TF.GenerationSoftware,Altium Limited,Altium Designer,18.1.7 (191)*
G04*
G04 Layer_Color=16711935*
%FSLAX25Y25*%
%MOIN*%
G70*
G01*
G75*
%ADD56R,0.06299X0.05709*%
%ADD57R,0.02953X0.02756*%
%ADD61R,0.05709X0.07677*%
%ADD68R,0.02756X0.02953*%
%ADD72R,0.04724X0.07087*%
%ADD75R,0.03110X0.03110*%
%ADD77R,0.03110X0.03110*%
%ADD90C,0.00591*%
%ADD91C,0.22244*%
G04:AMPARAMS|DCode=92|XSize=5.91mil|YSize=5.91mil|CornerRadius=0mil|HoleSize=0mil|Usage=FLASHONLY|Rotation=0.000|XOffset=0mil|YOffset=0mil|HoleType=Round|Shape=RoundedRectangle|*
%AMROUNDEDRECTD92*
21,1,0.00591,0.00591,0,0,0.0*
21,1,0.00591,0.00591,0,0,0.0*
1,1,0.00000,0.00295,-0.00295*
1,1,0.00000,-0.00295,-0.00295*
1,1,0.00000,-0.00295,0.00295*
1,1,0.00000,0.00295,0.00295*
%
%ADD92ROUNDEDRECTD92*%
%ADD93C,0.03347*%
%ADD94C,0.03362*%
%ADD95C,0.03740*%
%ADD111C,0.01772*%
%ADD112R,0.02165X0.02953*%
%ADD113R,0.01772X0.11614*%
%ADD114R,0.20591X0.16181*%
%ADD115R,0.09803X0.16181*%
G04:AMPARAMS|DCode=116|XSize=15.75mil|YSize=25.59mil|CornerRadius=4.43mil|HoleSize=0mil|Usage=FLASHONLY|Rotation=0.000|XOffset=0mil|YOffset=0mil|HoleType=Round|Shape=RoundedRectangle|*
%AMROUNDEDRECTD116*
21,1,0.01575,0.01673,0,0,0.0*
21,1,0.00689,0.02559,0,0,0.0*
1,1,0.00886,0.00345,-0.00837*
1,1,0.00886,-0.00345,-0.00837*
1,1,0.00886,-0.00345,0.00837*
1,1,0.00886,0.00345,0.00837*
%
%ADD116ROUNDEDRECTD116*%
G04:AMPARAMS|DCode=117|XSize=84.65mil|YSize=41.34mil|CornerRadius=4.72mil|HoleSize=0mil|Usage=FLASHONLY|Rotation=0.000|XOffset=0mil|YOffset=0mil|HoleType=Round|Shape=RoundedRectangle|*
%AMROUNDEDRECTD117*
21,1,0.08465,0.03189,0,0,0.0*
21,1,0.07520,0.04134,0,0,0.0*
1,1,0.00945,0.03760,-0.01595*
1,1,0.00945,-0.03760,-0.01595*
1,1,0.00945,-0.03760,0.01595*
1,1,0.00945,0.03760,0.01595*
%
%ADD117ROUNDEDRECTD117*%
%ADD118R,0.06457X0.07756*%
G36*
X45716Y265647D02*
X45761Y265636D01*
X45804Y265618D01*
X45843Y265594D01*
X45879Y265564D01*
X45909Y265528D01*
X45933Y265489D01*
X45951Y265446D01*
X45962Y265401D01*
X45965Y265354D01*
Y254331D01*
X45962Y254284D01*
X45951Y254239D01*
X45933Y254196D01*
X45909Y254157D01*
X45879Y254121D01*
X45843Y254091D01*
X45804Y254067D01*
X45761Y254049D01*
X45716Y254038D01*
X45669Y254034D01*
X43701D01*
X43655Y254038D01*
X43609Y254049D01*
X43566Y254067D01*
X43527Y254091D01*
X43491Y254121D01*
X43461Y254157D01*
X43437Y254196D01*
X43419Y254239D01*
X43408Y254284D01*
X43405Y254331D01*
Y255709D01*
X43408Y255755D01*
X43419Y255800D01*
X43437Y255843D01*
X43461Y255883D01*
X43491Y255918D01*
X43527Y255948D01*
X43566Y255973D01*
X43609Y255990D01*
X43655Y256001D01*
X43701Y256005D01*
X43995D01*
Y263680D01*
X43701D01*
X43655Y263684D01*
X43609Y263695D01*
X43566Y263713D01*
X43527Y263737D01*
X43491Y263767D01*
X43461Y263802D01*
X43437Y263842D01*
X43419Y263885D01*
X43408Y263930D01*
X43405Y263976D01*
Y265354D01*
X43408Y265401D01*
X43419Y265446D01*
X43437Y265489D01*
X43461Y265528D01*
X43491Y265564D01*
X43527Y265594D01*
X43566Y265618D01*
X43609Y265636D01*
X43655Y265647D01*
X43701Y265651D01*
X45669D01*
X45716Y265647D01*
D02*
G37*
G36*
X38235D02*
X38280Y265636D01*
X38324Y265618D01*
X38363Y265594D01*
X38398Y265564D01*
X38429Y265528D01*
X38453Y265489D01*
X38471Y265446D01*
X38482Y265401D01*
X38485Y265354D01*
Y263976D01*
X38482Y263930D01*
X38471Y263885D01*
X38453Y263842D01*
X38429Y263802D01*
X38398Y263767D01*
X38363Y263737D01*
X38324Y263713D01*
X38280Y263695D01*
X38235Y263684D01*
X38189Y263680D01*
X32383D01*
Y263216D01*
X32867Y263171D01*
X32879Y263169D01*
X32892Y263168D01*
X32902Y263165D01*
X32913Y263163D01*
X32925Y263159D01*
X32937Y263156D01*
X32947Y263152D01*
X32957Y263148D01*
X32968Y263142D01*
X32979Y263137D01*
X32988Y263131D01*
X32998Y263126D01*
X33008Y263119D01*
X33018Y263112D01*
X33026Y263105D01*
X33035Y263099D01*
X33044Y263090D01*
X33053Y263081D01*
X33060Y263073D01*
X33067Y263065D01*
X33075Y263055D01*
X33083Y263045D01*
X33088Y263036D01*
X33094Y263027D01*
X33100Y263016D01*
X33106Y263005D01*
X33110Y262995D01*
X33115Y262985D01*
X33118Y262973D01*
X33123Y262962D01*
X33125Y262951D01*
X33128Y262941D01*
X33130Y262929D01*
X33133Y262916D01*
X33306Y261658D01*
X33306Y261657D01*
X33306Y261656D01*
X33307Y261633D01*
X33308Y261612D01*
X33308Y261611D01*
X33308Y261610D01*
X33306Y261586D01*
X33304Y261565D01*
X33303Y261564D01*
X33303Y261563D01*
X33297Y261541D01*
X33292Y261521D01*
X33291Y261520D01*
X33291Y261518D01*
X33282Y261498D01*
X33273Y261478D01*
X33273Y261477D01*
X33272Y261476D01*
X32383Y259846D01*
Y259839D01*
X33272Y258209D01*
X33273Y258208D01*
X33273Y258207D01*
X33282Y258187D01*
X33291Y258167D01*
X33291Y258166D01*
X33292Y258165D01*
X33297Y258143D01*
X33303Y258122D01*
X33303Y258121D01*
X33304Y258120D01*
X33306Y258099D01*
X33308Y258076D01*
X33308Y258074D01*
X33308Y258073D01*
X33307Y258052D01*
X33306Y258029D01*
X33306Y258028D01*
X33306Y258027D01*
X33133Y256769D01*
X33130Y256756D01*
X33128Y256744D01*
X33125Y256734D01*
X33123Y256723D01*
X33118Y256712D01*
X33115Y256699D01*
X33110Y256690D01*
X33106Y256680D01*
X33100Y256669D01*
X33094Y256658D01*
X33088Y256649D01*
X33083Y256640D01*
X33075Y256630D01*
X33067Y256620D01*
X33060Y256612D01*
X33053Y256604D01*
X33044Y256595D01*
X33035Y256587D01*
X33026Y256580D01*
X33018Y256573D01*
X33008Y256566D01*
X32998Y256559D01*
X32988Y256554D01*
X32979Y256548D01*
X32968Y256543D01*
X32957Y256537D01*
X32947Y256533D01*
X32937Y256529D01*
X32925Y256526D01*
X32913Y256522D01*
X32902Y256520D01*
X32892Y256517D01*
X32879Y256516D01*
X32867Y256514D01*
X32383Y256469D01*
Y256005D01*
X38189D01*
X38235Y256001D01*
X38280Y255990D01*
X38324Y255973D01*
X38363Y255948D01*
X38398Y255918D01*
X38429Y255883D01*
X38453Y255843D01*
X38471Y255800D01*
X38482Y255755D01*
X38485Y255709D01*
Y254331D01*
X38482Y254284D01*
X38471Y254239D01*
X38453Y254196D01*
X38429Y254157D01*
X38398Y254121D01*
X38363Y254091D01*
X38324Y254067D01*
X38280Y254049D01*
X38235Y254038D01*
X38189Y254034D01*
X30709D01*
X30662Y254038D01*
X30617Y254049D01*
X30574Y254067D01*
X30535Y254091D01*
X30499Y254121D01*
X30469Y254157D01*
X30445Y254196D01*
X30427Y254239D01*
X30416Y254284D01*
X30413Y254331D01*
Y265354D01*
X30416Y265401D01*
X30427Y265446D01*
X30445Y265489D01*
X30469Y265528D01*
X30499Y265564D01*
X30535Y265594D01*
X30574Y265618D01*
X30617Y265636D01*
X30662Y265647D01*
X30709Y265651D01*
X38189D01*
X38235Y265647D01*
D02*
G37*
D56*
X55512Y86024D02*
D03*
Y79724D02*
D03*
D57*
X106693Y85532D02*
D03*
Y89272D02*
D03*
X86614Y97933D02*
D03*
Y94193D02*
D03*
X90551Y97933D02*
D03*
Y94193D02*
D03*
X78740Y97933D02*
D03*
Y94193D02*
D03*
X82677Y97933D02*
D03*
Y94193D02*
D03*
D61*
X93701Y71752D02*
D03*
X82677D02*
D03*
X62598D02*
D03*
X73622D02*
D03*
D68*
X102264Y89764D02*
D03*
X98524D02*
D03*
X70965Y92767D02*
D03*
X74705D02*
D03*
D72*
X153287Y175650D02*
D03*
Y160492D02*
D03*
D75*
X76772Y127205D02*
D03*
Y123583D02*
D03*
X72835Y127205D02*
D03*
Y123583D02*
D03*
X61024Y44646D02*
D03*
Y48268D02*
D03*
D77*
X35591Y251550D02*
D03*
X39213D02*
D03*
X97480Y105512D02*
D03*
X93858D02*
D03*
X93858Y110236D02*
D03*
X97480D02*
D03*
X69646Y118110D02*
D03*
X73268D02*
D03*
X73268Y114173D02*
D03*
X69646D02*
D03*
X69646Y108268D02*
D03*
X73268D02*
D03*
X98583Y85827D02*
D03*
X102205D02*
D03*
D90*
X34252Y259842D02*
D03*
D91*
X141732Y15748D02*
D03*
X15748D02*
D03*
Y255906D02*
D03*
X141732D02*
D03*
D92*
X149606Y208661D02*
D03*
X133858D02*
D03*
D93*
X93465Y145020D02*
D03*
X60236Y251181D02*
D03*
X39886Y184252D02*
D03*
X31012D02*
D03*
X152362Y98819D02*
D03*
X116374Y214961D02*
D03*
X134759Y177107D02*
D03*
X139554Y142913D02*
D03*
X102362Y97319D02*
D03*
X64328Y130371D02*
D03*
X20079Y101575D02*
D03*
X32283Y115059D02*
D03*
X39370Y267716D02*
D03*
X150645Y153797D02*
D03*
X107144Y207677D02*
D03*
X132677Y193914D02*
D03*
X33613Y95239D02*
D03*
X43114Y123031D02*
D03*
X20472Y92913D02*
D03*
X66840Y92767D02*
D03*
X105864Y264469D02*
D03*
X24600Y146063D02*
D03*
X25000Y176378D02*
D03*
X48860Y147244D02*
D03*
X90390Y90417D02*
D03*
X98583Y81201D02*
D03*
X121934Y171417D02*
D03*
X42126Y14173D02*
D03*
X47638Y190157D02*
D03*
Y196457D02*
D03*
Y184252D02*
D03*
X118110Y196457D02*
D03*
X126378Y184252D02*
D03*
X109843Y196457D02*
D03*
X132677Y97819D02*
D03*
X128240Y240370D02*
D03*
X30512Y246850D02*
D03*
X118898Y254331D02*
D03*
X128740Y266929D02*
D03*
X129134Y177559D02*
D03*
X114950Y179134D02*
D03*
X38651Y94814D02*
D03*
X107340Y106142D02*
D03*
X119685Y89205D02*
D03*
X125984Y88976D02*
D03*
X119685Y96063D02*
D03*
X111811Y145669D02*
D03*
X107480Y146063D02*
D03*
X62205Y166142D02*
D03*
X59842Y169291D02*
D03*
X64567Y162598D02*
D03*
X70472Y170276D02*
D03*
X101181Y122047D02*
D03*
X124016Y257087D02*
D03*
X123622Y262992D02*
D03*
X25429Y115059D02*
D03*
X25528Y126279D02*
D03*
X104724Y162992D02*
D03*
X41339Y159055D02*
D03*
X100787Y162024D02*
D03*
X37008Y161024D02*
D03*
X47638Y76772D02*
D03*
X136614Y151417D02*
D03*
X104943Y156496D02*
D03*
X66840Y155118D02*
D03*
X109449Y129921D02*
D03*
X74251Y175000D02*
D03*
X136221Y121260D02*
D03*
X106181Y121142D02*
D03*
X121653Y123622D02*
D03*
X55118Y173228D02*
D03*
X122547Y116035D02*
D03*
X54724Y169685D02*
D03*
X79528Y144882D02*
D03*
X83071Y146063D02*
D03*
X114950Y88976D02*
D03*
X137244Y106142D02*
D03*
X20596Y87417D02*
D03*
X109843Y252500D02*
D03*
X50787Y159055D02*
D03*
X40945Y152756D02*
D03*
X52756Y185827D02*
D03*
X45079Y164173D02*
D03*
X40551Y165354D02*
D03*
X123403Y132109D02*
D03*
X21850Y107677D02*
D03*
X65945Y118110D02*
D03*
X67913Y173228D02*
D03*
X25000Y107677D02*
D03*
X65945Y114173D02*
D03*
X55512Y70866D02*
D03*
Y74803D02*
D03*
X120866Y235276D02*
D03*
X115354D02*
D03*
Y247087D02*
D03*
X120866D02*
D03*
Y241181D02*
D03*
X115354D02*
D03*
X42126Y235276D02*
D03*
X36614D02*
D03*
Y247087D02*
D03*
X42126D02*
D03*
Y241181D02*
D03*
X36614D02*
D03*
X31102Y76772D02*
D03*
Y64961D02*
D03*
X47638D02*
D03*
X39370Y76772D02*
D03*
Y64961D02*
D03*
X31102Y70866D02*
D03*
X47638D02*
D03*
X36614Y25984D02*
D03*
X42126D02*
D03*
X36614Y14173D02*
D03*
Y20079D02*
D03*
X42126D02*
D03*
X120866D02*
D03*
X115354D02*
D03*
Y14173D02*
D03*
X120866D02*
D03*
Y25984D02*
D03*
X115354D02*
D03*
X126378Y70866D02*
D03*
X109843D02*
D03*
X118110Y64961D02*
D03*
Y76772D02*
D03*
X126378D02*
D03*
Y64961D02*
D03*
X109843D02*
D03*
Y76772D02*
D03*
X67716Y64961D02*
D03*
X72835Y77953D02*
D03*
X78756Y77866D02*
D03*
X101575Y110236D02*
D03*
X70276Y131299D02*
D03*
X76772D02*
D03*
X101575Y102362D02*
D03*
X65945Y108268D02*
D03*
D94*
X151573Y195529D02*
D03*
X151181Y217827D02*
D03*
X153070Y146303D02*
D03*
X104567Y172677D02*
D03*
D95*
X56693Y95276D02*
D03*
X52362D02*
D03*
X49608Y136807D02*
D03*
X79921Y65059D02*
D03*
X73622D02*
D03*
D111*
X37008Y259842D02*
G03*
X37008Y259842I-2756J0D01*
G01*
D112*
X42323Y258071D02*
D03*
X39567D02*
D03*
X42323Y261614D02*
D03*
X39567D02*
D03*
D113*
X45079Y259842D02*
D03*
X31299D02*
D03*
D114*
X118110Y190394D02*
D03*
X39370D02*
D03*
X118110Y70866D02*
D03*
X39370D02*
D03*
D115*
X118110Y240984D02*
D03*
X39370D02*
D03*
X118110Y20276D02*
D03*
X39370D02*
D03*
D116*
X84661Y82197D02*
D03*
X82693D02*
D03*
X80724D02*
D03*
X78756D02*
D03*
X76787D02*
D03*
X74819D02*
D03*
X84661Y89205D02*
D03*
X82693D02*
D03*
X80724D02*
D03*
X78756D02*
D03*
X76787D02*
D03*
X74819D02*
D03*
D117*
X79740Y85701D02*
D03*
D118*
X72815Y57579D02*
D03*
X83484D02*
D03*
M02*
