G04*
G04 #@! TF.GenerationSoftware,Altium Limited,Altium Designer,18.1.7 (191)*
G04*
G04 Layer_Color=65535*
%FSLAX25Y25*%
%MOIN*%
G70*
G01*
G75*
%ADD10C,0.00394*%
%ADD11C,0.00984*%
%ADD12C,0.00787*%
%ADD13C,0.00600*%
%ADD14C,0.01000*%
D10*
X48583Y55709D02*
G03*
X48583Y55709I-197J0D01*
G01*
X104102Y31299D02*
G03*
X104102Y31299I-197J0D01*
G01*
X54724Y203150D02*
G03*
X54724Y203150I-197J0D01*
G01*
X121595Y258827D02*
G03*
X121595Y258827I-197J0D01*
G01*
X30827Y89512D02*
G03*
X30827Y89512I-197J0D01*
G01*
D11*
X27619Y46654D02*
G03*
X27619Y46654I-492J0D01*
G01*
X125657Y40354D02*
G03*
X125657Y40354I-492J0D01*
G01*
X101083Y99410D02*
G03*
X101083Y99410I-492J0D01*
G01*
X145677Y180591D02*
G03*
X145677Y236732I-3945J28071D01*
G01*
X96358Y176575D02*
G03*
X96358Y176575I-492J0D01*
G01*
X67421Y184055D02*
G03*
X67421Y184055I-492J0D01*
G01*
X37036Y259842D02*
G03*
X37036Y259842I-2784J0D01*
G01*
X38189Y111614D02*
G03*
X38189Y111614I-492J0D01*
G01*
X50937Y94814D02*
G03*
X50937Y94814I-492J0D01*
G01*
X145677Y180591D02*
Y183457D01*
Y233866D02*
Y236732D01*
X137402Y185039D02*
X143701D01*
X137402Y232283D02*
X143701D01*
X125591Y185039D02*
X127559D01*
X125591D02*
X125591Y190551D01*
X125591Y232283D02*
X125591Y226772D01*
X125591Y232283D02*
X127559D01*
X82676Y69549D02*
Y64302D01*
Y66925D01*
X74804D01*
Y61678D02*
X80052D01*
X82676Y59054D01*
X80052Y56430D01*
X74804D01*
X78740D01*
Y61678D01*
X74804Y53806D02*
X82676D01*
Y49870D01*
X81364Y48559D01*
X78740D01*
X77428Y49870D01*
Y53806D01*
X82676Y40687D02*
Y45935D01*
X74804D01*
Y40687D01*
X78740Y45935D02*
Y43311D01*
D12*
X18307Y134843D02*
G03*
X18307Y134843I-394J0D01*
G01*
X53343Y139913D02*
Y142669D01*
X59643Y139913D02*
Y142669D01*
X38938Y45866D02*
Y47362D01*
Y52638D02*
Y54134D01*
X48386Y45866D02*
Y47362D01*
Y52638D02*
Y54134D01*
X28701Y50295D02*
Y52658D01*
X30276D01*
X36969Y50295D02*
Y52658D01*
X35394D02*
X36969D01*
X37363Y35039D02*
X40119D01*
X37363Y41339D02*
X40119D01*
X113354Y39646D02*
Y41142D01*
Y32874D02*
Y34370D01*
X103905Y39646D02*
Y41142D01*
Y32874D02*
Y34370D01*
X112173Y45669D02*
X114929D01*
X112173Y51968D02*
X114929D01*
X123591Y34350D02*
Y36713D01*
X122016Y34350D02*
X123591D01*
X115323D02*
Y36713D01*
Y34350D02*
X116898D01*
X98032Y98819D02*
Y100394D01*
X96457Y98819D02*
X98032D01*
X69291D02*
X70866D01*
X69291D02*
Y100394D01*
Y125984D02*
Y127559D01*
X70866D01*
X98032Y125984D02*
Y127559D01*
X96457D02*
X98032D01*
X131890Y147638D02*
X132874Y148622D01*
X133858Y147638D01*
X131890D02*
X133858D01*
X117126Y174213D02*
X126969D01*
X117126Y148622D02*
X126969D01*
X94784Y174016D02*
X96457D01*
Y172343D02*
Y174016D01*
Y152756D02*
Y154429D01*
X94784Y152756D02*
X96457D01*
X75197D02*
X76870D01*
X75197D02*
Y154429D01*
Y174016D02*
X76870D01*
X75197Y172343D02*
Y174016D01*
X74411Y191536D02*
Y194292D01*
X68111Y191536D02*
Y194292D01*
X45472Y191929D02*
X47441D01*
X45472Y136811D02*
X47441D01*
X197D02*
X18898D01*
X197D02*
Y191929D01*
X18898D01*
X47441Y157480D02*
Y191929D01*
Y136811D02*
Y149606D01*
X57580Y191142D02*
Y192717D01*
X59942D01*
X57580Y184449D02*
Y186024D01*
Y184449D02*
X59942D01*
X56102Y203150D02*
X57598D01*
X62874D02*
X64370D01*
X56102Y193701D02*
X57598D01*
X62874D02*
X64370D01*
X117398Y257827D02*
X120398D01*
X117398Y263827D02*
X120398D01*
X131890Y102362D02*
X132874Y103347D01*
X133858Y102362D01*
X131890D02*
X133858D01*
X117126Y128937D02*
X126969D01*
X117126Y103347D02*
X126969D01*
X45079Y98425D02*
Y110630D01*
X41142Y98425D02*
Y110630D01*
Y98425D02*
X45079D01*
X41142Y110630D02*
X45079D01*
X40602Y88810D02*
X42177D01*
X40602D02*
Y91172D01*
X47295Y88810D02*
X48870D01*
Y91172D01*
X126638Y97540D02*
X129262D01*
Y99508D01*
X127950D01*
X129262D01*
Y101476D01*
X125326D02*
Y97540D01*
X123359D01*
X122703Y98196D01*
Y99508D01*
X123359Y100164D01*
X125326D01*
X118767Y98196D02*
X119423Y97540D01*
X120735D01*
X121391Y98196D01*
Y100820D01*
X120735Y101476D01*
X119423D01*
X118767Y100820D01*
Y99508D01*
X120079D01*
X117455Y101476D02*
Y98852D01*
X116143Y97540D01*
X114831Y98852D01*
Y101476D01*
Y99508D01*
X117455D01*
X127294Y146751D02*
Y142816D01*
X125982Y144128D01*
X124670Y142816D01*
Y146751D01*
X120735Y143472D02*
X121391Y142816D01*
X122703D01*
X123359Y143472D01*
Y146096D01*
X122703Y146751D01*
X121391D01*
X120735Y146096D01*
X119423Y142816D02*
Y146096D01*
X118767Y146751D01*
X117455D01*
X116799Y146096D01*
Y142816D01*
X38583Y257874D02*
Y261810D01*
X39895Y260498D01*
X41206Y261810D01*
Y257874D01*
X42518Y261810D02*
X43830D01*
X43174D01*
Y257874D01*
X42518D01*
X43830D01*
X48422Y261154D02*
X47766Y261810D01*
X46454D01*
X45798Y261154D01*
Y258530D01*
X46454Y257874D01*
X47766D01*
X48422Y258530D01*
X139894Y237860D02*
X139370Y238385D01*
X138320D01*
X137795Y237860D01*
Y237335D01*
X138320Y236810D01*
X139370D01*
X139894Y236286D01*
Y235761D01*
X139370Y235236D01*
X138320D01*
X137795Y235761D01*
X143043Y235236D02*
X140944D01*
X143043Y237335D01*
Y237860D01*
X142518Y238385D01*
X141469D01*
X140944Y237860D01*
X118110Y186024D02*
X114962D01*
Y187598D01*
X115486Y188123D01*
X116536D01*
X117061Y187598D01*
Y186024D01*
Y187073D02*
X118110Y188123D01*
Y191271D02*
Y189172D01*
X116011Y191271D01*
X115486D01*
X114962Y190746D01*
Y189697D01*
X115486Y189172D01*
X114962Y192321D02*
Y194420D01*
X115486D01*
X117586Y192321D01*
X118110D01*
Y218504D02*
X114962D01*
Y220078D01*
X115486Y220603D01*
X116536D01*
X117061Y220078D01*
Y218504D01*
Y219553D02*
X118110Y220603D01*
Y223752D02*
Y221653D01*
X116011Y223752D01*
X115486D01*
X114962Y223227D01*
Y222177D01*
X115486Y221653D01*
X139109Y162532D02*
X138584Y162007D01*
Y160958D01*
X139109Y160433D01*
X139633D01*
X140158Y160958D01*
Y162007D01*
X140683Y162532D01*
X141208D01*
X141732Y162007D01*
Y160958D01*
X141208Y160433D01*
X141732Y163582D02*
Y164631D01*
Y164106D01*
X138584D01*
X139109Y163582D01*
X50001Y192913D02*
X52625D01*
X53150Y193438D01*
Y194488D01*
X52625Y195012D01*
X50001D01*
X52625Y196062D02*
X53150Y196587D01*
Y197636D01*
X52625Y198161D01*
X50526D01*
X50001Y197636D01*
Y196587D01*
X50526Y196062D01*
X51051D01*
X51575Y196587D01*
Y198161D01*
X62992Y160433D02*
X59844D01*
Y162007D01*
X60368Y162532D01*
X61418D01*
X61943Y162007D01*
Y160433D01*
Y161483D02*
X62992Y162532D01*
Y165681D02*
Y163582D01*
X60893Y165681D01*
X60368D01*
X59844Y165156D01*
Y164106D01*
X60368Y163582D01*
X59844Y168829D02*
X60368Y167780D01*
X61418Y166730D01*
X62467D01*
X62992Y167255D01*
Y168305D01*
X62467Y168829D01*
X61943D01*
X61418Y168305D01*
Y166730D01*
X105512Y235827D02*
Y238975D01*
X107086D01*
X107611Y238451D01*
Y237401D01*
X107086Y236876D01*
X105512D01*
X106561D02*
X107611Y235827D01*
X110759D02*
X108660D01*
X110759Y237926D01*
Y238451D01*
X110235Y238975D01*
X109185D01*
X108660Y238451D01*
X113908Y238975D02*
X111809D01*
Y237401D01*
X112858Y237926D01*
X113383D01*
X113908Y237401D01*
Y236351D01*
X113383Y235827D01*
X112334D01*
X111809Y236351D01*
X52362Y209055D02*
X49214D01*
Y210629D01*
X49738Y211154D01*
X50788D01*
X51313Y210629D01*
Y209055D01*
Y210105D02*
X52362Y211154D01*
Y214303D02*
Y212204D01*
X50263Y214303D01*
X49738D01*
X49214Y213778D01*
Y212729D01*
X49738Y212204D01*
X52362Y216927D02*
X49214D01*
X50788Y215352D01*
Y217451D01*
X71850Y206693D02*
Y209841D01*
X73425D01*
X73949Y209317D01*
Y208267D01*
X73425Y207742D01*
X71850D01*
X72900D02*
X73949Y206693D01*
X77098D02*
X74999D01*
X77098Y208792D01*
Y209317D01*
X76573Y209841D01*
X75524D01*
X74999Y209317D01*
X78148D02*
X78672Y209841D01*
X79722D01*
X80247Y209317D01*
Y208792D01*
X79722Y208267D01*
X79197D01*
X79722D01*
X80247Y207742D01*
Y207218D01*
X79722Y206693D01*
X78672D01*
X78148Y207218D01*
X57480Y209055D02*
X54332D01*
Y210629D01*
X54856Y211154D01*
X55906D01*
X56431Y210629D01*
Y209055D01*
Y210105D02*
X57480Y211154D01*
Y214303D02*
Y212204D01*
X55381Y214303D01*
X54856D01*
X54332Y213778D01*
Y212729D01*
X54856Y212204D01*
X57480Y217451D02*
Y215352D01*
X55381Y217451D01*
X54856D01*
X54332Y216927D01*
Y215877D01*
X54856Y215352D01*
X104134Y241240D02*
X100985D01*
Y242814D01*
X101510Y243339D01*
X102560D01*
X103084Y242814D01*
Y241240D01*
Y242290D02*
X104134Y243339D01*
Y246488D02*
Y244389D01*
X102035Y246488D01*
X101510D01*
X100985Y245963D01*
Y244914D01*
X101510Y244389D01*
X104134Y247537D02*
Y248587D01*
Y248062D01*
X100985D01*
X101510Y247537D01*
X118504Y235827D02*
X115355D01*
Y237401D01*
X115880Y237926D01*
X116930D01*
X117454Y237401D01*
Y235827D01*
Y236876D02*
X118504Y237926D01*
Y241074D02*
Y238975D01*
X116405Y241074D01*
X115880D01*
X115355Y240550D01*
Y239500D01*
X115880Y238975D01*
Y242124D02*
X115355Y242649D01*
Y243698D01*
X115880Y244223D01*
X117979D01*
X118504Y243698D01*
Y242649D01*
X117979Y242124D01*
X115880D01*
X110000Y245669D02*
Y248818D01*
X111574D01*
X112099Y248293D01*
Y247244D01*
X111574Y246719D01*
X110000D01*
X111049D02*
X112099Y245669D01*
X113149D02*
X114198D01*
X113673D01*
Y248818D01*
X113149Y248293D01*
X115772Y246194D02*
X116297Y245669D01*
X117347D01*
X117871Y246194D01*
Y248293D01*
X117347Y248818D01*
X116297D01*
X115772Y248293D01*
Y247768D01*
X116297Y247244D01*
X117871D01*
X18701Y111221D02*
X15552D01*
Y112795D01*
X16077Y113320D01*
X17127D01*
X17651Y112795D01*
Y111221D01*
Y112270D02*
X18701Y113320D01*
Y114369D02*
Y115419D01*
Y114894D01*
X15552D01*
X16077Y114369D01*
Y116993D02*
X15552Y117518D01*
Y118567D01*
X16077Y119092D01*
X16602D01*
X17127Y118567D01*
X17651Y119092D01*
X18176D01*
X18701Y118567D01*
Y117518D01*
X18176Y116993D01*
X17651D01*
X17127Y117518D01*
X16602Y116993D01*
X16077D01*
X17127Y117518D02*
Y118567D01*
X18701Y121063D02*
X15552D01*
Y122637D01*
X16077Y123162D01*
X17127D01*
X17651Y122637D01*
Y121063D01*
Y122113D02*
X18701Y123162D01*
Y124212D02*
Y125261D01*
Y124736D01*
X15552D01*
X16077Y124212D01*
X15552Y126835D02*
Y128935D01*
X16077D01*
X18176Y126835D01*
X18701D01*
X52625Y181233D02*
X50526D01*
X50001Y180708D01*
Y179659D01*
X50526Y179134D01*
X52625D01*
X53150Y179659D01*
Y180708D01*
X52100Y180183D02*
X53150Y181233D01*
Y180708D02*
X52625Y181233D01*
X53150Y183857D02*
X50001D01*
X51575Y182282D01*
Y184381D01*
X76902Y216731D02*
X75853D01*
X76377D01*
Y214107D01*
X75853Y213583D01*
X75328D01*
X74803Y214107D01*
X77952Y213583D02*
X79001D01*
X78477D01*
Y216731D01*
X77952Y216207D01*
X80576Y213583D02*
X81625D01*
X81100D01*
Y216731D01*
X80576Y216207D01*
X55447Y162532D02*
X54922Y162007D01*
Y160958D01*
X55447Y160433D01*
X57546D01*
X58071Y160958D01*
Y162007D01*
X57546Y162532D01*
X55447Y163582D02*
X54922Y164106D01*
Y165156D01*
X55447Y165681D01*
X55972D01*
X56497Y165156D01*
Y164631D01*
Y165156D01*
X57021Y165681D01*
X57546D01*
X58071Y165156D01*
Y164106D01*
X57546Y163582D01*
X55447Y166730D02*
X54922Y167255D01*
Y168305D01*
X55447Y168829D01*
X57546D01*
X58071Y168305D01*
Y167255D01*
X57546Y166730D01*
X55447D01*
X80053Y191075D02*
X79529Y190551D01*
Y189501D01*
X80053Y188976D01*
X82152D01*
X82677Y189501D01*
Y190551D01*
X82152Y191075D01*
X82677Y194224D02*
Y192125D01*
X80578Y194224D01*
X80053D01*
X79529Y193699D01*
Y192650D01*
X80053Y192125D01*
X82152Y195274D02*
X82677Y195798D01*
Y196848D01*
X82152Y197373D01*
X80053D01*
X79529Y196848D01*
Y195798D01*
X80053Y195274D01*
X80578D01*
X81103Y195798D01*
Y197373D01*
X107611Y243805D02*
X107086Y244330D01*
X106037D01*
X105512Y243805D01*
Y241706D01*
X106037Y241181D01*
X107086D01*
X107611Y241706D01*
X110759Y241181D02*
X108660D01*
X110759Y243280D01*
Y243805D01*
X110235Y244330D01*
X109185D01*
X108660Y243805D01*
X111809D02*
X112334Y244330D01*
X113383D01*
X113908Y243805D01*
Y243280D01*
X113383Y242755D01*
X113908Y242231D01*
Y241706D01*
X113383Y241181D01*
X112334D01*
X111809Y241706D01*
Y242231D01*
X112334Y242755D01*
X111809Y243280D01*
Y243805D01*
X112334Y242755D02*
X113383D01*
X94619Y145340D02*
X94094Y145865D01*
X93045D01*
X92520Y145340D01*
Y143241D01*
X93045Y142717D01*
X94094D01*
X94619Y143241D01*
X97767Y142717D02*
X95668D01*
X97767Y144816D01*
Y145340D01*
X97243Y145865D01*
X96193D01*
X95668Y145340D01*
X98817Y145865D02*
X100916D01*
Y145340D01*
X98817Y143241D01*
Y142717D01*
X68511Y144314D02*
Y143572D01*
X69253Y142830D01*
X69995Y142830D01*
X71479Y144314D01*
Y145056D01*
X70737Y145798D01*
X69995Y145798D01*
X68140Y148396D02*
X69624Y146911D01*
X66655D01*
X66284Y146540D01*
Y145798D01*
X67027Y145056D01*
X67769Y145056D01*
X63687Y148396D02*
X64800Y148025D01*
X66284D01*
X67027Y148767D01*
Y149509D01*
X66284Y150251D01*
X65542Y150251D01*
X65171Y149880D01*
X65171Y149138D01*
X66284Y148025D01*
X108268Y29723D02*
Y27100D01*
X108792Y26575D01*
X109842D01*
X110367Y27100D01*
Y29723D01*
X111416D02*
X113515D01*
Y29199D01*
X111416Y27100D01*
Y26575D01*
X41339Y61219D02*
Y58596D01*
X41863Y58071D01*
X42913D01*
X43438Y58596D01*
Y61219D01*
X46586D02*
X45537Y60695D01*
X44487Y59645D01*
Y58596D01*
X45012Y58071D01*
X46062D01*
X46586Y58596D01*
Y59120D01*
X46062Y59645D01*
X44487D01*
X120867Y238583D02*
X123491D01*
X124016Y239107D01*
Y240157D01*
X123491Y240682D01*
X120867D01*
Y243830D02*
Y241731D01*
X122441D01*
X121917Y242781D01*
Y243306D01*
X122441Y243830D01*
X123491D01*
X124016Y243306D01*
Y242256D01*
X123491Y241731D01*
X40354Y115353D02*
Y112730D01*
X40879Y112205D01*
X41929D01*
X42453Y112730D01*
Y115353D01*
X45077Y112205D02*
Y115353D01*
X43503Y113779D01*
X45602D01*
X84646Y149802D02*
Y147178D01*
X85171Y146653D01*
X86220D01*
X86745Y147178D01*
Y149802D01*
X87794Y149277D02*
X88319Y149802D01*
X89369D01*
X89893Y149277D01*
Y148753D01*
X89369Y148228D01*
X88844D01*
X89369D01*
X89893Y147703D01*
Y147178D01*
X89369Y146653D01*
X88319D01*
X87794Y147178D01*
X91535Y135038D02*
Y132414D01*
X92060Y131890D01*
X93110D01*
X93634Y132414D01*
Y135038D01*
X94684Y131890D02*
X95734D01*
X95209D01*
Y135038D01*
X94684Y134514D01*
X2953Y129921D02*
Y133070D01*
X4527D01*
X5052Y132545D01*
Y131496D01*
X4527Y130971D01*
X2953D01*
X4002D02*
X5052Y129921D01*
X8200Y133070D02*
X6101D01*
Y131496D01*
X7151D01*
X6101D01*
Y129921D01*
X9250D02*
X10300D01*
X9775D01*
Y133070D01*
X9250Y132545D01*
X143701Y109252D02*
X140552D01*
Y110826D01*
X141077Y111351D01*
X142127D01*
X142651Y110826D01*
Y109252D01*
Y110301D02*
X143701Y111351D01*
Y112401D02*
Y113450D01*
Y112925D01*
X140552D01*
X141077Y112401D01*
X140552Y117123D02*
X141077Y116074D01*
X142127Y115024D01*
X143176D01*
X143701Y115549D01*
Y116599D01*
X143176Y117123D01*
X142651D01*
X142127Y116599D01*
Y115024D01*
X131890Y43307D02*
X128741D01*
Y44881D01*
X129266Y45406D01*
X130315D01*
X130840Y44881D01*
Y43307D01*
Y44357D02*
X131890Y45406D01*
Y46456D02*
Y47505D01*
Y46980D01*
X128741D01*
X129266Y46456D01*
X128741Y51179D02*
Y49079D01*
X130315D01*
X129791Y50129D01*
Y50654D01*
X130315Y51179D01*
X131365D01*
X131890Y50654D01*
Y49604D01*
X131365Y49079D01*
X23622Y35433D02*
X20473D01*
Y37007D01*
X20998Y37532D01*
X22048D01*
X22572Y37007D01*
Y35433D01*
Y36483D02*
X23622Y37532D01*
Y38582D02*
Y39631D01*
Y39106D01*
X20473D01*
X20998Y38582D01*
X23622Y42780D02*
X20473D01*
X22048Y41205D01*
Y43305D01*
X105315Y54134D02*
X102166D01*
Y55708D01*
X102691Y56233D01*
X103741D01*
X104265Y55708D01*
Y54134D01*
Y55183D02*
X105315Y56233D01*
Y57282D02*
Y58332D01*
Y57807D01*
X102166D01*
X102691Y57282D01*
Y59906D02*
X102166Y60431D01*
Y61481D01*
X102691Y62005D01*
X103216D01*
X103741Y61481D01*
Y60956D01*
Y61481D01*
X104265Y62005D01*
X104790D01*
X105315Y61481D01*
Y60431D01*
X104790Y59906D01*
X53150Y43307D02*
X50001D01*
Y44881D01*
X50526Y45406D01*
X51575D01*
X52100Y44881D01*
Y43307D01*
Y44357D02*
X53150Y45406D01*
Y46456D02*
Y47505D01*
Y46980D01*
X50001D01*
X50526Y46456D01*
X53150Y51179D02*
Y49079D01*
X51051Y51179D01*
X50526D01*
X50001Y50654D01*
Y49604D01*
X50526Y49079D01*
X66929Y165354D02*
Y168503D01*
X68503D01*
X69028Y167978D01*
Y166929D01*
X68503Y166404D01*
X66929D01*
X67979D02*
X69028Y165354D01*
X70078Y165879D02*
X70603Y165354D01*
X71652D01*
X72177Y165879D01*
Y167978D01*
X71652Y168503D01*
X70603D01*
X70078Y167978D01*
Y167453D01*
X70603Y166929D01*
X72177D01*
X115157Y135827D02*
Y138975D01*
X116732D01*
X117256Y138451D01*
Y137401D01*
X116732Y136876D01*
X115157D01*
X116207D02*
X117256Y135827D01*
X118306Y138451D02*
X118831Y138975D01*
X119880D01*
X120405Y138451D01*
Y137926D01*
X119880Y137401D01*
X120405Y136876D01*
Y136352D01*
X119880Y135827D01*
X118831D01*
X118306Y136352D01*
Y136876D01*
X118831Y137401D01*
X118306Y137926D01*
Y138451D01*
X118831Y137401D02*
X119880D01*
X55512Y179921D02*
Y183070D01*
X57086D01*
X57611Y182545D01*
Y181496D01*
X57086Y180971D01*
X55512D01*
X56561D02*
X57611Y179921D01*
X58660Y183070D02*
X60760D01*
Y182545D01*
X58660Y180446D01*
Y179921D01*
X56102Y175197D02*
Y178345D01*
X57677D01*
X58201Y177821D01*
Y176771D01*
X57677Y176246D01*
X56102D01*
X57152D02*
X58201Y175197D01*
X61350Y178345D02*
X60300Y177821D01*
X59251Y176771D01*
Y175722D01*
X59776Y175197D01*
X60825D01*
X61350Y175722D01*
Y176246D01*
X60825Y176771D01*
X59251D01*
X118110Y207677D02*
X114962D01*
Y209251D01*
X115486Y209776D01*
X116536D01*
X117061Y209251D01*
Y207677D01*
Y208727D02*
X118110Y209776D01*
X114962Y212925D02*
Y210826D01*
X116536D01*
X116011Y211875D01*
Y212400D01*
X116536Y212925D01*
X117586D01*
X118110Y212400D01*
Y211350D01*
X117586Y210826D01*
X23622Y80709D02*
Y83857D01*
X25196D01*
X25721Y83333D01*
Y82283D01*
X25196Y81758D01*
X23622D01*
X24672D02*
X25721Y80709D01*
X28345D02*
Y83857D01*
X26771Y82283D01*
X28870D01*
X120079Y180118D02*
Y183267D01*
X121653D01*
X122178Y182742D01*
Y181692D01*
X121653Y181168D01*
X120079D01*
X121128D02*
X122178Y180118D01*
X123227Y182742D02*
X123752Y183267D01*
X124802D01*
X125326Y182742D01*
Y182217D01*
X124802Y181692D01*
X124277D01*
X124802D01*
X125326Y181168D01*
Y180643D01*
X124802Y180118D01*
X123752D01*
X123227Y180643D01*
X128083Y34974D02*
Y37073D01*
X127559Y37597D01*
X126509D01*
X125984Y37073D01*
Y34974D01*
X126509Y34449D01*
X127559D01*
X127034Y35498D02*
X128083Y34449D01*
X127559D02*
X128083Y34974D01*
X129133Y37073D02*
X129658Y37597D01*
X130707D01*
X131232Y37073D01*
Y36548D01*
X130707Y36023D01*
X130182D01*
X130707D01*
X131232Y35498D01*
Y34974D01*
X130707Y34449D01*
X129658D01*
X129133Y34974D01*
X23753Y50722D02*
Y52821D01*
X23228Y53345D01*
X22178D01*
X21654Y52821D01*
Y50722D01*
X22178Y50197D01*
X23228D01*
X22703Y51246D02*
X23753Y50197D01*
X23228D02*
X23753Y50722D01*
X26901Y50197D02*
X24802D01*
X26901Y52296D01*
Y52821D01*
X26376Y53345D01*
X25327D01*
X24802Y52821D01*
X45406Y81233D02*
Y83333D01*
X44881Y83857D01*
X43832D01*
X43307Y83333D01*
Y81233D01*
X43832Y80709D01*
X44881D01*
X44357Y81758D02*
X45406Y80709D01*
X44881D02*
X45406Y81233D01*
X46456Y80709D02*
X47505D01*
X46981D01*
Y83857D01*
X46456Y83333D01*
X57087Y89763D02*
Y86614D01*
X59186D01*
X62334Y89238D02*
X61809Y89763D01*
X60760D01*
X60235Y89238D01*
Y88713D01*
X60760Y88188D01*
X61809D01*
X62334Y87664D01*
Y87139D01*
X61809Y86614D01*
X60760D01*
X60235Y87139D01*
X63384Y86614D02*
X64433D01*
X63909D01*
Y89763D01*
X63384Y89238D01*
X131036Y178345D02*
X129987D01*
X130511D01*
Y175722D01*
X129987Y175197D01*
X129462D01*
X128937Y175722D01*
X134185Y178345D02*
X133135Y177821D01*
X132086Y176771D01*
Y175722D01*
X132610Y175197D01*
X133660D01*
X134185Y175722D01*
Y176246D01*
X133660Y176771D01*
X132086D01*
X131036Y133070D02*
X129987D01*
X130511D01*
Y130446D01*
X129987Y129921D01*
X129462D01*
X128937Y130446D01*
X134185Y133070D02*
X132086D01*
Y131496D01*
X133135Y132020D01*
X133660D01*
X134185Y131496D01*
Y130446D01*
X133660Y129921D01*
X132610D01*
X132086Y130446D01*
X75918Y185235D02*
X73819D01*
Y183661D01*
X74868D01*
X73819D01*
Y182087D01*
X76968Y185235D02*
Y182087D01*
X78542D01*
X79067Y182611D01*
Y183136D01*
X78542Y183661D01*
X76968D01*
X78542D01*
X79067Y184186D01*
Y184710D01*
X78542Y185235D01*
X76968D01*
X82215Y182087D02*
X80116D01*
X82215Y184186D01*
Y184710D01*
X81690Y185235D01*
X80641D01*
X80116Y184710D01*
X60828Y105446D02*
Y103347D01*
X62402D01*
Y104396D01*
Y103347D01*
X63976D01*
X60828Y106495D02*
X63976D01*
Y108069D01*
X63452Y108594D01*
X62927D01*
X62402Y108069D01*
Y106495D01*
Y108069D01*
X61877Y108594D01*
X61353D01*
X60828Y108069D01*
Y106495D01*
X63976Y109644D02*
Y110693D01*
Y110168D01*
X60828D01*
X61353Y109644D01*
X32480Y83857D02*
Y80709D01*
X34055D01*
X34579Y81233D01*
Y83333D01*
X34055Y83857D01*
X32480D01*
X35629Y80709D02*
X36678D01*
X36154D01*
Y83857D01*
X35629Y83333D01*
X112335Y57742D02*
X111811Y58267D01*
X110761D01*
X110236Y57742D01*
Y55643D01*
X110761Y55118D01*
X111811D01*
X112335Y55643D01*
X115484Y55118D02*
X113385D01*
X115484Y57217D01*
Y57742D01*
X114959Y58267D01*
X113910D01*
X113385Y57742D01*
X118632Y58267D02*
X116533D01*
Y56692D01*
X117583Y57217D01*
X118108D01*
X118632Y56692D01*
Y55643D01*
X118108Y55118D01*
X117058D01*
X116533Y55643D01*
X37532Y32151D02*
X37007Y32676D01*
X35958D01*
X35433Y32151D01*
Y30052D01*
X35958Y29528D01*
X37007D01*
X37532Y30052D01*
X40681Y29528D02*
X38582D01*
X40681Y31627D01*
Y32151D01*
X40156Y32676D01*
X39106D01*
X38582Y32151D01*
X43305Y29528D02*
Y32676D01*
X41730Y31102D01*
X43829D01*
X22967Y98556D02*
X22442Y98031D01*
Y96982D01*
X22967Y96457D01*
X25066D01*
X25591Y96982D01*
Y98031D01*
X25066Y98556D01*
X25591Y101704D02*
Y99605D01*
X23492Y101704D01*
X22967D01*
X22442Y101180D01*
Y100130D01*
X22967Y99605D01*
Y102754D02*
X22442Y103279D01*
Y104328D01*
X22967Y104853D01*
X23492D01*
X24016Y104328D01*
Y103803D01*
Y104328D01*
X24541Y104853D01*
X25066D01*
X25591Y104328D01*
Y103279D01*
X25066Y102754D01*
X75918Y179789D02*
X75393Y180314D01*
X74344D01*
X73819Y179789D01*
Y177690D01*
X74344Y177165D01*
X75393D01*
X75918Y177690D01*
X79067Y177165D02*
X76968D01*
X79067Y179264D01*
Y179789D01*
X78542Y180314D01*
X77492D01*
X76968Y179789D01*
X80116Y177165D02*
X81166D01*
X80641D01*
Y180314D01*
X80116Y179789D01*
X103675Y168438D02*
X103151Y167913D01*
Y166863D01*
X103675Y166339D01*
X105774D01*
X106299Y166863D01*
Y167913D01*
X105774Y168438D01*
X106299Y171586D02*
Y169487D01*
X104200Y171586D01*
X103675D01*
X103151Y171062D01*
Y170012D01*
X103675Y169487D01*
Y172636D02*
X103151Y173161D01*
Y174210D01*
X103675Y174735D01*
X105774D01*
X106299Y174210D01*
Y173161D01*
X105774Y172636D01*
X103675D01*
X86499Y207102D02*
X85974Y207627D01*
X84925D01*
X84400Y207102D01*
Y205003D01*
X84925Y204478D01*
X85974D01*
X86499Y205003D01*
X87549Y204478D02*
X88598D01*
X88073D01*
Y207627D01*
X87549Y207102D01*
X90172Y205003D02*
X90697Y204478D01*
X91747D01*
X92272Y205003D01*
Y207102D01*
X91747Y207627D01*
X90697D01*
X90172Y207102D01*
Y206577D01*
X90697Y206052D01*
X92272D01*
X106430Y186679D02*
X105905Y187204D01*
X104856D01*
X104331Y186679D01*
Y184580D01*
X104856Y184055D01*
X105905D01*
X106430Y184580D01*
X107479Y184055D02*
X108529D01*
X108004D01*
Y187204D01*
X107479Y186679D01*
X110103D02*
X110628Y187204D01*
X111677D01*
X112202Y186679D01*
Y186154D01*
X111677Y185629D01*
X112202Y185105D01*
Y184580D01*
X111677Y184055D01*
X110628D01*
X110103Y184580D01*
Y185105D01*
X110628Y185629D01*
X110103Y186154D01*
Y186679D01*
X110628Y185629D02*
X111677D01*
X123694Y248293D02*
X123169Y248818D01*
X122119D01*
X121595Y248293D01*
Y246194D01*
X122119Y245669D01*
X123169D01*
X123694Y246194D01*
X124743Y245669D02*
X125793D01*
X125268D01*
Y248818D01*
X124743Y248293D01*
X129466Y248818D02*
X128417Y248293D01*
X127367Y247244D01*
Y246194D01*
X127892Y245669D01*
X128941D01*
X129466Y246194D01*
Y246719D01*
X128941Y247244D01*
X127367D01*
X39501Y119750D02*
X38976Y120275D01*
X37926D01*
X37402Y119750D01*
Y117651D01*
X37926Y117126D01*
X38976D01*
X39501Y117651D01*
X40550Y117126D02*
X41600D01*
X41075D01*
Y120275D01*
X40550Y119750D01*
X44748Y117126D02*
Y120275D01*
X43174Y118700D01*
X45273D01*
X42650Y125262D02*
X42125Y125786D01*
X41076D01*
X40551Y125262D01*
Y123163D01*
X41076Y122638D01*
X42125D01*
X42650Y123163D01*
X43700Y122638D02*
X44749D01*
X44225D01*
Y125786D01*
X43700Y125262D01*
X46324D02*
X46848Y125786D01*
X47898D01*
X48423Y125262D01*
Y123163D01*
X47898Y122638D01*
X46848D01*
X46324Y123163D01*
Y125262D01*
X62730Y136646D02*
X62206Y136121D01*
Y135072D01*
X62730Y134547D01*
X64830D01*
X65354Y135072D01*
Y136121D01*
X64830Y136646D01*
X62206Y139795D02*
X62730Y138745D01*
X63780Y137696D01*
X64830D01*
X65354Y138221D01*
Y139270D01*
X64830Y139795D01*
X64305D01*
X63780Y139270D01*
Y137696D01*
X61353Y97571D02*
X60828Y97047D01*
Y95997D01*
X61353Y95472D01*
X63452D01*
X63976Y95997D01*
Y97047D01*
X63452Y97571D01*
X60828Y100720D02*
Y98621D01*
X62402D01*
X61877Y99671D01*
Y100195D01*
X62402Y100720D01*
X63452D01*
X63976Y100195D01*
Y99146D01*
X63452Y98621D01*
D13*
X64961Y25591D02*
X92520D01*
X100394Y36417D02*
Y84646D01*
X57087D02*
X100394D01*
X57087Y36417D02*
Y84646D01*
D14*
X144527Y171221D02*
X144527Y174370D01*
X144527Y164921D02*
X144527Y161772D01*
X156338D02*
Y163740D01*
X158700D01*
Y172402D01*
X156338D02*
X158700D01*
X156338D02*
Y174370D01*
X99606Y234252D02*
X126378D01*
Y243307D01*
X131102D01*
Y250787D01*
X130315D02*
X131102D01*
X99606D02*
X130315D01*
X99606Y234252D02*
Y250787D01*
M02*
