G04*
G04 #@! TF.GenerationSoftware,Altium Limited,Altium Designer,18.1.7 (191)*
G04*
G04 Layer_Physical_Order=2*
G04 Layer_Color=36540*
%FSLAX25Y25*%
%MOIN*%
G70*
G01*
G75*
%ADD35R,0.04134X0.06496*%
%ADD99C,0.21654*%
%ADD100C,0.02756*%
%ADD101C,0.02772*%
%ADD102C,0.03150*%
G36*
X155441Y179898D02*
X153787D01*
Y175650D01*
Y171402D01*
X155441D01*
Y164740D01*
X153787D01*
Y160492D01*
Y156244D01*
X155441D01*
X155441Y2039D01*
X2039Y2039D01*
Y133823D01*
X19882D01*
X20272Y133900D01*
X20603Y134122D01*
X20824Y134452D01*
X20901Y134842D01*
Y193898D01*
X20824Y194288D01*
X20603Y194618D01*
X20272Y194840D01*
X19882Y194917D01*
X2039D01*
Y269614D01*
X37177D01*
X37444Y269114D01*
X37130Y268644D01*
X36946Y267716D01*
X37130Y266788D01*
X37656Y266002D01*
X38442Y265476D01*
X39370Y265291D01*
X40298Y265476D01*
X41084Y266002D01*
X41610Y266788D01*
X41794Y267716D01*
X41610Y268644D01*
X41295Y269114D01*
X41563Y269614D01*
X63725D01*
Y246921D01*
X61827D01*
X61046Y246766D01*
X60385Y246324D01*
X59943Y245662D01*
X59788Y244882D01*
Y239370D01*
X59943Y238590D01*
X60385Y237928D01*
X61046Y237486D01*
X61827Y237331D01*
X63725D01*
Y220473D01*
X63880Y219692D01*
X64322Y219031D01*
X64983Y218589D01*
X65764Y218433D01*
X91748D01*
X92528Y218589D01*
X93190Y219031D01*
X93632Y219692D01*
X93787Y220473D01*
Y237331D01*
X95685D01*
X96465Y237486D01*
X97127Y237928D01*
X97569Y238590D01*
X97724Y239370D01*
Y244882D01*
X97569Y245662D01*
X97127Y246324D01*
X96465Y246766D01*
X95685Y246921D01*
X93787D01*
Y269614D01*
X155441D01*
X155441Y179898D01*
D02*
G37*
%LPC*%
G36*
X105864Y266893D02*
X104937Y266708D01*
X104150Y266183D01*
X103624Y265396D01*
X103440Y264469D01*
X103624Y263541D01*
X104150Y262754D01*
X104937Y262228D01*
X105864Y262044D01*
X106792Y262228D01*
X107579Y262754D01*
X108104Y263541D01*
X108289Y264469D01*
X108104Y265396D01*
X107579Y266183D01*
X106792Y266708D01*
X105864Y266893D01*
D02*
G37*
G36*
X123622Y265417D02*
X122694Y265232D01*
X121908Y264706D01*
X121382Y263920D01*
X121197Y262992D01*
X121382Y262064D01*
X121908Y261278D01*
X122694Y260752D01*
X123622Y260568D01*
X124550Y260752D01*
X125337Y261278D01*
X125862Y262064D01*
X126047Y262992D01*
X125862Y263920D01*
X125337Y264706D01*
X124550Y265232D01*
X123622Y265417D01*
D02*
G37*
G36*
X34252Y261866D02*
X33478Y261712D01*
X32821Y261273D01*
X32383Y260617D01*
X32229Y259842D01*
X32383Y259068D01*
X32821Y258412D01*
X33478Y257973D01*
X34252Y257819D01*
X35026Y257973D01*
X35682Y258412D01*
X36121Y259068D01*
X36275Y259842D01*
X36121Y260617D01*
X35682Y261273D01*
X35026Y261712D01*
X34252Y261866D01*
D02*
G37*
G36*
X142232Y267729D02*
Y256405D01*
X153556D01*
X153450Y257761D01*
X153015Y259572D01*
X152303Y261291D01*
X151330Y262879D01*
X150121Y264294D01*
X148705Y265503D01*
X147118Y266476D01*
X145398Y267188D01*
X143588Y267623D01*
X142232Y267729D01*
D02*
G37*
G36*
X141232D02*
X139876Y267623D01*
X138066Y267188D01*
X136346Y266476D01*
X134759Y265503D01*
X133344Y264294D01*
X132135Y262879D01*
X131162Y261291D01*
X130450Y259572D01*
X130015Y257761D01*
X129908Y256405D01*
X141232D01*
Y267729D01*
D02*
G37*
G36*
X16248D02*
Y256405D01*
X27572D01*
X27465Y257761D01*
X27031Y259572D01*
X26318Y261291D01*
X25346Y262879D01*
X24137Y264294D01*
X22721Y265503D01*
X21134Y266476D01*
X19414Y267188D01*
X17604Y267623D01*
X16248Y267729D01*
D02*
G37*
G36*
X15248D02*
X13892Y267623D01*
X12082Y267188D01*
X10362Y266476D01*
X8775Y265503D01*
X7359Y264294D01*
X6150Y262879D01*
X5178Y261291D01*
X4465Y259572D01*
X4031Y257761D01*
X3924Y256405D01*
X15248D01*
Y267729D01*
D02*
G37*
G36*
X124016Y259511D02*
X123088Y259327D01*
X122301Y258801D01*
X121776Y258014D01*
X121591Y257087D01*
X121776Y256159D01*
X122301Y255372D01*
X123088Y254847D01*
X124016Y254662D01*
X124944Y254847D01*
X125730Y255372D01*
X126256Y256159D01*
X126440Y257087D01*
X126256Y258014D01*
X125730Y258801D01*
X124944Y259327D01*
X124016Y259511D01*
D02*
G37*
G36*
X109843Y254924D02*
X108915Y254740D01*
X108128Y254214D01*
X107603Y253428D01*
X107418Y252500D01*
X107603Y251572D01*
X108128Y250785D01*
X108915Y250260D01*
X109843Y250075D01*
X110770Y250260D01*
X111557Y250785D01*
X112083Y251572D01*
X112267Y252500D01*
X112083Y253428D01*
X111557Y254214D01*
X110770Y254740D01*
X109843Y254924D01*
D02*
G37*
G36*
X120866Y249511D02*
X119938Y249327D01*
X119152Y248801D01*
X118626Y248014D01*
X118442Y247087D01*
X118626Y246159D01*
X119152Y245372D01*
X119938Y244847D01*
X120866Y244662D01*
X121794Y244847D01*
X122581Y245372D01*
X123106Y246159D01*
X123291Y247087D01*
X123106Y248014D01*
X122581Y248801D01*
X121794Y249327D01*
X120866Y249511D01*
D02*
G37*
G36*
X115354D02*
X114427Y249327D01*
X113640Y248801D01*
X113114Y248014D01*
X112930Y247087D01*
X113114Y246159D01*
X113640Y245372D01*
X114427Y244847D01*
X115354Y244662D01*
X116282Y244847D01*
X117069Y245372D01*
X117594Y246159D01*
X117779Y247087D01*
X117594Y248014D01*
X117069Y248801D01*
X116282Y249327D01*
X115354Y249511D01*
D02*
G37*
G36*
X42126D02*
X41198Y249327D01*
X40412Y248801D01*
X39886Y248014D01*
X39702Y247087D01*
X39886Y246159D01*
X40412Y245372D01*
X41198Y244847D01*
X42126Y244662D01*
X43054Y244847D01*
X43840Y245372D01*
X44366Y246159D01*
X44550Y247087D01*
X44366Y248014D01*
X43840Y248801D01*
X43054Y249327D01*
X42126Y249511D01*
D02*
G37*
G36*
X36614D02*
X35686Y249327D01*
X34900Y248801D01*
X34374Y248014D01*
X34190Y247087D01*
X34374Y246159D01*
X34900Y245372D01*
X35686Y244847D01*
X36614Y244662D01*
X37542Y244847D01*
X38329Y245372D01*
X38854Y246159D01*
X39039Y247087D01*
X38854Y248014D01*
X38329Y248801D01*
X37542Y249327D01*
X36614Y249511D01*
D02*
G37*
G36*
X153556Y255405D02*
X142232D01*
Y244081D01*
X143588Y244188D01*
X145398Y244623D01*
X147118Y245335D01*
X148705Y246308D01*
X150121Y247517D01*
X151330Y248932D01*
X152303Y250520D01*
X153015Y252239D01*
X153450Y254050D01*
X153556Y255405D01*
D02*
G37*
G36*
X141232D02*
X129908D01*
X130015Y254050D01*
X130450Y252239D01*
X131162Y250520D01*
X132135Y248932D01*
X133344Y247517D01*
X134759Y246308D01*
X136346Y245335D01*
X138066Y244623D01*
X139876Y244188D01*
X141232Y244081D01*
Y255405D01*
D02*
G37*
G36*
X27572D02*
X16248D01*
Y244081D01*
X17604Y244188D01*
X19414Y244623D01*
X21134Y245335D01*
X22721Y246308D01*
X24137Y247517D01*
X25346Y248932D01*
X26318Y250520D01*
X27031Y252239D01*
X27465Y254050D01*
X27572Y255405D01*
D02*
G37*
G36*
X15248D02*
X3924D01*
X4031Y254050D01*
X4465Y252239D01*
X5178Y250520D01*
X6150Y248932D01*
X7359Y247517D01*
X8775Y246308D01*
X10362Y245335D01*
X12082Y244623D01*
X13892Y244188D01*
X15248Y244081D01*
Y255405D01*
D02*
G37*
G36*
X120866Y243606D02*
X119938Y243421D01*
X119152Y242896D01*
X118626Y242109D01*
X118442Y241181D01*
X118626Y240253D01*
X119152Y239467D01*
X119938Y238941D01*
X120866Y238757D01*
X121794Y238941D01*
X122581Y239467D01*
X123106Y240253D01*
X123291Y241181D01*
X123106Y242109D01*
X122581Y242896D01*
X121794Y243421D01*
X120866Y243606D01*
D02*
G37*
G36*
X115354D02*
X114427Y243421D01*
X113640Y242896D01*
X113114Y242109D01*
X112930Y241181D01*
X113114Y240253D01*
X113640Y239467D01*
X114427Y238941D01*
X115354Y238757D01*
X116282Y238941D01*
X117069Y239467D01*
X117594Y240253D01*
X117779Y241181D01*
X117594Y242109D01*
X117069Y242896D01*
X116282Y243421D01*
X115354Y243606D01*
D02*
G37*
G36*
X42126D02*
X41198Y243421D01*
X40412Y242896D01*
X39886Y242109D01*
X39702Y241181D01*
X39886Y240253D01*
X40412Y239467D01*
X41198Y238941D01*
X42126Y238757D01*
X43054Y238941D01*
X43840Y239467D01*
X44366Y240253D01*
X44550Y241181D01*
X44366Y242109D01*
X43840Y242896D01*
X43054Y243421D01*
X42126Y243606D01*
D02*
G37*
G36*
X36614D02*
X35686Y243421D01*
X34900Y242896D01*
X34374Y242109D01*
X34190Y241181D01*
X34374Y240253D01*
X34900Y239467D01*
X35686Y238941D01*
X36614Y238757D01*
X37542Y238941D01*
X38329Y239467D01*
X38854Y240253D01*
X39039Y241181D01*
X38854Y242109D01*
X38329Y242896D01*
X37542Y243421D01*
X36614Y243606D01*
D02*
G37*
G36*
X120866Y237700D02*
X119938Y237516D01*
X119152Y236990D01*
X118626Y236203D01*
X118442Y235276D01*
X118626Y234348D01*
X119152Y233561D01*
X119938Y233036D01*
X120866Y232851D01*
X121794Y233036D01*
X122581Y233561D01*
X123106Y234348D01*
X123291Y235276D01*
X123106Y236203D01*
X122581Y236990D01*
X121794Y237516D01*
X120866Y237700D01*
D02*
G37*
G36*
X115354D02*
X114427Y237516D01*
X113640Y236990D01*
X113114Y236203D01*
X112930Y235276D01*
X113114Y234348D01*
X113640Y233561D01*
X114427Y233036D01*
X115354Y232851D01*
X116282Y233036D01*
X117069Y233561D01*
X117594Y234348D01*
X117779Y235276D01*
X117594Y236203D01*
X117069Y236990D01*
X116282Y237516D01*
X115354Y237700D01*
D02*
G37*
G36*
X42126D02*
X41198Y237516D01*
X40412Y236990D01*
X39886Y236203D01*
X39702Y235276D01*
X39886Y234348D01*
X40412Y233561D01*
X41198Y233036D01*
X42126Y232851D01*
X43054Y233036D01*
X43840Y233561D01*
X44366Y234348D01*
X44550Y235276D01*
X44366Y236203D01*
X43840Y236990D01*
X43054Y237516D01*
X42126Y237700D01*
D02*
G37*
G36*
X36614D02*
X35686Y237516D01*
X34900Y236990D01*
X34374Y236203D01*
X34190Y235276D01*
X34374Y234348D01*
X34900Y233561D01*
X35686Y233036D01*
X36614Y232851D01*
X37542Y233036D01*
X38329Y233561D01*
X38854Y234348D01*
X39039Y235276D01*
X38854Y236203D01*
X38329Y236990D01*
X37542Y237516D01*
X36614Y237700D01*
D02*
G37*
G36*
X149606Y211854D02*
X148780Y211745D01*
X148010Y211426D01*
X147349Y210919D01*
X146841Y210258D01*
X146522Y209488D01*
X146414Y208661D01*
X146522Y207835D01*
X146841Y207065D01*
X147349Y206404D01*
X148010Y205896D01*
X148780Y205577D01*
X149606Y205469D01*
X150433Y205577D01*
X151203Y205896D01*
X151864Y206404D01*
X152371Y207065D01*
X152690Y207835D01*
X152799Y208661D01*
X152690Y209488D01*
X152371Y210258D01*
X151864Y210919D01*
X151203Y211426D01*
X150433Y211745D01*
X149606Y211854D01*
D02*
G37*
G36*
X133858D02*
X133032Y211745D01*
X132262Y211426D01*
X131601Y210919D01*
X131093Y210258D01*
X130774Y209488D01*
X130666Y208661D01*
X130774Y207835D01*
X131093Y207065D01*
X131601Y206404D01*
X132262Y205896D01*
X133032Y205577D01*
X133858Y205469D01*
X134685Y205577D01*
X135455Y205896D01*
X136116Y206404D01*
X136623Y207065D01*
X136942Y207835D01*
X137051Y208661D01*
X136942Y209488D01*
X136623Y210258D01*
X136116Y210919D01*
X135455Y211426D01*
X134685Y211745D01*
X133858Y211854D01*
D02*
G37*
G36*
X107144Y210102D02*
X106216Y209917D01*
X105429Y209392D01*
X104904Y208605D01*
X104719Y207677D01*
X104904Y206749D01*
X105429Y205963D01*
X106216Y205437D01*
X107144Y205253D01*
X108072Y205437D01*
X108858Y205963D01*
X109384Y206749D01*
X109568Y207677D01*
X109384Y208605D01*
X108858Y209392D01*
X108072Y209917D01*
X107144Y210102D01*
D02*
G37*
G36*
X118110Y198881D02*
X117182Y198697D01*
X116396Y198171D01*
X115870Y197385D01*
X115686Y196457D01*
X115870Y195529D01*
X116396Y194742D01*
X117182Y194217D01*
X118110Y194032D01*
X119038Y194217D01*
X119825Y194742D01*
X120350Y195529D01*
X120535Y196457D01*
X120350Y197385D01*
X119825Y198171D01*
X119038Y198697D01*
X118110Y198881D01*
D02*
G37*
G36*
X109843D02*
X108915Y198697D01*
X108128Y198171D01*
X107603Y197385D01*
X107418Y196457D01*
X107603Y195529D01*
X108128Y194742D01*
X108915Y194217D01*
X109843Y194032D01*
X110770Y194217D01*
X111557Y194742D01*
X112083Y195529D01*
X112267Y196457D01*
X112083Y197385D01*
X111557Y198171D01*
X110770Y198697D01*
X109843Y198881D01*
D02*
G37*
G36*
X47638D02*
X46710Y198697D01*
X45923Y198171D01*
X45398Y197385D01*
X45213Y196457D01*
X45398Y195529D01*
X45923Y194742D01*
X46710Y194217D01*
X47638Y194032D01*
X48566Y194217D01*
X49352Y194742D01*
X49878Y195529D01*
X50062Y196457D01*
X49878Y197385D01*
X49352Y198171D01*
X48566Y198697D01*
X47638Y198881D01*
D02*
G37*
G36*
X77166Y202204D02*
X76494Y202115D01*
X75868Y201856D01*
X75330Y201443D01*
X74917Y200905D01*
X74658Y200279D01*
X74569Y199607D01*
X74658Y198934D01*
X74917Y198308D01*
X75280Y197835D01*
X74917Y197362D01*
X74658Y196736D01*
X74569Y196063D01*
X74658Y195391D01*
X74917Y194765D01*
X75330Y194227D01*
X75868Y193814D01*
X76494Y193555D01*
X77166Y193466D01*
X77839Y193555D01*
X78465Y193814D01*
X79003Y194227D01*
X79416Y194765D01*
X79675Y195391D01*
X79764Y196063D01*
X79675Y196736D01*
X79416Y197362D01*
X79053Y197835D01*
X79416Y198308D01*
X79675Y198934D01*
X79764Y199607D01*
X79675Y200279D01*
X79416Y200905D01*
X79003Y201443D01*
X78465Y201856D01*
X77839Y202115D01*
X77166Y202204D01*
D02*
G37*
G36*
X132677Y196338D02*
X131749Y196154D01*
X130963Y195628D01*
X130437Y194842D01*
X130253Y193914D01*
X130437Y192986D01*
X130963Y192199D01*
X131749Y191674D01*
X132677Y191489D01*
X133605Y191674D01*
X134392Y192199D01*
X134917Y192986D01*
X135102Y193914D01*
X134917Y194842D01*
X134392Y195628D01*
X133605Y196154D01*
X132677Y196338D01*
D02*
G37*
G36*
X47638Y192582D02*
X46710Y192397D01*
X45923Y191872D01*
X45398Y191085D01*
X45213Y190157D01*
X45398Y189230D01*
X45923Y188443D01*
X46710Y187917D01*
X47638Y187733D01*
X48566Y187917D01*
X49352Y188443D01*
X49878Y189230D01*
X50062Y190157D01*
X49878Y191085D01*
X49352Y191872D01*
X48566Y192397D01*
X47638Y192582D01*
D02*
G37*
G36*
X90748Y188251D02*
X89820Y188067D01*
X89034Y187541D01*
X88508Y186755D01*
X88323Y185827D01*
X88508Y184899D01*
X89034Y184112D01*
X89820Y183587D01*
X90748Y183402D01*
X91676Y183587D01*
X92462Y184112D01*
X92988Y184899D01*
X93173Y185827D01*
X92988Y186755D01*
X92462Y187541D01*
X91676Y188067D01*
X90748Y188251D01*
D02*
G37*
G36*
X52756D02*
X51828Y188067D01*
X51042Y187541D01*
X50516Y186755D01*
X50331Y185827D01*
X50516Y184899D01*
X51042Y184112D01*
X51828Y183587D01*
X52756Y183402D01*
X53684Y183587D01*
X54470Y184112D01*
X54996Y184899D01*
X55181Y185827D01*
X54996Y186755D01*
X54470Y187541D01*
X53684Y188067D01*
X52756Y188251D01*
D02*
G37*
G36*
X126378Y186677D02*
X125450Y186492D01*
X124664Y185966D01*
X124138Y185180D01*
X123953Y184252D01*
X124138Y183324D01*
X124664Y182538D01*
X125450Y182012D01*
X126378Y181827D01*
X127306Y182012D01*
X128092Y182538D01*
X128618Y183324D01*
X128803Y184252D01*
X128618Y185180D01*
X128092Y185966D01*
X127306Y186492D01*
X126378Y186677D01*
D02*
G37*
G36*
X47638D02*
X46710Y186492D01*
X45923Y185966D01*
X45398Y185180D01*
X45213Y184252D01*
X45398Y183324D01*
X45923Y182538D01*
X46710Y182012D01*
X47638Y181827D01*
X48566Y182012D01*
X49352Y182538D01*
X49878Y183324D01*
X50062Y184252D01*
X49878Y185180D01*
X49352Y185966D01*
X48566Y186492D01*
X47638Y186677D01*
D02*
G37*
G36*
X39886D02*
X38958Y186492D01*
X38172Y185966D01*
X37646Y185180D01*
X37462Y184252D01*
X37646Y183324D01*
X38172Y182538D01*
X38958Y182012D01*
X39886Y181827D01*
X40814Y182012D01*
X41600Y182538D01*
X42126Y183324D01*
X42311Y184252D01*
X42126Y185180D01*
X41600Y185966D01*
X40814Y186492D01*
X39886Y186677D01*
D02*
G37*
G36*
X31012D02*
X30084Y186492D01*
X29297Y185966D01*
X28772Y185180D01*
X28587Y184252D01*
X28772Y183324D01*
X29297Y182538D01*
X30084Y182012D01*
X31012Y181827D01*
X31940Y182012D01*
X32726Y182538D01*
X33252Y183324D01*
X33436Y184252D01*
X33252Y185180D01*
X32726Y185966D01*
X31940Y186492D01*
X31012Y186677D01*
D02*
G37*
G36*
X101969Y186677D02*
X101041Y186492D01*
X100254Y185966D01*
X99729Y185180D01*
X99544Y184252D01*
X99729Y183324D01*
X100254Y182538D01*
X101041Y182012D01*
X101969Y181827D01*
X102896Y182012D01*
X103683Y182538D01*
X104209Y183324D01*
X104393Y184252D01*
X104209Y185180D01*
X103683Y185966D01*
X102896Y186492D01*
X101969Y186677D01*
D02*
G37*
G36*
X152787Y179898D02*
X150220D01*
Y176150D01*
X152787D01*
Y179898D01*
D02*
G37*
G36*
X129134Y179984D02*
X128206Y179799D01*
X127419Y179273D01*
X126894Y178487D01*
X126709Y177559D01*
X126894Y176631D01*
X127419Y175845D01*
X128206Y175319D01*
X129134Y175135D01*
X130062Y175319D01*
X130848Y175845D01*
X131374Y176631D01*
X131558Y177559D01*
X131374Y178487D01*
X130848Y179273D01*
X130062Y179799D01*
X129134Y179984D01*
D02*
G37*
G36*
X74251Y177425D02*
X73323Y177240D01*
X72536Y176714D01*
X72010Y175928D01*
X71826Y175000D01*
X72010Y174072D01*
X72536Y173286D01*
X73323Y172760D01*
X74251Y172575D01*
X75178Y172760D01*
X75965Y173286D01*
X76490Y174072D01*
X76675Y175000D01*
X76490Y175928D01*
X75965Y176714D01*
X75178Y177240D01*
X74251Y177425D01*
D02*
G37*
G36*
X152787Y175150D02*
X150220D01*
Y171402D01*
X152787D01*
Y175150D01*
D02*
G37*
G36*
X121934Y173842D02*
X121006Y173657D01*
X120219Y173132D01*
X119694Y172345D01*
X119509Y171417D01*
X119694Y170490D01*
X120219Y169703D01*
X121006Y169177D01*
X121934Y168993D01*
X122862Y169177D01*
X123648Y169703D01*
X124174Y170490D01*
X124358Y171417D01*
X124174Y172345D01*
X123648Y173132D01*
X122862Y173657D01*
X121934Y173842D01*
D02*
G37*
G36*
X67913Y175653D02*
X66986Y175468D01*
X66199Y174943D01*
X65673Y174156D01*
X65489Y173228D01*
X65673Y172301D01*
X66199Y171514D01*
X66986Y170988D01*
X67913Y170804D01*
X68113Y170604D01*
X68048Y170276D01*
X68233Y169348D01*
X68758Y168561D01*
X69545Y168036D01*
X70472Y167851D01*
X71400Y168036D01*
X72187Y168561D01*
X72712Y169348D01*
X72897Y170276D01*
X72712Y171203D01*
X72187Y171990D01*
X71400Y172516D01*
X70473Y172700D01*
X70273Y172900D01*
X70338Y173228D01*
X70153Y174156D01*
X69628Y174943D01*
X68841Y175468D01*
X67913Y175653D01*
D02*
G37*
G36*
X104724Y165417D02*
X103797Y165232D01*
X103010Y164707D01*
X102484Y163920D01*
X102328Y163855D01*
X101715Y164264D01*
X100787Y164449D01*
X99860Y164264D01*
X99073Y163739D01*
X98547Y162952D01*
X98363Y162024D01*
X98547Y161097D01*
X99073Y160310D01*
X99860Y159784D01*
X100787Y159600D01*
X101715Y159784D01*
X102502Y160310D01*
X103027Y161097D01*
X103184Y161161D01*
X103797Y160752D01*
X104724Y160568D01*
X105652Y160752D01*
X106439Y161278D01*
X106964Y162064D01*
X107149Y162992D01*
X106964Y163920D01*
X106439Y164707D01*
X105652Y165232D01*
X104724Y165417D01*
D02*
G37*
G36*
X40551Y167779D02*
X39623Y167594D01*
X38837Y167069D01*
X38311Y166282D01*
X38127Y165354D01*
X38311Y164427D01*
X38837Y163640D01*
X39623Y163114D01*
X40551Y162930D01*
X41479Y163114D01*
X42266Y163640D01*
X42785Y163517D01*
X42839Y163245D01*
X43364Y162459D01*
X44151Y161933D01*
X45079Y161749D01*
X46007Y161933D01*
X46793Y162459D01*
X47319Y163245D01*
X47503Y164173D01*
X47319Y165101D01*
X46793Y165888D01*
X46007Y166413D01*
X45079Y166598D01*
X44151Y166413D01*
X43364Y165888D01*
X42845Y166011D01*
X42791Y166282D01*
X42266Y167069D01*
X41479Y167594D01*
X40551Y167779D01*
D02*
G37*
G36*
X152787Y164740D02*
X150220D01*
Y160992D01*
X152787D01*
Y164740D01*
D02*
G37*
G36*
X55118Y175653D02*
X54190Y175468D01*
X53404Y174942D01*
X52878Y174156D01*
X52693Y173228D01*
X52878Y172300D01*
X53335Y171616D01*
X53010Y171399D01*
X52484Y170613D01*
X52300Y169685D01*
X52484Y168757D01*
X53010Y167971D01*
X53797Y167445D01*
X54724Y167261D01*
X55652Y167445D01*
X56439Y167971D01*
X56964Y168757D01*
X56989Y168883D01*
X57499D01*
X57602Y168363D01*
X58128Y167577D01*
X58915Y167051D01*
X59431Y166948D01*
X59830Y166393D01*
X59780Y166142D01*
X59965Y165214D01*
X60490Y164427D01*
X61277Y163902D01*
X61906Y163777D01*
X62222Y163589D01*
X62269Y163233D01*
X62142Y162598D01*
X62327Y161671D01*
X62853Y160884D01*
X63639Y160358D01*
X64567Y160174D01*
X65495Y160358D01*
X66281Y160884D01*
X66807Y161671D01*
X66992Y162598D01*
X66807Y163526D01*
X66281Y164313D01*
X65495Y164838D01*
X64866Y164963D01*
X64550Y165151D01*
X64503Y165507D01*
X64629Y166142D01*
X64445Y167070D01*
X63919Y167856D01*
X63133Y168382D01*
X62616Y168484D01*
X62217Y169040D01*
X62267Y169291D01*
X62082Y170219D01*
X61557Y171005D01*
X60770Y171531D01*
X59842Y171715D01*
X58915Y171531D01*
X58128Y171005D01*
X57602Y170219D01*
X57578Y170094D01*
X57068D01*
X56964Y170613D01*
X56508Y171297D01*
X56832Y171513D01*
X57358Y172300D01*
X57543Y173228D01*
X57358Y174156D01*
X56832Y174942D01*
X56046Y175468D01*
X55118Y175653D01*
D02*
G37*
G36*
X50787Y161480D02*
X49860Y161295D01*
X49073Y160769D01*
X48547Y159983D01*
X48363Y159055D01*
X48547Y158127D01*
X49073Y157341D01*
X49860Y156815D01*
X50787Y156631D01*
X51715Y156815D01*
X52502Y157341D01*
X53027Y158127D01*
X53212Y159055D01*
X53027Y159983D01*
X52502Y160769D01*
X51715Y161295D01*
X50787Y161480D01*
D02*
G37*
G36*
X37008Y163448D02*
X36080Y163264D01*
X35293Y162738D01*
X34768Y161951D01*
X34583Y161024D01*
X34768Y160096D01*
X35293Y159309D01*
X36080Y158784D01*
X37008Y158599D01*
X37936Y158784D01*
X38431Y159115D01*
X38509Y159105D01*
X38952Y158862D01*
X39099Y158127D01*
X39624Y157341D01*
X40411Y156815D01*
X41339Y156631D01*
X42266Y156815D01*
X43053Y157341D01*
X43579Y158127D01*
X43763Y159055D01*
X43579Y159983D01*
X43053Y160769D01*
X42266Y161295D01*
X41339Y161480D01*
X40411Y161295D01*
X39915Y160964D01*
X39837Y160974D01*
X39394Y161217D01*
X39248Y161951D01*
X38722Y162738D01*
X37936Y163264D01*
X37008Y163448D01*
D02*
G37*
G36*
X104943Y158921D02*
X104015Y158736D01*
X103228Y158211D01*
X102703Y157424D01*
X102518Y156496D01*
X102703Y155568D01*
X103228Y154782D01*
X104015Y154256D01*
X104943Y154071D01*
X105870Y154256D01*
X106657Y154782D01*
X107183Y155568D01*
X107367Y156496D01*
X107183Y157424D01*
X106657Y158211D01*
X105870Y158736D01*
X104943Y158921D01*
D02*
G37*
G36*
X66840Y157543D02*
X65913Y157358D01*
X65126Y156833D01*
X64600Y156046D01*
X64416Y155118D01*
X64600Y154190D01*
X65126Y153404D01*
X65913Y152878D01*
X66840Y152694D01*
X67768Y152878D01*
X68555Y153404D01*
X69080Y154190D01*
X69265Y155118D01*
X69080Y156046D01*
X68555Y156833D01*
X67768Y157358D01*
X66840Y157543D01*
D02*
G37*
G36*
X152787Y159992D02*
X150220D01*
Y156646D01*
X150220Y156244D01*
X149799Y156053D01*
X149717Y156037D01*
X148931Y155511D01*
X148405Y154724D01*
X148221Y153797D01*
X148405Y152869D01*
X148931Y152082D01*
X149717Y151557D01*
X150645Y151372D01*
X151573Y151557D01*
X152360Y152082D01*
X152885Y152869D01*
X153070Y153797D01*
X152885Y154724D01*
X152360Y155511D01*
X152011Y155744D01*
X152163Y156244D01*
X152787D01*
Y159992D01*
D02*
G37*
G36*
X40945Y155180D02*
X40017Y154996D01*
X39230Y154470D01*
X38705Y153684D01*
X38520Y152756D01*
X38705Y151828D01*
X39230Y151041D01*
X40017Y150516D01*
X40945Y150331D01*
X41873Y150516D01*
X42659Y151041D01*
X43185Y151828D01*
X43369Y152756D01*
X43185Y153684D01*
X42659Y154470D01*
X41873Y154996D01*
X40945Y155180D01*
D02*
G37*
G36*
X136614Y153842D02*
X135686Y153657D01*
X134900Y153132D01*
X134374Y152345D01*
X134190Y151417D01*
X134374Y150489D01*
X134900Y149703D01*
X135686Y149177D01*
X136614Y148993D01*
X137542Y149177D01*
X138329Y149703D01*
X138854Y150489D01*
X139039Y151417D01*
X138854Y152345D01*
X138329Y153132D01*
X137542Y153657D01*
X136614Y153842D01*
D02*
G37*
G36*
X83071Y148487D02*
X82143Y148303D01*
X81357Y147777D01*
X80831Y146991D01*
X80720Y146945D01*
X80455Y147122D01*
X79528Y147306D01*
X78600Y147122D01*
X77813Y146596D01*
X77288Y145810D01*
X77103Y144882D01*
X77288Y143954D01*
X77813Y143167D01*
X78600Y142642D01*
X79528Y142457D01*
X80455Y142642D01*
X81242Y143167D01*
X81768Y143954D01*
X82114Y143842D01*
X82143Y143823D01*
X83071Y143638D01*
X83999Y143823D01*
X84785Y144349D01*
X85311Y145135D01*
X85495Y146063D01*
X85311Y146991D01*
X84785Y147777D01*
X83999Y148303D01*
X83071Y148487D01*
D02*
G37*
G36*
X72640Y150062D02*
X71712Y149878D01*
X70925Y149352D01*
X70400Y148566D01*
X70215Y147638D01*
X70400Y146710D01*
X70925Y145923D01*
X71712Y145398D01*
X72640Y145213D01*
X73568Y145398D01*
X74354Y145923D01*
X74880Y146710D01*
X75064Y147638D01*
X74880Y148566D01*
X74354Y149352D01*
X73568Y149878D01*
X72640Y150062D01*
D02*
G37*
G36*
X107480Y148487D02*
X106553Y148303D01*
X105766Y147777D01*
X105240Y146991D01*
X105056Y146063D01*
X105240Y145135D01*
X105766Y144349D01*
X106553Y143823D01*
X107480Y143638D01*
X108408Y143823D01*
X109195Y144349D01*
X109213Y144377D01*
X109815D01*
X110097Y143955D01*
X110883Y143429D01*
X111811Y143245D01*
X112739Y143429D01*
X113525Y143955D01*
X114051Y144741D01*
X114236Y145669D01*
X114051Y146597D01*
X113525Y147384D01*
X112739Y147909D01*
X111811Y148094D01*
X110883Y147909D01*
X110097Y147384D01*
X110078Y147356D01*
X109476D01*
X109195Y147777D01*
X108408Y148303D01*
X107480Y148487D01*
D02*
G37*
G36*
X93465Y147444D02*
X92537Y147260D01*
X91750Y146734D01*
X91225Y145948D01*
X91040Y145020D01*
X91225Y144092D01*
X91750Y143305D01*
X92537Y142780D01*
X93465Y142595D01*
X94392Y142780D01*
X95179Y143305D01*
X95705Y144092D01*
X95889Y145020D01*
X95705Y145948D01*
X95179Y146734D01*
X94392Y147260D01*
X93465Y147444D01*
D02*
G37*
G36*
X49608Y139404D02*
X48936Y139315D01*
X48310Y139056D01*
X47772Y138643D01*
X47359Y138105D01*
X47100Y137479D01*
X47011Y136807D01*
X47100Y136135D01*
X47359Y135508D01*
X47772Y134971D01*
X48310Y134558D01*
X48936Y134298D01*
X49608Y134210D01*
X50280Y134298D01*
X50907Y134558D01*
X51445Y134971D01*
X51857Y135508D01*
X52117Y136135D01*
X52205Y136807D01*
X52117Y137479D01*
X51857Y138105D01*
X51445Y138643D01*
X50907Y139056D01*
X50280Y139315D01*
X49608Y139404D01*
D02*
G37*
G36*
X76772Y133724D02*
X75844Y133539D01*
X75057Y133014D01*
X74532Y132227D01*
X74347Y131299D01*
X74532Y130371D01*
X75057Y129585D01*
X75844Y129059D01*
X76772Y128875D01*
X77700Y129059D01*
X78486Y129585D01*
X79012Y130371D01*
X79196Y131299D01*
X79012Y132227D01*
X78486Y133014D01*
X77700Y133539D01*
X76772Y133724D01*
D02*
G37*
G36*
X70276D02*
X69348Y133539D01*
X68561Y133014D01*
X68036Y132227D01*
X67851Y131299D01*
X68036Y130371D01*
X68561Y129585D01*
X69348Y129059D01*
X70276Y128875D01*
X71203Y129059D01*
X71990Y129585D01*
X72516Y130371D01*
X72700Y131299D01*
X72516Y132227D01*
X71990Y133014D01*
X71203Y133539D01*
X70276Y133724D01*
D02*
G37*
G36*
X109449Y132346D02*
X108521Y132161D01*
X107734Y131636D01*
X107209Y130849D01*
X107024Y129921D01*
X107209Y128993D01*
X107734Y128207D01*
X108521Y127681D01*
X109449Y127497D01*
X110377Y127681D01*
X111163Y128207D01*
X111689Y128993D01*
X111873Y129921D01*
X111689Y130849D01*
X111163Y131636D01*
X110377Y132161D01*
X109449Y132346D01*
D02*
G37*
G36*
X25528Y128704D02*
X24600Y128519D01*
X23813Y127994D01*
X23288Y127207D01*
X23103Y126279D01*
X23288Y125352D01*
X23813Y124565D01*
X24600Y124040D01*
X25528Y123855D01*
X26455Y124040D01*
X27242Y124565D01*
X27768Y125352D01*
X27952Y126279D01*
X27768Y127207D01*
X27242Y127994D01*
X26455Y128519D01*
X25528Y128704D01*
D02*
G37*
G36*
X121653Y126047D02*
X120726Y125862D01*
X119939Y125336D01*
X119414Y124550D01*
X119229Y123622D01*
X119414Y122694D01*
X119939Y121908D01*
X120726Y121382D01*
X121653Y121197D01*
X122581Y121382D01*
X123368Y121908D01*
X123893Y122694D01*
X124078Y123622D01*
X123893Y124550D01*
X123368Y125336D01*
X122581Y125862D01*
X121653Y126047D01*
D02*
G37*
G36*
X136221Y123684D02*
X135293Y123500D01*
X134506Y122974D01*
X133981Y122188D01*
X133796Y121260D01*
X133981Y120332D01*
X134506Y119545D01*
X135293Y119020D01*
X136221Y118835D01*
X137148Y119020D01*
X137935Y119545D01*
X138461Y120332D01*
X138645Y121260D01*
X138461Y122188D01*
X137935Y122974D01*
X137148Y123500D01*
X136221Y123684D01*
D02*
G37*
G36*
X101181Y124472D02*
X100253Y124287D01*
X99467Y123762D01*
X98941Y122975D01*
X98757Y122047D01*
X98941Y121119D01*
X99467Y120333D01*
X100253Y119807D01*
X101181Y119623D01*
X102109Y119807D01*
X102895Y120333D01*
X103290Y120923D01*
X103821Y120818D01*
X103941Y120214D01*
X104467Y119427D01*
X105253Y118902D01*
X106181Y118717D01*
X107109Y118902D01*
X107896Y119427D01*
X108421Y120214D01*
X108606Y121142D01*
X108421Y122070D01*
X107896Y122856D01*
X107109Y123382D01*
X106181Y123566D01*
X105253Y123382D01*
X104467Y122856D01*
X104072Y122266D01*
X103541Y122371D01*
X103421Y122975D01*
X102895Y123762D01*
X102109Y124287D01*
X101181Y124472D01*
D02*
G37*
G36*
X122547Y118460D02*
X121619Y118275D01*
X120833Y117750D01*
X120307Y116963D01*
X120123Y116035D01*
X120307Y115108D01*
X120833Y114321D01*
X121619Y113795D01*
X122547Y113611D01*
X123475Y113795D01*
X124262Y114321D01*
X124787Y115108D01*
X124972Y116035D01*
X124787Y116963D01*
X124262Y117750D01*
X123475Y118275D01*
X122547Y118460D01*
D02*
G37*
G36*
X25429Y117484D02*
X24501Y117299D01*
X23715Y116773D01*
X23189Y115987D01*
X23005Y115059D01*
X23189Y114131D01*
X23715Y113345D01*
X24501Y112819D01*
X25429Y112635D01*
X26357Y112819D01*
X27144Y113345D01*
X27669Y114131D01*
X27854Y115059D01*
X27669Y115987D01*
X27144Y116773D01*
X26357Y117299D01*
X25429Y117484D01*
D02*
G37*
G36*
X65945Y120535D02*
X65017Y120350D01*
X64231Y119825D01*
X63705Y119038D01*
X63520Y118110D01*
X63705Y117182D01*
X64231Y116396D01*
X64237Y116392D01*
Y115892D01*
X64231Y115888D01*
X63705Y115101D01*
X63520Y114173D01*
X63705Y113245D01*
X64231Y112459D01*
X65017Y111933D01*
X65945Y111749D01*
X66873Y111933D01*
X67659Y112459D01*
X68185Y113245D01*
X68369Y114173D01*
X68185Y115101D01*
X67659Y115888D01*
X67653Y115892D01*
Y116392D01*
X67659Y116396D01*
X68185Y117182D01*
X68369Y118110D01*
X68185Y119038D01*
X67659Y119825D01*
X66873Y120350D01*
X65945Y120535D01*
D02*
G37*
G36*
Y110692D02*
X65017Y110508D01*
X64231Y109982D01*
X63972Y109596D01*
X63357Y109575D01*
X63254Y109710D01*
X62716Y110123D01*
X62090Y110382D01*
X61417Y110471D01*
X60745Y110382D01*
X60119Y110123D01*
X59581Y109710D01*
X59168Y109172D01*
X58909Y108546D01*
X58820Y107874D01*
X58909Y107202D01*
X59168Y106576D01*
X59581Y106038D01*
X60119Y105625D01*
X60745Y105366D01*
X61417Y105277D01*
X62090Y105366D01*
X62716Y105625D01*
X63254Y106038D01*
X63639Y106539D01*
X63779Y106603D01*
X64171Y106642D01*
X64231Y106553D01*
X65017Y106028D01*
X65945Y105843D01*
X66873Y106028D01*
X67659Y106553D01*
X68185Y107340D01*
X68369Y108268D01*
X68185Y109196D01*
X67659Y109982D01*
X66873Y110508D01*
X65945Y110692D01*
D02*
G37*
G36*
X25000Y110102D02*
X24072Y109917D01*
X23425Y109485D01*
X22778Y109917D01*
X21850Y110102D01*
X20923Y109917D01*
X20136Y109392D01*
X19610Y108605D01*
X19426Y107677D01*
X19610Y106749D01*
X20136Y105963D01*
X20923Y105437D01*
X21850Y105253D01*
X22778Y105437D01*
X23425Y105869D01*
X24072Y105437D01*
X25000Y105253D01*
X25928Y105437D01*
X26714Y105963D01*
X27240Y106749D01*
X27424Y107677D01*
X27240Y108605D01*
X26714Y109392D01*
X25928Y109917D01*
X25000Y110102D01*
D02*
G37*
G36*
X101575Y112661D02*
X100647Y112476D01*
X99860Y111951D01*
X99335Y111164D01*
X99150Y110236D01*
X99335Y109308D01*
X99860Y108522D01*
X100647Y107996D01*
X101575Y107812D01*
X102503Y107996D01*
X103289Y108522D01*
X103815Y109308D01*
X103999Y110236D01*
X103815Y111164D01*
X103289Y111951D01*
X102503Y112476D01*
X101575Y112661D01*
D02*
G37*
G36*
X137244Y108566D02*
X136316Y108382D01*
X135530Y107856D01*
X135004Y107070D01*
X134820Y106142D01*
X135004Y105214D01*
X135530Y104427D01*
X136316Y103902D01*
X137244Y103717D01*
X138172Y103902D01*
X138959Y104427D01*
X139484Y105214D01*
X139669Y106142D01*
X139484Y107070D01*
X138959Y107856D01*
X138172Y108382D01*
X137244Y108566D01*
D02*
G37*
G36*
X101575Y104787D02*
X100647Y104602D01*
X99860Y104077D01*
X99335Y103290D01*
X99150Y102362D01*
X99335Y101434D01*
X99860Y100648D01*
X100647Y100122D01*
X101575Y99938D01*
X102503Y100122D01*
X103289Y100648D01*
X103815Y101434D01*
X103999Y102362D01*
X103815Y103290D01*
X103289Y104077D01*
X102503Y104602D01*
X101575Y104787D01*
D02*
G37*
G36*
X119685Y98488D02*
X118757Y98303D01*
X117971Y97777D01*
X117445Y96991D01*
X117261Y96063D01*
X117445Y95135D01*
X117971Y94349D01*
X118757Y93823D01*
X119685Y93638D01*
X120613Y93823D01*
X121399Y94349D01*
X121925Y95135D01*
X122110Y96063D01*
X121925Y96991D01*
X121399Y97777D01*
X120613Y98303D01*
X119685Y98488D01*
D02*
G37*
G36*
X33613Y97663D02*
X32685Y97478D01*
X31899Y96953D01*
X31373Y96166D01*
X31189Y95239D01*
X31373Y94311D01*
X31899Y93524D01*
X32685Y92998D01*
X33613Y92814D01*
X34541Y92998D01*
X35328Y93524D01*
X35853Y94311D01*
X36038Y95239D01*
X35853Y96166D01*
X35328Y96953D01*
X34541Y97478D01*
X33613Y97663D01*
D02*
G37*
G36*
X66840Y95192D02*
X65913Y95007D01*
X65126Y94481D01*
X64600Y93695D01*
X64416Y92767D01*
X64600Y91839D01*
X65126Y91053D01*
X65913Y90527D01*
X66840Y90342D01*
X67768Y90527D01*
X68555Y91053D01*
X69080Y91839D01*
X69265Y92767D01*
X69080Y93695D01*
X68555Y94481D01*
X67768Y95007D01*
X66840Y95192D01*
D02*
G37*
G36*
X119685Y91629D02*
X118757Y91445D01*
X117971Y90919D01*
X117542Y90277D01*
X117077Y90217D01*
X116963Y90243D01*
X116664Y90691D01*
X115878Y91216D01*
X114950Y91401D01*
X114022Y91216D01*
X113235Y90691D01*
X112710Y89904D01*
X112525Y88976D01*
X112710Y88049D01*
X113235Y87262D01*
X114022Y86736D01*
X114950Y86552D01*
X115878Y86736D01*
X116664Y87262D01*
X117093Y87904D01*
X117558Y87964D01*
X117672Y87938D01*
X117971Y87490D01*
X118757Y86965D01*
X119685Y86780D01*
X120613Y86965D01*
X121399Y87490D01*
X121925Y88277D01*
X122110Y89205D01*
X121925Y90133D01*
X121399Y90919D01*
X120613Y91445D01*
X119685Y91629D01*
D02*
G37*
G36*
X125984Y91401D02*
X125056Y91216D01*
X124270Y90691D01*
X123744Y89904D01*
X123560Y88976D01*
X123744Y88049D01*
X124270Y87262D01*
X125056Y86736D01*
X125984Y86552D01*
X126912Y86736D01*
X127699Y87262D01*
X128224Y88049D01*
X128409Y88976D01*
X128224Y89904D01*
X127699Y90691D01*
X126912Y91216D01*
X125984Y91401D01*
D02*
G37*
G36*
X20596Y89842D02*
X19668Y89657D01*
X18881Y89132D01*
X18356Y88345D01*
X18171Y87417D01*
X18356Y86489D01*
X18881Y85703D01*
X19668Y85177D01*
X20596Y84993D01*
X21524Y85177D01*
X22310Y85703D01*
X22836Y86489D01*
X23020Y87417D01*
X22836Y88345D01*
X22310Y89132D01*
X21524Y89657D01*
X20596Y89842D01*
D02*
G37*
G36*
X72835Y80377D02*
X71907Y80193D01*
X71120Y79667D01*
X70595Y78881D01*
X70410Y77953D01*
X70595Y77025D01*
X71120Y76238D01*
X71907Y75713D01*
X72835Y75528D01*
X73763Y75713D01*
X74549Y76238D01*
X75075Y77025D01*
X75259Y77953D01*
X75075Y78881D01*
X74549Y79667D01*
X73763Y80193D01*
X72835Y80377D01*
D02*
G37*
G36*
X78756Y80291D02*
X77828Y80106D01*
X77042Y79581D01*
X76516Y78794D01*
X76331Y77866D01*
X76516Y76938D01*
X77042Y76152D01*
X77828Y75626D01*
X78756Y75442D01*
X79684Y75626D01*
X80470Y76152D01*
X80996Y76938D01*
X81180Y77866D01*
X80996Y78794D01*
X80470Y79581D01*
X79684Y80106D01*
X78756Y80291D01*
D02*
G37*
G36*
X126378Y79196D02*
X125450Y79012D01*
X124664Y78486D01*
X124138Y77700D01*
X123953Y76772D01*
X124138Y75844D01*
X124664Y75057D01*
X125450Y74532D01*
X126378Y74347D01*
X127306Y74532D01*
X128092Y75057D01*
X128618Y75844D01*
X128803Y76772D01*
X128618Y77700D01*
X128092Y78486D01*
X127306Y79012D01*
X126378Y79196D01*
D02*
G37*
G36*
X118110D02*
X117182Y79012D01*
X116396Y78486D01*
X115870Y77700D01*
X115686Y76772D01*
X115870Y75844D01*
X116396Y75057D01*
X117182Y74532D01*
X118110Y74347D01*
X119038Y74532D01*
X119825Y75057D01*
X120350Y75844D01*
X120535Y76772D01*
X120350Y77700D01*
X119825Y78486D01*
X119038Y79012D01*
X118110Y79196D01*
D02*
G37*
G36*
X109843D02*
X108915Y79012D01*
X108128Y78486D01*
X107603Y77700D01*
X107418Y76772D01*
X107603Y75844D01*
X108128Y75057D01*
X108915Y74532D01*
X109843Y74347D01*
X110770Y74532D01*
X111557Y75057D01*
X112083Y75844D01*
X112267Y76772D01*
X112083Y77700D01*
X111557Y78486D01*
X110770Y79012D01*
X109843Y79196D01*
D02*
G37*
G36*
X126378Y73291D02*
X125450Y73106D01*
X124664Y72581D01*
X124138Y71794D01*
X123953Y70866D01*
X124138Y69938D01*
X124664Y69152D01*
X125450Y68626D01*
X126378Y68442D01*
X127306Y68626D01*
X128092Y69152D01*
X128618Y69938D01*
X128803Y70866D01*
X128618Y71794D01*
X128092Y72581D01*
X127306Y73106D01*
X126378Y73291D01*
D02*
G37*
G36*
X109843D02*
X108915Y73106D01*
X108128Y72581D01*
X107603Y71794D01*
X107418Y70866D01*
X107603Y69938D01*
X108128Y69152D01*
X108915Y68626D01*
X109843Y68442D01*
X110770Y68626D01*
X111557Y69152D01*
X112083Y69938D01*
X112267Y70866D01*
X112083Y71794D01*
X111557Y72581D01*
X110770Y73106D01*
X109843Y73291D01*
D02*
G37*
G36*
X55512Y77228D02*
X54584Y77043D01*
X53797Y76517D01*
X53272Y75731D01*
X53087Y74803D01*
X53272Y73875D01*
X53797Y73089D01*
X53803Y73085D01*
Y72585D01*
X53797Y72581D01*
X53272Y71794D01*
X53087Y70866D01*
X53272Y69938D01*
X53797Y69152D01*
X54584Y68626D01*
X55512Y68442D01*
X56440Y68626D01*
X57226Y69152D01*
X57752Y69938D01*
X57936Y70866D01*
X57752Y71794D01*
X57226Y72581D01*
X57220Y72585D01*
Y73085D01*
X57226Y73089D01*
X57752Y73875D01*
X57936Y74803D01*
X57752Y75731D01*
X57226Y76517D01*
X56440Y77043D01*
X55512Y77228D01*
D02*
G37*
G36*
X126378Y67385D02*
X125450Y67201D01*
X124664Y66675D01*
X124138Y65889D01*
X123953Y64961D01*
X124138Y64033D01*
X124664Y63246D01*
X125450Y62721D01*
X126378Y62536D01*
X127306Y62721D01*
X128092Y63246D01*
X128618Y64033D01*
X128803Y64961D01*
X128618Y65889D01*
X128092Y66675D01*
X127306Y67201D01*
X126378Y67385D01*
D02*
G37*
G36*
X118110D02*
X117182Y67201D01*
X116396Y66675D01*
X115870Y65889D01*
X115686Y64961D01*
X115870Y64033D01*
X116396Y63246D01*
X117182Y62721D01*
X118110Y62536D01*
X119038Y62721D01*
X119825Y63246D01*
X120350Y64033D01*
X120535Y64961D01*
X120350Y65889D01*
X119825Y66675D01*
X119038Y67201D01*
X118110Y67385D01*
D02*
G37*
G36*
X109843D02*
X108915Y67201D01*
X108128Y66675D01*
X107603Y65889D01*
X107418Y64961D01*
X107603Y64033D01*
X108128Y63246D01*
X108915Y62721D01*
X109843Y62536D01*
X110770Y62721D01*
X111557Y63246D01*
X112083Y64033D01*
X112267Y64961D01*
X112083Y65889D01*
X111557Y66675D01*
X110770Y67201D01*
X109843Y67385D01*
D02*
G37*
G36*
X67716D02*
X66789Y67201D01*
X66002Y66675D01*
X65477Y65889D01*
X65292Y64961D01*
X65477Y64033D01*
X66002Y63246D01*
X66789Y62721D01*
X67716Y62536D01*
X68644Y62721D01*
X69431Y63246D01*
X69956Y64033D01*
X70141Y64961D01*
X69956Y65889D01*
X69431Y66675D01*
X68644Y67201D01*
X67716Y67385D01*
D02*
G37*
G36*
X109259Y58109D02*
X108587Y58020D01*
X107961Y57761D01*
X107653Y57525D01*
X107291Y57395D01*
X106928Y57525D01*
X106621Y57761D01*
X105994Y58020D01*
X105322Y58109D01*
X104650Y58020D01*
X104024Y57761D01*
X103486Y57348D01*
X103073Y56810D01*
X102814Y56184D01*
X102725Y55512D01*
X102814Y54840D01*
X103073Y54213D01*
X103486Y53675D01*
X104024Y53263D01*
X104650Y53003D01*
X105322Y52915D01*
X105994Y53003D01*
X106621Y53263D01*
X106928Y53499D01*
X107291Y53628D01*
X107653Y53499D01*
X107961Y53263D01*
X108587Y53003D01*
X109259Y52915D01*
X109932Y53003D01*
X110558Y53263D01*
X111096Y53675D01*
X111509Y54213D01*
X111768Y54840D01*
X111856Y55512D01*
X111768Y56184D01*
X111509Y56810D01*
X111096Y57348D01*
X110558Y57761D01*
X109932Y58020D01*
X109259Y58109D01*
D02*
G37*
G36*
X47244Y34093D02*
X46572Y34005D01*
X45946Y33745D01*
X45638Y33509D01*
X45276Y33380D01*
X44913Y33509D01*
X44606Y33745D01*
X43979Y34005D01*
X43307Y34093D01*
X42635Y34005D01*
X42009Y33745D01*
X41471Y33332D01*
X41058Y32795D01*
X40799Y32168D01*
X40710Y31496D01*
X40799Y30824D01*
X41058Y30198D01*
X41471Y29660D01*
X42009Y29247D01*
X42635Y28988D01*
X43307Y28899D01*
X43979Y28988D01*
X44606Y29247D01*
X44913Y29483D01*
X45276Y29612D01*
X45638Y29483D01*
X45946Y29247D01*
X46572Y28988D01*
X47244Y28899D01*
X47916Y28988D01*
X48543Y29247D01*
X49081Y29660D01*
X49493Y30198D01*
X49753Y30824D01*
X49841Y31496D01*
X49753Y32168D01*
X49493Y32795D01*
X49081Y33332D01*
X48543Y33745D01*
X47916Y34005D01*
X47244Y34093D01*
D02*
G37*
G36*
X120866Y28409D02*
X119938Y28224D01*
X119152Y27699D01*
X118626Y26912D01*
X118442Y25984D01*
X118626Y25056D01*
X119152Y24270D01*
X119938Y23744D01*
X120866Y23560D01*
X121794Y23744D01*
X122581Y24270D01*
X123106Y25056D01*
X123291Y25984D01*
X123106Y26912D01*
X122581Y27699D01*
X121794Y28224D01*
X120866Y28409D01*
D02*
G37*
G36*
X115354D02*
X114427Y28224D01*
X113640Y27699D01*
X113114Y26912D01*
X112930Y25984D01*
X113114Y25056D01*
X113640Y24270D01*
X114427Y23744D01*
X115354Y23560D01*
X116282Y23744D01*
X117069Y24270D01*
X117594Y25056D01*
X117779Y25984D01*
X117594Y26912D01*
X117069Y27699D01*
X116282Y28224D01*
X115354Y28409D01*
D02*
G37*
G36*
X120866Y22503D02*
X119938Y22319D01*
X119152Y21793D01*
X118626Y21007D01*
X118442Y20079D01*
X118626Y19151D01*
X119152Y18364D01*
X119938Y17839D01*
X120866Y17654D01*
X121794Y17839D01*
X122581Y18364D01*
X123106Y19151D01*
X123291Y20079D01*
X123106Y21007D01*
X122581Y21793D01*
X121794Y22319D01*
X120866Y22503D01*
D02*
G37*
G36*
X115354D02*
X114427Y22319D01*
X113640Y21793D01*
X113114Y21007D01*
X112930Y20079D01*
X113114Y19151D01*
X113640Y18364D01*
X114427Y17839D01*
X115354Y17654D01*
X116282Y17839D01*
X117069Y18364D01*
X117594Y19151D01*
X117779Y20079D01*
X117594Y21007D01*
X117069Y21793D01*
X116282Y22319D01*
X115354Y22503D01*
D02*
G37*
G36*
X142232Y27572D02*
Y16248D01*
X153556D01*
X153450Y17604D01*
X153015Y19414D01*
X152303Y21134D01*
X151330Y22721D01*
X150121Y24137D01*
X148705Y25346D01*
X147118Y26318D01*
X145398Y27031D01*
X143588Y27465D01*
X142232Y27572D01*
D02*
G37*
G36*
X141232D02*
X139876Y27465D01*
X138066Y27031D01*
X136346Y26318D01*
X134759Y25346D01*
X133344Y24137D01*
X132135Y22721D01*
X131162Y21134D01*
X130450Y19414D01*
X130015Y17604D01*
X129908Y16248D01*
X141232D01*
Y27572D01*
D02*
G37*
G36*
X16248D02*
Y16248D01*
X27572D01*
X27465Y17604D01*
X27031Y19414D01*
X26318Y21134D01*
X25346Y22721D01*
X24137Y24137D01*
X22721Y25346D01*
X21134Y26318D01*
X19414Y27031D01*
X17604Y27465D01*
X16248Y27572D01*
D02*
G37*
G36*
X15248D02*
X13892Y27465D01*
X12082Y27031D01*
X10362Y26318D01*
X8775Y25346D01*
X7359Y24137D01*
X6150Y22721D01*
X5178Y21134D01*
X4465Y19414D01*
X4031Y17604D01*
X3924Y16248D01*
X15248D01*
Y27572D01*
D02*
G37*
G36*
X120866Y16598D02*
X119938Y16413D01*
X119152Y15888D01*
X118626Y15101D01*
X118442Y14173D01*
X118626Y13245D01*
X119152Y12459D01*
X119938Y11933D01*
X120866Y11749D01*
X121794Y11933D01*
X122581Y12459D01*
X123106Y13245D01*
X123291Y14173D01*
X123106Y15101D01*
X122581Y15888D01*
X121794Y16413D01*
X120866Y16598D01*
D02*
G37*
G36*
X115354D02*
X114427Y16413D01*
X113640Y15888D01*
X113114Y15101D01*
X112930Y14173D01*
X113114Y13245D01*
X113640Y12459D01*
X114427Y11933D01*
X115354Y11749D01*
X116282Y11933D01*
X117069Y12459D01*
X117594Y13245D01*
X117779Y14173D01*
X117594Y15101D01*
X117069Y15888D01*
X116282Y16413D01*
X115354Y16598D01*
D02*
G37*
G36*
X153556Y15248D02*
X142232D01*
Y3924D01*
X143588Y4031D01*
X145398Y4465D01*
X147118Y5178D01*
X148705Y6150D01*
X150121Y7359D01*
X151330Y8775D01*
X152303Y10362D01*
X153015Y12082D01*
X153450Y13892D01*
X153556Y15248D01*
D02*
G37*
G36*
X141232D02*
X129908D01*
X130015Y13892D01*
X130450Y12082D01*
X131162Y10362D01*
X132135Y8775D01*
X133344Y7359D01*
X134759Y6150D01*
X136346Y5178D01*
X138066Y4465D01*
X139876Y4031D01*
X141232Y3924D01*
Y15248D01*
D02*
G37*
G36*
X27572D02*
X16248D01*
Y3924D01*
X17604Y4031D01*
X19414Y4465D01*
X21134Y5178D01*
X22721Y6150D01*
X24137Y7359D01*
X25346Y8775D01*
X26318Y10362D01*
X27031Y12082D01*
X27465Y13892D01*
X27572Y15248D01*
D02*
G37*
G36*
X15248D02*
X3924D01*
X4031Y13892D01*
X4465Y12082D01*
X5178Y10362D01*
X6150Y8775D01*
X7359Y7359D01*
X8775Y6150D01*
X10362Y5178D01*
X12082Y4465D01*
X13892Y4031D01*
X15248Y3924D01*
Y15248D01*
D02*
G37*
%LPD*%
D35*
X153287Y175650D02*
D03*
Y160492D02*
D03*
D99*
X141732Y15748D02*
D03*
X15748D02*
D03*
Y255906D02*
D03*
X141732D02*
D03*
D100*
X93465Y145020D02*
D03*
X60236Y251181D02*
D03*
X39886Y184252D02*
D03*
X31012D02*
D03*
X152362Y98819D02*
D03*
X116374Y214961D02*
D03*
X134759Y177107D02*
D03*
X139554Y142913D02*
D03*
X102362Y97319D02*
D03*
X64328Y130371D02*
D03*
X20079Y101575D02*
D03*
X32283Y115059D02*
D03*
X146063Y240551D02*
D03*
X150984Y73228D02*
D03*
X146063Y63386D02*
D03*
X150984Y53543D02*
D03*
X136221Y220866D02*
D03*
X126378Y4331D02*
D03*
X121457Y230709D02*
D03*
X116535Y201181D02*
D03*
Y4331D02*
D03*
X106693D02*
D03*
X96850Y220866D02*
D03*
Y201181D02*
D03*
Y43701D02*
D03*
Y4331D02*
D03*
X87008Y43701D02*
D03*
Y4331D02*
D03*
X77165Y43701D02*
D03*
Y4331D02*
D03*
X67323Y43701D02*
D03*
Y4331D02*
D03*
X57480D02*
D03*
X47638Y240551D02*
D03*
X52559Y211024D02*
D03*
Y151969D02*
D03*
X47638Y4331D02*
D03*
X37795Y122441D02*
D03*
Y4331D02*
D03*
X27953Y240551D02*
D03*
Y161811D02*
D03*
Y24016D02*
D03*
Y4331D02*
D03*
X23031Y171653D02*
D03*
Y151969D02*
D03*
X18110Y43701D02*
D03*
X23031Y33858D02*
D03*
X8268Y220866D02*
D03*
Y201181D02*
D03*
X13189Y132283D02*
D03*
X8268Y122441D02*
D03*
Y102756D02*
D03*
Y83071D02*
D03*
Y63386D02*
D03*
X13189Y53543D02*
D03*
X8268Y43701D02*
D03*
Y4331D02*
D03*
X39370Y267716D02*
D03*
X90551Y181102D02*
D03*
X150645Y153797D02*
D03*
X107144Y207677D02*
D03*
X90748Y185827D02*
D03*
X132677Y193914D02*
D03*
X33613Y95239D02*
D03*
X43114Y123031D02*
D03*
X20472Y92913D02*
D03*
X66840Y92767D02*
D03*
X105864Y264469D02*
D03*
X24600Y146063D02*
D03*
X25000Y176378D02*
D03*
X48860Y147244D02*
D03*
X90390Y90417D02*
D03*
X98583Y81201D02*
D03*
X121934Y171417D02*
D03*
X42126Y14173D02*
D03*
X47638Y190157D02*
D03*
Y196457D02*
D03*
Y184252D02*
D03*
X118110Y196457D02*
D03*
X126378Y184252D02*
D03*
X109843Y196457D02*
D03*
X132677Y97819D02*
D03*
X128240Y240370D02*
D03*
X27559Y266142D02*
D03*
X50036Y257480D02*
D03*
X30512Y246850D02*
D03*
X118898Y254331D02*
D03*
X128740Y266929D02*
D03*
X129134Y177559D02*
D03*
X114950Y179134D02*
D03*
X38651Y94814D02*
D03*
X107340Y106142D02*
D03*
X119685Y89205D02*
D03*
X125984Y88976D02*
D03*
X119685Y96063D02*
D03*
X111811Y145669D02*
D03*
X107480Y146063D02*
D03*
X62205Y166142D02*
D03*
X59842Y169291D02*
D03*
X64567Y162598D02*
D03*
X70472Y170276D02*
D03*
X101181Y122047D02*
D03*
X124016Y257087D02*
D03*
X123622Y262992D02*
D03*
X25429Y115059D02*
D03*
X25528Y126279D02*
D03*
X104724Y162992D02*
D03*
X41339Y159055D02*
D03*
X100787Y162024D02*
D03*
X37008Y161024D02*
D03*
X47638Y76772D02*
D03*
X136614Y151417D02*
D03*
X104943Y156496D02*
D03*
X66840Y155118D02*
D03*
X109449Y129921D02*
D03*
X74251Y175000D02*
D03*
X136221Y121260D02*
D03*
X106181Y121142D02*
D03*
X121653Y123622D02*
D03*
X55118Y173228D02*
D03*
X122547Y116035D02*
D03*
X54724Y169685D02*
D03*
X79528Y144882D02*
D03*
X83071Y146063D02*
D03*
X114950Y88976D02*
D03*
X137244Y106142D02*
D03*
X20596Y87417D02*
D03*
X109843Y252500D02*
D03*
X50787Y159055D02*
D03*
X40945Y152756D02*
D03*
X52756Y185827D02*
D03*
X45079Y164173D02*
D03*
X40551Y165354D02*
D03*
X72640Y147638D02*
D03*
X123403Y132109D02*
D03*
X21850Y107677D02*
D03*
X65945Y118110D02*
D03*
X97087Y152555D02*
D03*
X67913Y173228D02*
D03*
X25000Y107677D02*
D03*
X65945Y114173D02*
D03*
X55512Y70866D02*
D03*
Y74803D02*
D03*
X120866Y235276D02*
D03*
X115354D02*
D03*
Y247087D02*
D03*
X120866D02*
D03*
Y241181D02*
D03*
X115354D02*
D03*
X42126Y235276D02*
D03*
X36614D02*
D03*
Y247087D02*
D03*
X42126D02*
D03*
Y241181D02*
D03*
X36614D02*
D03*
X31102Y76772D02*
D03*
Y64961D02*
D03*
X47638D02*
D03*
X39370Y76772D02*
D03*
Y64961D02*
D03*
X31102Y70866D02*
D03*
X47638D02*
D03*
X36614Y25984D02*
D03*
X42126D02*
D03*
X36614Y14173D02*
D03*
Y20079D02*
D03*
X42126D02*
D03*
X120866D02*
D03*
X115354D02*
D03*
Y14173D02*
D03*
X120866D02*
D03*
Y25984D02*
D03*
X115354D02*
D03*
X126378Y70866D02*
D03*
X109843D02*
D03*
X118110Y64961D02*
D03*
Y76772D02*
D03*
X126378D02*
D03*
Y64961D02*
D03*
X109843D02*
D03*
Y76772D02*
D03*
X67716Y64961D02*
D03*
X72835Y77953D02*
D03*
X85843Y85701D02*
D03*
X73638D02*
D03*
X78756Y77866D02*
D03*
X101969Y184252D02*
D03*
X68898Y150787D02*
D03*
X101575Y110236D02*
D03*
X70276Y131299D02*
D03*
X76772D02*
D03*
X101575Y102362D02*
D03*
X65945Y108268D02*
D03*
D101*
X151573Y195529D02*
D03*
X151181Y217827D02*
D03*
X153070Y146303D02*
D03*
X90551Y113189D02*
D03*
X76772D02*
D03*
X83661Y120051D02*
D03*
Y106299D02*
D03*
X90551D02*
D03*
X76772D02*
D03*
X90551Y120051D02*
D03*
X76772Y120079D02*
D03*
X88779Y160433D02*
D03*
X82874D02*
D03*
X88779Y166339D02*
D03*
X82874D02*
D03*
X104567Y172677D02*
D03*
D102*
X106188Y28543D02*
D03*
Y25000D02*
D03*
X49174Y53936D02*
D03*
X52717D02*
D03*
X83661Y113189D02*
D03*
X118118Y55512D02*
D03*
X122055D02*
D03*
X109259D02*
D03*
X105322D02*
D03*
X30512Y31496D02*
D03*
X34449D02*
D03*
X47244D02*
D03*
X43307D02*
D03*
X56693Y95276D02*
D03*
X52362D02*
D03*
X61417Y107874D02*
D03*
X49608Y136807D02*
D03*
X77166Y190158D02*
D03*
Y196063D02*
D03*
X79921Y65059D02*
D03*
X73622D02*
D03*
X77166Y199607D02*
D03*
X56300Y207481D02*
D03*
Y203937D02*
D03*
X77166Y186615D02*
D03*
M02*
