M48
;Layer_Color=9474304
;FILE_FORMAT=2:5
INCH,TZ
;TYPE=PLATED
T1F00S00C0.01181
T2F00S00C0.01575
T3F00S00C0.02559
T4F00S00C0.09055
;TYPE=NON_PLATED
T5F00S00C0.01968
T6F00S00C0.04331
%
T01
X8268Y4331
X27953
X37795
X47638
X42126Y14173
X36614
Y20079
X42126
Y25984
X36614
X27953Y24016
X57480Y4331
X67323
X77165
X87008
X96850
X106693
X116535
X126378
X120866Y14173
X115354
Y20079
X120866
Y25984
X115354
X96850Y43701
X87008
X77165
X67323
X67716Y64961
X72835Y77953
X78756Y77866
X73638Y85701
X85843
X90390Y90417
X98583Y81201
X109843Y76772
Y70866
Y64961
X118110
X126378
Y70866
Y76772
X118110
X119685Y89205
X114950Y88976
X125984
X119685Y96063
X132677Y97819
X137244Y106142
X136221Y121260
X121653Y123622
X122547Y116035
X123403Y132109
X109449Y129921
X106181Y121142
X101181Y122047
X101575Y110236
Y102362
X102362Y97319
X107340Y106142
X107480Y146063
X111811Y145669
X104943Y156496
X104724Y162992
X100787Y162024
X97087Y152555
X83071Y146063
X79528Y144882
X72640Y147638
X68898Y150787
X66840Y155118
X64567Y162598
X62205Y166142
X59842Y169291
X70472Y170276
X67913Y173228
X74251Y175000
X90551Y181102
X90748Y185827
X101969Y184252
X114950Y179134
X121934Y171417
X129134Y177559
X134759Y177107
X126378Y184252
X136614Y151417
X139554Y142913
X150645Y153797
X152362Y98819
X150984Y73228
X146063Y63386
X150984Y53543
X66840Y92767
X65945Y108268
Y114173
Y118110
X64328Y130371
X70276Y131299
X76772
X43114Y123031
X37795Y122441
X32283Y115059
X25429
X25000Y107677
X21850
X20079Y101575
X20472Y92913
X20596Y87417
X8268Y83071
Y102756
Y122441
X13189Y132283
X25528Y126279
X24600Y146063
X23031Y151969
X27953Y161811
X37008Y161024
X41339Y159055
X40945Y152756
X52559Y151969
X48860Y147244
X50787Y159055
X45079Y164173
X40551Y165354
X54724Y169685
X55118Y173228
X52756Y185827
X47638Y184252
X39886
X31012
X25000Y176378
X23031Y171653
X33613Y95239
X38651Y94814
X39370Y76772
X47638
Y70866
Y64961
X39370
X31102
Y70866
Y76772
X55512Y74803
Y70866
X8268Y63386
X13189Y53543
X18110Y43701
X8268
X23031Y33858
X47638Y190157
Y196457
X52559Y211024
X47638Y240551
X42126Y241181
X36614
Y235276
X42126
Y247087
X36614
X30512Y246850
X27953Y240551
X27559Y266142
X39370Y267716
X50036Y257480
X8268Y220866
Y201181
X96850
X107144Y207677
X109843Y196457
X118110
X116535Y201181
X116374Y214961
X121457Y230709
X120866Y235276
X115354
Y241181
X120866
Y247087
X115354
X118898Y254331
X124016Y257087
X123622Y262992
X128740Y266929
X105864Y264469
X109843Y252500
X128240Y240370
X146063Y240551
X136221Y220866
X132677Y193914
X96850Y220866
X60236Y251181
T02
X30512Y31496
X34449
X43307
X47244
X106188Y28543
Y25000
X105322Y55512
X109259
X118118
X122055
X79921Y65059
X73622
X76772Y106299
X83661
X90551
Y113189
X90551Y120051
X83661
Y113189
X76772
Y120079
X61417Y107874
X56693Y95276
X82874Y160433
X88779
Y166339
X82874
X77166Y186615
X104567Y172677
X153070Y146303
X49608Y136807
X52362Y95276
X52717Y53936
X49174
X56300Y203937
Y207481
X77166Y199607
Y196063
Y190158
X151573Y195529
X151181Y217827
T03
X153287Y160098
Y176043
T04
X15748Y15748
X141732
X15748Y255906
X141732
T05
X34252Y259842
T06
X133858Y208661
X149606
M30
